<?xml version="1.0" standalone="no"?>
<!DOCTYPE svg PUBLIC "-//W3C//DTD SVG 20010904//EN"
 "http://www.w3.org/TR/2001/REC-SVG-20010904/DTD/svg10.dtd">
<svg version="1.0" xmlns="http://www.w3.org/2000/svg"
 width="1779.000000pt" height="858.000000pt" viewBox="0 0 1779.000000 858.000000"
 preserveAspectRatio="xMidYMid meet">

<g transform="translate(0.000000,858.000000) scale(0.100000,-0.100000)"
fill="#000000" stroke="none">
<path d="M16320 6994 c-72 -15 -219 -83 -320 -146 -35 -23 -125 -87 -200 -143
-120 -91 -332 -243 -990 -713 -102 -73 -234 -169 -295 -214 -258 -191 -728
-530 -828 -598 -29 -19 -58 -41 -66 -48 -8 -8 -33 -25 -55 -39 -23 -14 -43
-29 -46 -33 -3 -4 -45 -35 -95 -68 -140 -96 -168 -116 -350 -252 -93 -70 -237
-175 -320 -234 -82 -58 -188 -134 -235 -168 -148 -109 -372 -269 -470 -338
-52 -36 -138 -97 -190 -135 -52 -38 -108 -78 -125 -89 -16 -12 -66 -48 -110
-82 -44 -33 -165 -121 -270 -194 -104 -73 -228 -161 -275 -195 -202 -146 -454
-328 -570 -410 -69 -49 -192 -139 -275 -200 -156 -117 -281 -205 -450 -320
-99 -67 -126 -86 -344 -248 -62 -47 -125 -91 -140 -98 -71 -37 -344 -230 -496
-352 -39 -31 -138 -87 -154 -87 -11 0 -40 9 -65 20 -40 17 -82 42 -226 135
-19 12 -62 40 -95 60 -33 21 -163 114 -290 206 -205 150 -512 371 -841 605
-62 43 -161 112 -220 153 -60 41 -183 129 -274 196 -91 67 -264 193 -385 280
-121 87 -242 175 -270 195 -69 51 -307 221 -440 313 -60 42 -153 108 -205 146
-52 39 -176 129 -275 201 -99 72 -250 183 -335 246 -153 113 -406 295 -610
437 -147 103 -504 361 -906 655 -111 81 -257 185 -324 232 -68 47 -161 112
-206 145 -237 170 -494 357 -716 519 -270 198 -330 241 -600 427 -302 207
-387 245 -529 237 -182 -11 -336 -146 -385 -340 -19 -72 -13 -160 13 -215 21
-45 143 -170 208 -213 98 -66 673 -474 970 -690 159 -115 439 -318 609 -441
49 -35 126 -89 170 -119 45 -31 146 -103 226 -161 80 -58 244 -177 365 -264
121 -87 263 -190 315 -230 52 -39 203 -148 335 -242 132 -94 314 -225 405
-292 91 -66 359 -258 595 -427 470 -336 702 -503 985 -709 178 -130 403 -292
560 -405 41 -29 149 -106 240 -170 193 -136 550 -395 1102 -800 361 -264 591
-397 828 -476 80 -27 95 -28 250 -28 163 0 167 0 283 37 269 86 330 124 1142
720 77 57 203 148 280 202 238 168 475 337 585 418 284 208 626 456 815 591
116 82 316 227 445 321 247 181 313 228 839 603 179 128 398 285 486 349 237
173 851 614 1180 847 55 39 151 108 213 154 63 46 225 163 360 261 136 98 324
234 417 302 94 68 217 158 275 199 492 348 771 565 828 643 70 95 85 129 72
162 -9 23 -13 26 -20 15 -8 -12 -10 -9 -11 10 -3 68 -8 90 -25 118 -10 17 -21
29 -25 26 -4 -2 -11 1 -15 7 -4 8 -3 9 4 5 20 -12 14 1 -32 66 -79 111 -154
155 -296 171 -25 3 -74 -1 -110 -9z m440 -294 c0 -11 -2 -20 -4 -20 -2 0 -6 9
-9 20 -3 11 -1 20 4 20 5 0 9 -9 9 -20z m37 -127 c-3 -10 -5 -4 -5 12 0 17 2
24 5 18 2 -7 2 -21 0 -30z"/>
</g>
</svg>
