<?xml version="1.0" standalone="no"?>
<!DOCTYPE svg PUBLIC "-//W3C//DTD SVG 20010904//EN"
 "http://www.w3.org/TR/2001/REC-SVG-20010904/DTD/svg10.dtd">
<svg version="1.0" xmlns="http://www.w3.org/2000/svg"
 width="1736.000000pt" height="1624.000000pt" viewBox="0 0 1736.000000 1624.000000"
 preserveAspectRatio="xMidYMid meet">

<g transform="translate(0.000000,1624.000000) scale(0.100000,-0.100000)"
fill="#000000" stroke="none">
<path d="M6926 14839 c-11 -18 -15 -29 -9 -26 5 3 27 -11 49 -31 35 -32 105
-91 155 -130 9 -7 24 -9 33 -6 15 6 16 8 1 24 -9 10 -15 22 -13 26 4 13 -31
55 -73 86 -34 25 -98 45 -128 39 -10 -2 -10 2 3 14 17 17 21 35 8 35 -4 0 -16
-14 -26 -31z"/>
<path d="M6680 14840 c0 -5 5 -10 10 -10 6 0 10 5 10 10 0 6 -4 10 -10 10 -5
0 -10 -4 -10 -10z"/>
<path d="M6660 14821 c0 -5 -14 -23 -31 -40 -23 -23 -35 -29 -47 -22 -10 6
-23 6 -34 0 -10 -5 -18 -6 -18 -2 0 4 -4 3 -8 -4 -4 -6 -14 -13 -22 -15 -8 -2
-21 -9 -28 -16 -8 -7 -17 -10 -21 -7 -5 2 -16 -4 -26 -15 -10 -11 -15 -20 -11
-20 4 0 -4 -12 -18 -27 -16 -17 -24 -35 -21 -48 2 -11 9 -54 15 -95 17 -120
36 -173 122 -334 133 -248 232 -396 397 -594 47 -57 90 -113 96 -125 5 -12 12
-24 15 -27 6 -5 190 -269 349 -499 51 -75 144 -201 205 -281 62 -80 143 -190
182 -245 39 -55 113 -154 165 -221 52 -66 139 -185 194 -264 55 -79 147 -206
205 -282 137 -182 237 -324 261 -370 21 -41 164 -234 267 -361 34 -44 114
-156 177 -250 63 -95 132 -197 153 -227 22 -30 86 -125 142 -210 56 -85 139
-202 184 -260 45 -58 119 -157 165 -220 45 -63 143 -194 217 -290 75 -96 173
-231 219 -300 45 -69 129 -184 186 -255 57 -72 126 -166 153 -210 61 -101 123
-197 135 -211 5 -7 7 -15 4 -18 -4 -3 -1 -6 5 -6 6 0 14 -9 17 -20 4 -11 9
-18 13 -16 4 2 16 -8 26 -23 l20 -26 -25 20 -24 20 15 -20 c8 -11 38 -44 67
-74 29 -30 71 -86 94 -125 23 -39 59 -96 80 -127 21 -31 36 -59 33 -61 -2 -3
8 -5 22 -4 17 1 29 -5 31 -14 3 -10 2 -11 -4 -4 -13 18 -44 2 -33 -16 8 -13
10 -13 10 0 0 10 5 7 16 -8 8 -12 19 -20 24 -17 4 3 14 -3 21 -12 12 -14 12
-16 -1 -9 -8 5 -4 -2 10 -15 14 -13 41 -49 60 -79 18 -30 45 -68 59 -84 25
-29 24 -28 -19 5 -24 19 -60 52 -80 74 -85 96 -97 104 -36 23 37 -47 65 -90
64 -95 -1 -4 4 -25 11 -45 9 -28 10 -42 1 -59 -7 -12 -8 -24 -4 -28 19 -13 14
-45 -12 -84 -66 -101 -177 -238 -188 -234 -7 3 -18 -5 -25 -16 -11 -18 -11
-20 0 -9 7 6 17 12 22 12 12 0 -15 -25 -37 -33 -10 -4 -16 -13 -13 -20 3 -8 1
-20 -5 -28 -8 -11 -8 -9 -4 6 6 19 5 19 -8 2 -8 -11 -12 -26 -9 -34 4 -9 -2
-16 -16 -20 -11 -3 -21 -9 -21 -13 0 -4 -19 -27 -41 -50 -23 -24 -36 -40 -28
-36 8 4 7 2 -2 -6 -9 -7 -19 -23 -23 -36 -4 -12 -17 -32 -29 -44 -12 -11 -16
-18 -9 -14 23 13 12 -12 -37 -85 -26 -41 -92 -141 -147 -224 -54 -82 -125
-188 -159 -235 -34 -47 -104 -148 -157 -226 -106 -156 -316 -439 -388 -524
-26 -30 -87 -109 -135 -175 -49 -66 -139 -179 -199 -251 -61 -72 -159 -191
-217 -265 -107 -136 -422 -602 -559 -827 -41 -68 -121 -189 -177 -270 -56 -81
-158 -230 -227 -332 -68 -102 -181 -255 -249 -341 -69 -86 -157 -203 -197
-260 -40 -57 -96 -131 -125 -164 -63 -74 -141 -167 -219 -263 -32 -39 -61 -72
-65 -72 -4 0 -15 -15 -26 -32 -10 -18 -45 -66 -77 -107 -77 -96 -351 -510
-408 -616 -18 -33 -45 -79 -61 -102 -15 -24 -51 -84 -78 -135 -55 -103 -80
-140 -81 -120 0 7 7 29 15 48 8 20 13 39 11 43 -3 3 13 32 35 63 21 32 39 62
39 66 0 5 25 47 55 93 32 49 42 69 24 49 -61 -70 -275 -408 -264 -418 3 -3 5
-1 5 5 0 6 7 13 15 16 17 7 2 -29 -87 -211 l-61 -123 2 -122 c3 -166 7 -222
15 -235 4 -7 1 -12 -6 -12 -9 0 -10 -3 -2 -8 6 -4 14 -18 18 -32 7 -24 6 -24
-8 -6 -21 26 -20 17 4 -40 15 -35 24 -44 32 -36 8 8 17 5 33 -12 11 -12 26
-21 33 -18 7 2 1 13 -14 27 -15 14 -23 29 -19 36 4 6 1 15 -6 20 -10 6 -9 10
6 15 11 4 23 12 27 18 5 7 8 7 8 -2 0 -7 4 -11 9 -8 5 3 21 -6 35 -19 30 -27
51 -33 43 -11 -4 9 0 12 13 9 10 -3 21 0 24 6 4 6 -4 13 -19 17 -32 8 -33 24
0 24 14 0 25 3 25 8 0 4 65 8 145 9 129 1 149 4 180 23 19 12 38 19 43 16 11
-7 112 23 112 34 0 5 9 12 20 15 11 4 17 11 14 17 -4 6 -1 9 6 6 14 -4 46 25
122 115 29 34 69 80 88 102 19 23 51 60 70 84 19 24 44 52 54 62 26 25 18 29
-21 13 -22 -9 -47 -36 -77 -81 -78 -118 -247 -287 -298 -299 -5 -1 -10 -3 -13
-4 -3 -1 -8 -3 -12 -4 -5 -1 -14 -5 -21 -10 -7 -4 -15 -6 -18 -4 -2 3 39 46
91 96 52 51 92 92 89 92 -3 0 16 21 43 48 26 26 70 72 98 102 27 30 62 61 79
68 31 13 38 20 90 97 37 55 176 210 176 198 1 -5 8 4 16 20 8 15 20 27 27 27
9 0 9 2 -1 8 -9 6 -4 16 20 38 18 17 48 48 66 70 18 21 75 82 125 134 101 105
165 176 169 188 2 4 7 6 11 4 5 -1 6 2 3 7 -3 5 9 22 27 38 35 32 108 121 89
109 -8 -5 -10 -2 -6 9 4 9 12 14 19 11 16 -6 28 21 18 37 -3 7 -2 9 2 4 5 -4
16 3 24 16 9 13 36 47 61 76 49 57 150 204 145 210 -6 5 -30 -21 -44 -47 -7
-12 -16 -20 -22 -17 -8 6 -13 -8 -10 -28 1 -5 -2 -6 -7 -3 -5 3 -58 -45 -118
-107 -60 -61 -113 -110 -117 -109 -4 1 -3 -7 3 -18 6 -11 7 -20 3 -19 -18 3
-36 -1 -30 -7 10 -10 -44 -74 -57 -67 -6 3 -8 2 -3 -2 4 -5 -37 -54 -92 -109
-127 -130 -164 -172 -241 -276 -35 -47 -86 -111 -114 -144 -52 -61 -95 -118
-167 -221 -23 -33 -51 -70 -61 -82 -12 -13 -17 -27 -12 -35 4 -7 4 -10 -1 -6
-4 4 -17 3 -28 -3 -15 -9 -18 -8 -11 3 11 19 48 72 54 78 3 3 17 21 31 40 15
19 36 46 48 59 11 13 18 28 15 32 -3 5 0 9 6 9 6 0 8 5 5 11 -11 17 180 339
200 339 6 0 19 15 27 34 9 18 30 49 46 67 16 19 31 39 33 45 4 10 76 93 194
224 28 30 68 78 90 105 22 28 43 52 47 53 5 2 6 8 2 13 -3 5 0 8 8 7 7 -2 12
3 10 10 -1 8 2 11 7 8 10 -6 25 11 26 29 1 6 6 9 12 8 13 -3 42 28 40 41 -1 5
6 10 17 12 21 3 51 41 51 65 0 17 54 89 67 89 4 0 8 -5 8 -11 0 -5 -4 -7 -10
-4 -6 4 -7 -1 -3 -11 3 -10 2 -15 -3 -12 -9 6 -34 -15 -35 -29 -1 -5 -5 -7
-11 -5 -5 1 -7 -2 -3 -8 8 -14 25 -1 66 52 17 21 24 35 16 32 -8 -3 -18 0 -23
7 -4 8 -3 10 4 5 7 -4 20 7 33 29 23 38 39 42 19 5 -6 -12 -9 -24 -6 -28 3 -3
6 0 6 7 0 7 4 9 10 6 6 -4 7 1 3 11 -4 12 -3 15 6 10 6 -4 10 -3 9 2 -2 6 30
44 70 86 46 47 71 80 66 87 -4 7 -3 9 3 6 6 -4 19 3 29 15 12 14 14 18 4 13
-13 -8 -13 -7 0 10 8 10 40 44 70 76 30 31 63 72 74 90 13 24 -5 10 -60 -46
-42 -44 -73 -72 -67 -62 5 10 99 109 209 220 199 201 267 277 292 323 7 13 17
24 21 24 5 0 12 7 15 16 3 8 2 12 -4 9 -6 -3 -7 1 -4 9 3 9 11 13 17 9 6 -3 7
-1 3 5 -4 6 23 48 59 94 36 45 65 89 64 98 0 10 -6 7 -17 -10 -9 -14 -29 -37
-43 -52 -14 -14 -38 -41 -54 -60 -15 -18 -52 -60 -84 -93 -31 -33 -103 -112
-161 -174 -58 -63 -111 -120 -117 -127 -7 -7 -13 -17 -13 -23 0 -6 -6 -10 -12
-9 -7 2 -12 -3 -10 -10 1 -8 -2 -11 -6 -8 -14 8 -242 -219 -305 -304 -53 -72
-172 -196 -131 -138 10 15 22 28 27 28 4 0 7 6 7 14 0 7 7 19 16 27 8 7 32 38
51 68 20 31 62 83 92 116 31 33 66 74 79 90 76 103 92 124 117 165 15 25 42
61 59 81 66 76 118 139 187 230 40 52 84 108 98 125 29 35 54 67 108 139 21
27 46 59 56 69 9 11 17 25 17 32 0 7 4 14 9 16 12 4 92 132 128 203 42 85 85
158 99 170 6 6 25 35 42 65 17 30 46 71 64 90 19 19 42 48 53 65 20 32 200
252 246 301 16 17 29 36 29 43 0 6 4 11 9 11 5 0 13 9 16 21 4 11 48 64 99
117 51 53 102 112 115 130 12 18 27 30 32 26 5 -3 8 -2 7 3 -2 4 8 21 22 37
39 47 185 189 214 209 15 10 23 23 20 29 -5 8 -1 9 10 5 11 -4 15 -3 10 4 -3
6 22 40 57 76 77 79 40 58 -51 -30 -147 -141 61 81 310 332 69 69 144 149 165
176 22 28 43 52 48 53 4 2 7 10 7 17 0 8 6 20 13 27 7 7 35 52 62 100 27 47
54 84 59 81 5 -4 6 -1 2 5 -9 14 14 63 27 55 6 -3 7 -1 3 5 -10 17 -26 15 -33
-5 -7 -18 -71 -114 -82 -123 -4 -3 -15 -18 -25 -35 -33 -50 -180 -202 -467
-479 -58 -57 -128 -133 -155 -169 -30 -42 -54 -65 -63 -62 -8 3 -11 0 -8 -8 6
-17 4 -20 -68 -87 -52 -48 -55 -49 -19 -10 23 25 50 61 59 80 25 48 57 90 65
85 4 -2 13 7 20 20 7 14 17 25 22 25 4 0 8 6 8 13 0 7 9 19 20 27 11 8 20 20
20 27 0 7 6 12 12 11 7 -2 14 8 16 22 2 14 7 27 11 30 3 3 22 27 41 54 19 26
46 60 60 75 14 14 38 44 55 66 16 22 37 49 47 60 9 11 29 37 45 57 15 20 69
90 120 156 50 65 107 143 126 173 19 30 52 72 72 94 21 22 44 55 52 73 7 18
20 35 28 38 8 3 17 14 20 25 4 11 11 17 16 13 6 -3 3 -14 -8 -26 -10 -11 -17
-22 -16 -24 9 -16 29 -31 37 -27 4 3 13 -1 18 -8 8 -12 9 -12 6 0 -3 8 16 34
40 57 24 24 41 47 37 53 -3 6 -1 11 4 11 11 0 49 34 54 48 1 4 6 6 10 4 5 -1
6 2 3 6 -3 5 3 20 14 32 11 12 22 31 25 41 4 11 9 17 13 15 10 -5 32 20 25 28
-4 3 -1 6 5 6 7 0 12 5 12 11 0 13 59 100 78 114 7 6 15 19 17 30 2 11 4 22 4
24 1 2 7 -2 15 -8 17 -14 31 2 20 22 -6 10 -4 10 7 0 23 -22 36 -14 53 32 10
25 21 43 26 40 4 -3 13 9 19 25 11 32 24 43 15 13 -3 -10 4 -1 15 21 11 21 25
44 32 52 6 8 8 14 3 14 -5 0 -4 4 1 8 15 11 39 56 25 47 -7 -4 4 15 22 41 19
27 33 55 30 63 -3 9 0 11 8 6 10 -6 12 -1 8 18 -3 15 -2 24 2 22 4 -2 12 7 19
21 8 19 8 24 -1 18 -8 -5 -9 -2 -5 10 4 10 7 23 8 29 0 7 4 3 8 -7 7 -19 8
-19 13 2 4 13 2 20 -3 16 -9 -5 -7 21 6 69 4 17 2 15 -11 -7 -9 -16 -17 -39
-19 -53 -1 -13 -9 -31 -17 -41 -9 -9 -23 -32 -33 -51 -28 -55 -89 -130 -102
-126 -7 2 -15 -1 -19 -7 -4 -7 -3 -8 4 -4 7 4 12 1 12 -9 0 -11 -5 -15 -16
-11 -8 3 -13 2 -9 -3 3 -5 -6 -23 -20 -39 -14 -16 -25 -33 -25 -38 0 -20 -43
-94 -55 -94 -8 0 -28 -22 -46 -49 -17 -28 -38 -52 -45 -55 -8 -3 -14 -10 -14
-16 0 -13 -84 -124 -134 -177 -25 -25 -45 -39 -54 -35 -9 3 -13 1 -9 -4 3 -6
-4 -10 -16 -11 -12 0 -16 1 -9 4 6 3 12 8 12 13 0 5 4 19 9 32 5 13 9 27 9 32
0 5 4 12 9 15 9 7 47 63 48 71 0 6 86 133 94 140 27 23 139 184 169 243 21 40
46 84 55 97 15 21 17 22 17 6 0 -25 9 -15 15 15 3 13 13 31 22 39 26 22 111
134 123 161 17 37 64 112 89 142 8 10 16 26 17 35 2 9 7 18 12 20 6 2 8 12 5
22 -3 11 -1 20 4 20 10 0 11 2 17 65 2 22 5 40 6 40 7 0 7 56 -1 60 -5 4 -9 1
-9 -5 0 -6 -4 -8 -10 -5 -6 4 -3 16 7 32 13 20 14 25 3 21 -27 -9 -35 -35 -17
-55 15 -18 15 -19 -2 -30 -23 -14 -35 -5 -20 14 9 10 8 17 -2 30 -11 13 -11
17 -1 20 6 3 12 9 12 14 0 6 -5 7 -12 3 -6 -4 -8 -3 -4 4 3 6 2 13 -4 17 -6 4
-8 11 -5 16 4 5 -1 9 -10 9 -9 0 -13 5 -10 10 4 6 11 8 16 5 18 -12 9 5 -18
31 -16 15 -21 22 -11 15 20 -15 35 3 18 24 -9 10 -7 14 7 18 17 4 17 5 1 6
-10 0 -18 6 -18 12 0 5 -4 7 -10 4 -5 -3 -12 5 -16 19 -7 28 -30 37 -56 22
-27 -16 -50 11 -44 52 5 39 -2 65 -15 56 -5 -3 -6 1 -3 9 5 15 -22 31 -37 21
-5 -3 -9 0 -9 6 0 6 -11 22 -25 36 -14 14 -25 31 -25 38 0 7 -10 24 -23 37
-12 14 -21 32 -19 42 2 9 -1 17 -7 17 -6 0 -11 6 -11 14 0 24 -20 29 -40 11
-19 -17 -19 -16 -13 20 4 27 3 36 -5 31 -8 -5 -10 -2 -6 8 3 9 2 16 -4 16 -5
0 -13 11 -16 25 -4 14 -11 25 -16 25 -6 0 -10 6 -10 13 0 11 -15 31 -74 97
-12 14 -30 39 -39 55 -19 36 -77 170 -77 181 0 13 -45 99 -62 118 -10 11 -18
23 -18 28 0 14 -18 9 -24 -8 -3 -9 -2 -12 5 -9 6 4 7 -3 3 -22 -6 -27 -6 -27
10 -8 13 16 15 17 10 3 -3 -10 -1 -18 5 -18 6 0 11 -4 11 -10 0 -5 -7 -7 -16
-3 -12 4 -14 0 -8 -23 4 -16 10 -33 14 -39 4 -5 14 -32 23 -59 12 -35 14 -53
6 -68 -9 -16 -13 -17 -26 -7 -18 16 -138 197 -138 209 0 5 -7 15 -15 22 -12
11 -13 11 -5 -2 6 -9 0 -4 -12 10 -24 27 -31 46 -11 34 7 -4 8 -3 4 5 -4 6
-11 9 -16 6 -5 -3 -11 -1 -15 5 -3 5 -2 10 2 10 5 0 9 9 9 21 0 17 -2 18 -11
5 -10 -12 -13 -12 -24 6 -10 16 -10 23 1 36 11 15 11 15 -4 4 -11 -9 -18 -10
-23 -2 -3 5 -1 10 5 10 6 0 8 5 5 10 -4 6 -10 8 -14 6 -3 -3 -7 3 -7 12 -1 9
-4 26 -8 37 -5 16 -4 16 5 -2 6 -12 17 -24 24 -27 7 -2 -5 22 -26 54 -22 31
-39 62 -39 68 0 5 -8 27 -17 48 -19 45 -20 47 -22 75 0 11 -5 18 -10 15 -5 -3
-15 9 -22 27 -7 17 -17 35 -21 38 -5 3 -17 28 -27 56 -21 58 -60 117 -146 223
-34 41 -90 113 -124 160 -35 47 -66 87 -70 90 -4 3 -17 22 -30 43 -28 45 -38
49 -15 5 28 -55 35 -89 20 -104 -12 -12 -16 -9 -25 17 -8 23 -7 28 2 24 7 -4
4 0 -5 8 -10 8 -15 17 -11 20 3 4 -8 25 -25 46 -21 27 -30 46 -25 58 3 10 3
15 -1 11 -12 -10 -34 15 -28 31 3 9 1 12 -6 7 -7 -4 -10 -2 -6 7 2 7 -5 25
-16 38 l-21 24 6 -25 c5 -19 4 -22 -4 -10 -6 8 -8 23 -5 32 3 9 -4 26 -14 36
-11 11 -28 34 -38 53 -11 19 -31 50 -45 69 -14 19 -24 40 -22 47 2 6 -5 18
-16 25 -12 8 -18 18 -14 22 4 4 -1 4 -11 0 -14 -5 -17 -4 -12 5 4 6 2 18 -4
26 -22 27 -30 15 -13 -20 9 -19 21 -31 26 -28 6 4 8 -1 4 -11 -4 -11 2 -29 17
-49 13 -18 33 -50 45 -72 12 -22 39 -68 61 -103 22 -34 42 -70 44 -80 1 -9 9
-30 16 -47 7 -16 14 -36 16 -43 2 -13 23 -47 84 -137 15 -22 42 -69 60 -105
18 -36 36 -66 41 -68 5 -2 9 -9 9 -17 0 -7 7 -18 15 -25 9 -8 13 -21 10 -34
-4 -14 -3 -17 3 -8 6 10 15 3 34 -25 14 -21 49 -63 77 -93 53 -56 191 -254
191 -272 0 -6 29 -49 64 -97 91 -124 155 -225 222 -348 29 -56 23 -55 -16 2
-17 25 -41 56 -53 69 -101 109 -188 217 -229 281 -96 152 -129 210 -163 283
-21 45 -41 78 -44 73 -4 -5 -17 6 -29 26 -13 19 -18 32 -12 28 8 -5 11 -3 8 6
-3 8 -11 14 -19 14 -8 0 -14 9 -14 20 0 11 -5 20 -12 20 -11 0 -53 47 -53 59
0 9 -39 64 -68 96 -13 14 -39 52 -60 85 -20 33 -42 66 -49 73 -7 7 -13 17 -13
22 0 5 -6 15 -13 22 -22 23 -47 67 -47 82 0 14 -127 256 -140 266 -4 3 -12 20
-18 39 -12 33 -47 85 -85 126 -24 25 -54 72 -102 160 -21 39 -44 79 -52 91 -7
11 -10 24 -6 29 5 4 4 6 -2 3 -5 -3 -30 40 -55 96 -24 55 -52 112 -61 126 -9
14 -24 38 -33 53 -10 16 -22 25 -28 21 -6 -4 -8 -3 -5 4 9 13 -2 44 -13 37 -4
-3 -11 7 -15 22 -6 24 -22 48 -106 156 -15 19 -24 25 -29 17 -5 -8 -9 -7 -13
5 -4 9 -3 13 3 10 6 -3 10 -3 10 0 0 11 -43 69 -57 78 -7 4 -9 15 -6 25 3 9 3
14 -2 10 -12 -12 -33 10 -29 30 3 9 -5 31 -16 47 -11 17 -20 26 -20 21 0 -6
-21 21 -46 60 -51 76 -84 120 -84 112 0 -6 40 -99 71 -164 10 -23 19 -48 19
-57 0 -9 4 -18 9 -22 6 -3 10 -14 10 -25 1 -11 1 -29 2 -40 0 -11 4 -18 9 -15
5 3 12 -6 16 -20 3 -14 11 -22 17 -18 5 3 7 1 4 -4 -4 -6 0 -16 8 -23 19 -16
20 -31 1 -24 -18 7 -122 136 -118 147 2 5 -4 17 -12 26 -8 9 -31 48 -51 86
-21 39 -45 79 -55 90 -64 74 -153 241 -141 264 10 20 3 43 -11 35 -6 -4 -5
-10 3 -15 10 -6 10 -9 2 -9 -17 0 -27 20 -15 32 11 11 -4 68 -17 68 -4 0 -15
18 -25 40 -10 23 -22 37 -28 34 -7 -4 -8 -2 -4 4 7 11 -61 154 -76 160 -5 2
-8 9 -8 16 0 7 -7 21 -15 32 -14 18 -14 18 -15 -4 0 -14 4 -21 11 -16 8 4 8 0
0 -15 -14 -25 -23 -28 -14 -4 4 9 2 14 -4 10 -5 -3 -9 4 -9 16 1 13 -4 21 -12
19 -8 -1 -12 3 -10 9 2 7 -5 22 -16 34 -32 34 -61 79 -58 88 1 5 -1 6 -6 3 -5
-3 -14 11 -21 30 -9 25 -17 34 -28 29 -12 -4 -13 -2 -5 8 9 10 8 18 -4 33 -14
18 -15 18 -4 -3 15 -32 -1 -29 -25 4 -11 15 -27 35 -36 44 -10 9 -30 39 -45
65 -30 53 -64 101 -64 90 0 -3 4 -14 10 -24 26 -46 93 -199 93 -212 0 -8 11
-28 25 -45 14 -16 7 -12 -15 10 -40 38 -57 65 -31 49 7 -4 8 -3 4 5 -4 6 -11
9 -16 6 -5 -3 -11 -1 -15 5 -3 5 -1 10 5 10 6 0 -1 17 -15 38 -14 20 -30 37
-37 37 -6 0 -13 6 -16 14 -3 9 0 11 8 6 9 -5 11 -4 6 4 -4 6 -11 9 -16 6 -5
-3 -14 3 -20 14 -5 11 -39 58 -75 105 -57 74 -90 132 -85 145 1 2 -2 7 -7 10
-12 8 -59 98 -68 129 -6 20 -9 21 -22 10 -14 -11 -15 -11 -5 9 9 16 9 29 0 55
-6 18 -14 35 -18 38 -3 3 -14 23 -24 44 -10 22 -27 49 -37 60 -11 11 -19 24
-19 30 0 5 -3 7 -6 4 -5 -5 55 -126 93 -187 11 -17 12 -26 4 -34 -8 -8 -11 -7
-11 4 0 8 -10 25 -22 39 -13 14 -29 37 -37 53 -8 15 -18 27 -23 27 -4 0 -8 5
-8 11 0 19 -54 89 -70 90 -10 0 -11 2 -2 6 9 3 7 12 -8 33 -11 15 -20 33 -20
39 0 6 -3 11 -7 11 -5 0 -24 33 -43 73 -19 39 -38 74 -41 77 -3 3 -14 19 -23
37 -9 18 -30 53 -47 78 -24 35 -34 43 -41 33 -5 -8 -6 -2 -2 17 4 21 3 26 -4
16 -8 -11 -11 -9 -17 8 -3 12 -10 19 -15 16 -7 -4 -24 24 -20 34 1 2 -3 7 -8
10 -11 8 -64 91 -57 91 3 0 -4 9 -15 20 -12 12 -25 32 -30 45 -5 14 -14 25
-18 25 -14 0 -9 -31 11 -67 10 -18 16 -33 13 -33 -9 0 -46 72 -41 80 3 4 -2
13 -10 20 -9 8 -13 21 -10 34 5 15 4 17 -3 7 -7 -10 -11 -10 -17 -1 -4 7 -1
16 6 22 10 6 6 7 -11 2 -14 -3 -22 -3 -18 1 4 4 1 14 -7 22 -17 16 -20 37 -5
28 6 -4 7 1 3 11 -4 11 -8 13 -11 6 -2 -7 -8 -12 -14 -12 -6 0 -8 7 -4 15 3 8
2 15 -3 15 -4 0 -36 41 -70 90 -35 50 -72 101 -84 114 -12 13 -30 34 -40 47
-10 13 -15 17 -11 9 5 -8 9 -31 10 -51 2 -34 80 -210 97 -217 4 -2 7 -9 7 -17
0 -7 7 -18 15 -25 8 -6 14 -15 13 -18 -1 -4 3 -18 10 -32 l13 -25 -23 26 c-13
15 -30 35 -38 45 -45 57 -70 85 -70 77 0 -4 -9 7 -20 25 -47 77 -176 214 -315
337 -32 28 -66 58 -76 68 -11 9 -23 17 -28 17 -5 0 -12 8 -15 18 -3 9 -16 22
-28 27 -13 6 -22 16 -21 22 1 5 -8 10 -20 9 -12 0 -21 4 -20 10 1 6 -3 11 -10
12 -7 0 -40 3 -74 6 -34 2 -71 7 -83 11 -11 3 -20 2 -20 -4z m-112 -119 c-25
-32 -95 -74 -102 -63 -3 4 13 18 35 32 23 13 45 32 50 42 5 9 17 17 25 17 12
0 10 -6 -8 -28z m-108 -76 c0 -2 -7 -7 -16 -10 -8 -3 -12 -2 -9 4 6 10 25 14
25 6z m294 -613 c9 -18 14 -33 12 -33 -6 0 -36 55 -36 66 0 11 5 3 24 -33z
m1015 -88 c11 -21 17 -42 13 -45 -20 -13 -20 -39 0 -57 21 -18 21 -18 9 5 -7
13 -10 26 -7 30 3 3 6 0 6 -7 0 -7 5 -9 13 -5 6 4 9 3 4 -1 -4 -5 -1 -15 6
-24 7 -9 22 -36 32 -61 23 -53 116 -214 127 -218 5 -2 8 -9 8 -16 0 -7 8 -21
18 -32 10 -10 28 -35 42 -54 13 -19 51 -69 84 -110 34 -41 81 -102 106 -135
25 -33 51 -67 59 -75 8 -8 30 -39 49 -70 20 -30 79 -113 132 -185 53 -71 115
-157 137 -190 23 -33 66 -89 97 -125 31 -36 56 -71 56 -77 0 -7 5 -13 10 -13
6 0 10 -4 10 -9 0 -40 -151 114 -245 249 -32 47 -70 93 -83 104 -13 10 -21 25
-18 33 3 8 1 11 -4 8 -6 -3 -13 2 -17 12 -9 22 -29 44 -36 37 -2 -3 -7 7 -11
21 -4 14 -10 25 -15 25 -5 0 -39 42 -77 93 -37 50 -71 94 -74 97 -3 3 -32 46
-65 95 -32 50 -63 92 -67 93 -4 2 -8 8 -8 13 0 14 -51 89 -83 123 -15 16 -25
31 -23 33 2 2 -9 19 -25 36 -35 38 -79 110 -79 129 0 7 9 -1 19 -18 11 -18 25
-35 31 -39 7 -4 -1 11 -16 34 -16 25 -33 40 -41 37 -7 -3 -13 1 -13 10 0 8 -4
12 -10 9 -6 -4 -7 1 -3 11 3 10 2 15 -3 12 -5 -3 -17 11 -28 31 l-18 36 22
-20 c12 -11 29 -33 37 -48 8 -16 17 -26 20 -23 3 3 -16 41 -44 84 -44 69 -48
81 -41 110 7 26 5 39 -12 61 -11 16 -20 33 -20 37 0 13 17 -9 39 -51z m-758
-302 c13 -16 12 -17 -3 -4 -10 7 -18 15 -18 17 0 8 8 3 21 -13z m69 -78 c13
-14 21 -25 18 -25 -2 0 -15 11 -28 25 -13 14 -21 25 -18 25 2 0 15 -11 28 -25z
m480 -644 c19 -24 65 -78 101 -120 36 -42 74 -89 85 -106 10 -16 38 -57 62
-90 24 -33 51 -73 59 -90 l16 -30 -23 20 c-12 11 -48 52 -78 90 -30 39 -71 86
-90 107 -19 20 -31 41 -28 46 3 6 1 14 -5 18 -8 4 -9 3 -5 -4 16 -26 -6 -9
-56 44 -65 68 -77 94 -18 39 24 -22 39 -33 35 -25 -18 32 -91 127 -135 175
l-45 50 45 -40 c25 -22 61 -60 80 -84z m1080 -236 c0 -5 -9 1 -20 15 -11 14
-20 30 -20 35 0 6 9 -1 20 -15 11 -14 20 -29 20 -35z m151 -82 c13 -16 12 -17
-3 -4 -17 13 -22 21 -14 21 2 0 10 -8 17 -17z m27 -69 c-3 -3 5 -16 18 -29 13
-13 26 -36 30 -52 4 -15 11 -34 17 -40 5 -8 5 -13 0 -13 -5 0 -21 25 -37 55
-15 30 -32 57 -37 61 -9 5 -3 24 8 24 4 0 4 -3 1 -6z m-945 -85 c3 -10 1 -17
-4 -13 -5 3 -9 12 -9 20 0 8 -3 14 -8 14 -4 0 -13 10 -21 23 l-14 22 26 -23
c14 -13 27 -32 30 -43z m950 -45 c15 -30 27 -60 27 -67 0 -8 12 -24 26 -38 23
-22 22 -17 -15 64 -41 88 -48 118 -12 50 11 -21 20 -34 21 -29 0 13 35 -35 51
-71 8 -18 18 -33 22 -33 5 0 6 -4 3 -9 -3 -5 1 -11 9 -15 8 -3 15 -14 15 -25
0 -11 5 -23 11 -26 6 -4 8 -14 5 -22 -3 -8 -2 -12 3 -9 5 3 12 -1 15 -10 5
-12 2 -15 -10 -10 -13 5 -13 1 4 -26 10 -18 24 -32 30 -31 6 2 14 -6 17 -17 4
-11 10 -20 15 -20 5 0 12 -9 15 -20 3 -11 12 -26 19 -32 6 -7 28 -40 49 -74
20 -33 53 -80 75 -105 42 -48 86 -113 117 -171 11 -21 23 -38 26 -38 4 0 10
-7 13 -16 7 -19 -64 41 -78 65 -5 9 -12 18 -16 21 -4 3 -19 28 -34 56 -15 27
-39 63 -53 80 -21 24 -107 141 -149 202 -68 99 -104 163 -98 173 4 8 3 9 -4 5
-12 -7 -34 26 -30 46 2 6 -2 12 -7 13 -16 0 -115 113 -115 131 0 8 -4 13 -9 9
-5 -3 -13 0 -17 6 -5 8 -3 9 6 4 8 -5 11 -3 8 6 -3 8 -10 14 -15 14 -6 0 -15
4 -20 9 -5 5 -3 6 5 2 6 -4 12 -3 12 1 0 5 8 9 18 10 13 1 27 -15 45 -53z m92
-208 c11 -16 25 -33 30 -40 18 -19 69 -99 95 -148 13 -26 52 -81 86 -121 52
-61 134 -199 134 -223 0 -4 -19 19 -41 52 -23 32 -65 86 -94 119 -67 77 -195
272 -195 297 0 12 -4 16 -12 12 -7 -4 -8 -3 -4 5 4 6 -7 32 -27 59 -18 26 -37
54 -41 62 -10 19 43 -37 69 -74z m109 -72 c3 -8 2 -12 -4 -9 -6 3 -10 10 -10
16 0 14 7 11 14 -7z m-618 -431 c125 -136 150 -169 59 -78 -119 118 -201 208
-180 197 12 -6 66 -59 121 -119z m1114 -87 c0 -6 -7 -1 -15 10 -8 10 -15 23
-15 28 0 6 7 1 15 -10 8 -10 15 -23 15 -28z m-212 9 c-3 -3 -9 2 -12 12 -6 14
-5 15 5 6 7 -7 10 -15 7 -18z m160 -180 c73 -102 83 -121 35 -65 -21 24 -64
71 -97 105 -53 55 -86 106 -86 135 0 16 79 -78 148 -175z m-907 88 c13 -16 12
-17 -3 -4 -17 13 -22 21 -14 21 2 0 10 -8 17 -17z m106 -187 c75 -101 106
-142 154 -200 40 -49 95 -129 108 -156 10 -21 9 -20 -11 5 -32 42 -72 91 -152
187 -37 46 -72 93 -77 105 -9 23 -70 113 -103 152 -12 13 -15 21 -8 16 8 -4
48 -53 89 -109z m931 22 c14 -15 23 -30 21 -33 -7 -6 -69 75 -69 89 0 6 6 2
12 -9 6 -11 22 -32 36 -47z m4 -113 c26 -33 69 -82 98 -110 28 -27 77 -90 108
-140 31 -49 62 -96 69 -103 8 -8 21 -28 30 -45 17 -35 73 -109 168 -228 65
-79 133 -178 222 -318 55 -88 66 -116 35 -88 -10 10 -22 14 -27 10 -4 -5 -5
-3 -2 3 3 6 -10 28 -29 50 -19 21 -53 65 -77 98 -23 32 -49 67 -59 76 -9 10
-33 44 -53 76 -20 31 -43 64 -51 71 -8 8 -14 19 -14 25 0 6 -25 41 -55 77
-100 122 -110 135 -95 126 8 -5 -2 9 -22 30 -21 22 -38 45 -38 52 0 7 -4 13
-8 13 -5 0 -15 12 -23 28 -7 15 -21 38 -31 51 -10 13 -15 27 -12 32 3 5 0 9
-6 9 -6 0 -14 8 -18 18 -9 22 -73 116 -127 186 -22 28 -40 57 -42 65 -2 16 0
14 59 -64z m35 58 c-4 -3 -1 -13 6 -22 11 -14 10 -14 -5 -2 -21 15 -23 31 -6
31 6 0 8 -3 5 -7z m40 -58 c0 -8 -4 -12 -9 -9 -4 3 -8 9 -8 15 0 5 4 9 8 9 5
0 9 -7 9 -15z m25 -44 c8 11 9 10 5 -2 -3 -10 5 -26 19 -40 13 -12 24 -27 24
-33 0 -6 -16 6 -35 26 -19 21 -35 43 -34 50 0 10 2 9 6 -1 5 -11 7 -11 15 0z
m-647 -401 c10 -11 16 -20 13 -20 -3 0 -13 9 -23 20 -10 11 -16 20 -13 20 3 0
13 -9 23 -20z m1220 -260 c3 -5 -1 -10 -9 -10 -9 0 -16 5 -16 10 0 6 4 10 9
10 6 0 13 -4 16 -10z m-642 -480 c92 -121 186 -279 179 -299 -3 -9 0 -11 8 -6
9 5 11 4 6 -4 -4 -6 -1 -23 8 -36 9 -14 23 -36 32 -50 29 -45 6 -26 -35 28
-22 28 -52 68 -67 87 l-28 35 27 -24 c15 -14 27 -22 27 -19 0 10 -200 256
-250 308 -3 3 -18 21 -35 39 l-30 35 48 -38 c26 -21 63 -60 83 -87 20 -27 38
-49 41 -49 15 0 -56 92 -166 215 -179 201 -181 205 -27 55 76 -74 157 -160
179 -190z m977 -130 c46 -68 108 -136 119 -132 18 6 32 -19 24 -43 -5 -18 -4
-18 11 -6 14 12 16 12 10 -3 -4 -10 0 -18 11 -22 9 -4 14 -13 11 -21 -3 -8 -1
-11 4 -8 6 3 10 3 10 -2 0 -4 3 -19 7 -33 l6 -25 -22 24 c-11 13 -21 30 -21
38 0 7 -4 13 -8 13 -5 0 -24 21 -42 48 -19 26 -56 74 -82 106 -27 32 -56 73
-64 90 -15 31 -6 22 26 -24z m-265 -911 c10 -13 -29 23 -88 81 -59 57 -107
107 -107 111 0 7 164 -155 195 -192z m-65 4 l75 -77 -75 69 c-41 38 -79 73
-84 77 -6 5 -6 8 0 8 5 0 43 -35 84 -77z m165 -163 c10 -11 16 -20 13 -20 -3
0 -13 9 -23 20 -10 11 -16 20 -13 20 3 0 13 -9 23 -20z m44 -64 c-3 -3 -11 5
-18 17 -13 21 -12 21 5 5 10 -10 16 -20 13 -22z m66 -68 c16 -24 22 -38 14
-31 -15 12 -53 73 -46 73 2 0 17 -19 32 -42z m909 -70 c-9 -14 -23 2 -17 18 4
12 8 13 14 3 4 -7 5 -17 3 -21z m-684 -218 c47 -47 105 -110 128 -140 22 -30
56 -73 74 -95 l32 -40 -43 40 c-24 22 -69 74 -101 115 -33 41 -96 111 -141
155 -45 44 -102 107 -126 140 -44 60 -44 60 24 -15 37 -41 106 -113 153 -160z
m715 199 c0 -8 6 -20 13 -27 6 -7 12 -17 12 -22 0 -5 -6 -12 -12 -16 -7 -4
-10 -4 -6 0 4 5 -6 21 -22 36 -21 21 -25 31 -17 39 14 14 32 9 32 -10z m68
-89 c9 -11 13 -20 9 -20 -4 0 -1 -4 6 -9 11 -7 11 -9 -1 -14 -9 -3 -21 1 -27
9 -10 11 -10 14 0 14 14 0 4 14 -11 16 -19 3 -20 4 -14 14 9 15 19 12 38 -10z
m60 -77 c-4 -11 -3 -14 5 -9 7 4 12 2 12 -4 0 -6 5 -8 10 -5 6 4 10 -5 10 -21
0 -22 2 -25 15 -14 9 8 15 9 15 2 0 -6 -4 -14 -10 -17 -6 -4 -4 -17 5 -36 9
-16 13 -34 10 -39 -3 -5 1 -7 9 -4 11 4 14 0 11 -15 -2 -11 3 -28 11 -36 9 -8
14 -15 12 -16 -32 -7 -39 -6 -34 7 3 8 1 14 -4 14 -5 0 -17 11 -26 26 -13 19
-14 28 -5 37 20 20 12 31 -10 11 l-22 -19 5 37 c3 29 1 35 -9 26 -7 -6 -14 -7
-15 -2 0 5 -2 14 -3 19 0 6 -5 21 -9 34 -6 16 -4 26 5 32 19 12 19 11 12 -8z
m163 -256 c17 -17 33 -40 37 -50 10 -27 -27 -4 -58 37 -42 56 -27 66 21 13z
m22 -92 c-3 -3 -9 2 -12 12 -6 14 -5 15 5 6 7 -7 10 -15 7 -18z m47 16 c3 -5
2 -12 -3 -15 -5 -3 -9 1 -9 9 0 17 3 19 12 6z m83 -106 c1 -8 3 -22 4 -30 1
-8 5 -12 10 -9 4 3 8 0 8 -6 0 -7 7 -10 15 -7 8 4 17 1 21 -5 4 -6 3 -8 -3 -5
-6 4 -13 0 -17 -8 -3 -8 -1 -15 5 -15 6 0 8 -7 5 -16 -4 -12 -2 -15 9 -10 21
8 19 -17 -5 -44 -11 -13 -20 -20 -20 -15 0 4 -7 2 -15 -5 -17 -14 -20 -30 -6
-30 5 0 23 12 40 26 30 25 31 25 31 4 0 -12 -4 -19 -9 -16 -4 3 -6 -7 -3 -22
3 -15 7 -21 9 -14 3 6 9 12 14 12 6 0 7 -6 2 -12 -4 -7 -8 -18 -9 -25 -2 -14
-34 -61 -34 -50 0 5 5 17 11 28 11 21 4 59 -11 59 -5 0 -6 -7 -3 -17 4 -11 3
-14 -5 -9 -7 4 -12 2 -12 -5 0 -8 -4 -8 -15 1 -15 13 -21 3 -15 -25 1 -6 -3
-6 -10 1 -7 8 -8 19 0 38 8 21 7 28 -5 32 -11 4 -12 11 -5 24 5 9 6 21 2 25
-4 4 5 5 21 3 32 -6 37 7 5 16 -19 5 -21 8 -8 16 13 8 8 14 -11 12 -3 -1 -6
11 -5 26 1 15 -6 33 -14 40 -13 10 -13 11 3 6 20 -7 21 -1 7 27 -8 14 -7 19 3
19 8 0 14 -7 15 -15z m33 -12 c13 -16 12 -17 -3 -4 -17 13 -22 21 -14 21 2 0
10 -8 17 -17z m-971 -49 c0 -8 -19 -13 -24 -6 -3 5 1 9 9 9 8 0 15 -2 15 -3z
m160 -163 c-1 -10 -50 53 -50 63 0 6 11 -5 25 -24 14 -19 25 -36 25 -39z m932
4 c0 -8 1 -20 2 -27 1 -6 -7 -12 -16 -14 -10 -1 -18 2 -18 7 0 5 5 9 11 9 6 0
8 9 4 20 -4 11 -2 20 4 20 6 0 12 -7 13 -15z m-19 -84 c-4 -15 -8 -19 -13 -10
-5 6 -3 18 3 24 16 17 17 14 10 -14z m-43 -25 c-6 -17 -5 -26 3 -30 7 -3 3 -4
-8 -3 -15 1 -20 -4 -19 -20 0 -12 -3 -20 -8 -17 -4 3 -8 -1 -8 -8 0 -7 -9 -3
-22 10 -21 21 -21 23 -5 39 14 14 17 15 17 3 0 -9 11 -1 26 18 30 38 37 40 24
8z m-94 -15 c-4 -5 -1 -11 5 -13 7 -2 0 -12 -15 -21 -14 -10 -26 -13 -26 -7 0
5 4 10 9 10 5 0 11 9 14 20 3 11 8 20 12 20 3 0 4 -4 1 -9z m-561 -21 c3 -5 2
-10 -4 -10 -5 0 -13 5 -16 10 -3 6 -2 10 4 10 5 0 13 -4 16 -10z m-142 -16 c7
-8 -13 -54 -25 -54 -4 0 -7 -5 -5 -12 1 -6 -7 -16 -19 -22 -12 -7 -20 -20 -19
-33 1 -12 -2 -20 -6 -18 -4 3 -9 -4 -12 -15 -3 -11 -13 -18 -25 -17 -11 0 -18
5 -16 9 3 4 7 17 9 28 5 25 55 86 67 83 4 -2 7 0 6 5 -3 10 21 52 31 52 4 0
10 -3 14 -6z m-128 -217 c6 -5 3 -6 -8 -3 -11 3 -16 2 -12 -4 6 -10 -24 -70
-36 -70 -4 0 -10 -12 -14 -27 -5 -21 -8 -24 -15 -13 -11 19 -22 8 -14 -14 3
-9 11 -13 18 -9 6 4 5 -1 -3 -11 -13 -15 -13 -19 0 -27 13 -10 -12 -5 -47 8
-7 2 -15 0 -19 -6 -3 -6 1 -11 10 -11 9 0 14 -4 10 -10 -3 -5 -12 -7 -20 -3
-11 4 -13 1 -9 -11 9 -23 -3 -20 -16 4 -9 17 -4 31 34 88 49 73 92 126 81 102
-4 -8 3 -2 15 13 13 15 25 24 29 20 3 -4 11 -12 16 -16z m705 -26 c0 -6 -4
-13 -10 -16 -5 -3 -10 1 -10 9 0 9 5 16 10 16 6 0 10 -4 10 -9z m-1076 -509
c2 -4 0 -14 -6 -22 -8 -12 -9 -12 -5 2 3 9 1 19 -6 22 -9 3 -9 5 0 5 6 1 14
-3 17 -7z m-27 -27 c0 -8 -4 -12 -8 -9 -4 2 -10 0 -14 -6 -3 -5 -1 -10 5 -10
6 0 1 -10 -10 -22 -11 -13 -23 -33 -26 -45 -4 -13 -13 -23 -22 -23 -8 0 -13
-3 -9 -6 8 -8 -25 -44 -40 -44 -6 0 -15 -4 -18 -10 -4 -6 1 -7 12 -4 10 3 6
-2 -9 -12 -15 -10 -33 -32 -40 -48 -6 -16 -14 -24 -16 -17 -4 12 63 121 74
121 3 0 2 -5 -2 -12 -5 -7 -3 -8 5 -4 7 5 10 14 7 22 -3 9 13 33 40 59 25 25
42 45 38 45 -4 0 1 9 11 20 22 24 22 24 22 5z m697 -274 c3 -5 -2 -15 -12 -22
-15 -12 -16 -12 -5 2 7 9 10 19 6 22 -3 4 -4 7 0 7 3 0 8 -4 11 -9z m-79 -99
c-3 -3 -11 0 -18 7 -9 10 -8 11 6 5 10 -3 15 -9 12 -12z m-1065 -261 c-5 -11
-15 -23 -22 -27 -7 -5 -8 -2 -3 7 21 37 44 55 25 20z m-556 -723 c-4 -7 -18
-27 -30 -45 -28 -38 -31 -51 -6 -32 14 11 14 10 -2 -8 -10 -13 -23 -20 -29
-16 -6 3 -7 1 -3 -5 9 -15 -113 -197 -209 -311 -41 -49 -79 -91 -83 -93 -18
-8 -113 -131 -156 -203 -26 -44 -62 -94 -78 -112 -17 -17 -49 -65 -72 -107
-22 -41 -58 -93 -79 -115 -21 -23 -35 -41 -31 -41 4 0 -1 -9 -11 -20 -10 -11
-21 -17 -26 -14 -5 2 -14 -4 -21 -16 -7 -11 -17 -20 -21 -20 -5 0 0 15 12 33
11 17 26 31 32 29 6 -1 8 2 4 8 -9 14 207 338 312 469 49 60 110 137 138 172
27 35 52 66 55 69 3 3 28 33 55 68 46 59 99 125 128 162 7 9 37 48 66 88 51
66 72 90 55 60z m866 -192 c0 -2 -8 -10 -17 -17 -16 -13 -17 -12 -4 4 13 16
21 21 21 13z m-1474 -684 c-17 -16 -18 -16 -5 5 7 12 15 20 18 17 3 -2 -3 -12
-13 -22z m-228 -312 c-18 -27 -36 -50 -40 -50 -9 0 55 99 65 99 4 1 -8 -21
-25 -49z m-58 -90 c-12 -16 -25 -30 -30 -30 -12 0 -71 -86 -64 -93 5 -4 -8
-29 -32 -66 -2 -1 -8 0 -14 4 -7 4 -1 14 15 27 14 10 25 24 25 30 0 6 -7 5
-17 -3 -26 -22 15 46 53 87 17 19 29 36 26 39 -3 3 2 5 11 5 10 0 16 3 16 8
-3 16 2 22 17 22 13 0 12 -5 -6 -30z m-16 -65 c-9 -14 -18 -25 -21 -25 -5 0 5
18 20 38 17 22 18 13 1 -13z m-120 -133 c2 -4 -3 -16 -11 -27 -15 -19 -15 -19
-9 -1 5 16 4 17 -9 6 -11 -9 -12 -16 -5 -25 8 -10 8 -15 -1 -21 -7 -4 -9 -3
-5 4 3 6 2 13 -4 17 -5 3 -10 2 -10 -4 0 -12 -59 -101 -67 -101 -2 0 4 15 16
33 11 17 32 53 47 80 25 43 46 58 58 39z m-875 -1189 c-23 -37 -49 -74 -58
-81 -9 -8 -10 -10 -2 -6 18 9 13 0 -52 -89 -48 -66 -70 -83 -47 -35 11 22 10
22 -5 3 -8 -11 -13 -26 -10 -34 6 -14 -57 -101 -127 -176 -21 -22 -38 -45 -38
-51 0 -6 -22 -33 -49 -61 -26 -27 -65 -76 -86 -108 -21 -33 -50 -71 -66 -86
-29 -27 -39 -59 -18 -59 5 0 7 5 4 10 -4 6 -1 9 7 8 7 -2 13 2 13 7 -1 6 15
26 34 45 39 39 34 25 -13 -35 -43 -55 -72 -100 -152 -238 -86 -146 -98 -124
-25 46 12 27 18 54 14 59 -3 6 -1 8 4 5 6 -4 14 0 17 9 3 8 2 12 -4 9 -6 -3
-7 1 -4 9 3 9 10 13 16 10 5 -3 8 0 6 8 -4 18 90 157 206 303 53 66 140 175
193 243 54 68 122 153 151 190 29 37 69 88 88 115 20 26 38 47 40 47 2 0 -15
-30 -37 -67z m912 -76 c-10 -9 -11 -8 -5 6 3 10 9 15 12 12 3 -3 0 -11 -7 -18z
m-161 -181 c0 -2 -8 -10 -17 -17 -16 -13 -17 -12 -4 4 13 16 21 21 21 13z
m-1965 -1820 c0 -97 -4 -154 -10 -153 -5 1 -9 -4 -7 -10 2 -14 -8 -17 -23 -5
-13 9 -13 12 -30 150 -3 30 19 122 36 150 28 45 34 24 34 -132z"/>
<path d="M8766 12417 c3 -10 9 -15 12 -12 3 3 0 11 -7 18 -10 9 -11 8 -5 -6z"/>
<path d="M10706 9755 c4 -8 10 -12 15 -9 11 6 2 24 -11 24 -5 0 -7 -7 -4 -15z"/>
<path d="M11935 7801 c-3 -5 -1 -12 5 -16 5 -3 10 1 10 9 0 18 -6 21 -15 7z"/>
<path d="M11100 7480 c0 -5 5 -10 11 -10 5 0 7 5 4 10 -3 6 -8 10 -11 10 -2 0
-4 -4 -4 -10z"/>
<path d="M10965 7270 c3 -5 11 -10 16 -10 6 0 7 5 4 10 -3 6 -11 10 -16 10 -6
0 -7 -4 -4 -10z"/>
<path d="M9136 12011 c-4 -7 -5 -15 -2 -18 9 -9 19 4 14 18 -4 11 -6 11 -12 0z"/>
<path d="M9415 11530 c10 -11 20 -20 23 -20 3 0 -3 9 -13 20 -10 11 -20 20
-23 20 -3 0 3 -9 13 -20z"/>
<path d="M10540 10039 c0 -5 5 -7 10 -4 6 3 10 8 10 11 0 2 -4 4 -10 4 -5 0
-10 -5 -10 -11z"/>
<path d="M11113 9284 c3 -21 47 -97 46 -79 0 6 -11 30 -24 55 -14 25 -23 36
-22 24z"/>
<path d="M11166 9183 c-6 -14 -5 -15 5 -6 7 7 10 15 7 18 -3 3 -9 -2 -12 -12z"/>
<path d="M11980 8150 c-9 -6 -10 -10 -3 -10 6 0 15 5 18 10 8 12 4 12 -15 0z"/>
<path d="M12156 8074 c-8 -20 0 -32 14 -18 5 5 5 15 1 22 -6 11 -10 10 -15 -4z"/>
<path d="M12060 7949 c0 -5 5 -7 10 -4 6 3 10 8 10 11 0 2 -4 4 -10 4 -5 0
-10 -5 -10 -11z"/>
<path d="M12116 7653 c-6 -14 -5 -15 5 -6 7 7 10 15 7 18 -3 3 -9 -2 -12 -12z"/>
<path d="M10991 7535 c-28 -42 -48 -81 -45 -86 3 -5 0 -8 -7 -7 -6 2 -27 -19
-47 -47 -33 -47 -33 -48 -6 -22 16 15 41 36 55 47 15 11 48 51 74 89 37 54 45
73 37 86 -8 15 -17 6 -61 -60z"/>
<path d="M12075 7579 c-4 -6 -5 -12 -2 -15 2 -3 7 2 10 11 7 17 1 20 -8 4z"/>
<path d="M12050 7531 c0 -6 4 -13 10 -16 6 -3 7 1 4 9 -7 18 -14 21 -14 7z"/>
<path d="M12035 7500 c-3 -5 -1 -10 4 -10 6 0 11 5 11 10 0 6 -2 10 -4 10 -3
0 -8 -4 -11 -10z"/>
<path d="M12022 7468 c5 -15 28 -23 28 -10 0 5 -7 13 -16 16 -10 4 -14 1 -12
-6z"/>
<path d="M12032 7418 c-14 -14 -16 -28 -3 -28 5 0 11 9 14 20 6 23 5 24 -11 8z"/>
<path d="M11786 7158 l-19 -33 26 24 c15 13 24 28 21 32 -7 13 -8 12 -28 -23z"/>
<path d="M11720 7060 c0 -5 5 -10 10 -10 6 0 10 5 10 10 0 6 -4 10 -10 10 -5
0 -10 -4 -10 -10z"/>
<path d="M11735 6840 c3 -5 8 -10 11 -10 2 0 4 5 4 10 0 6 -5 10 -11 10 -5 0
-7 -4 -4 -10z"/>
<path d="M10890 5640 c-12 -16 -19 -30 -16 -30 2 0 14 14 26 30 12 17 19 30
16 30 -2 0 -14 -13 -26 -30z"/>
<path d="M10630 5578 l-22 -33 22 25 c13 14 27 24 32 22 5 -1 7 2 3 8 -9 15
-12 13 -35 -22z"/>
<path d="M10460 5375 c-7 -9 -10 -18 -7 -21 3 -3 10 4 17 15 13 25 8 27 -10 6z"/>
<path d="M10400 4993 c-35 -38 -98 -104 -140 -148 -42 -44 -114 -123 -161
-175 -47 -52 -122 -133 -168 -180 -82 -84 -162 -181 -173 -210 -5 -12 -114
-150 -263 -334 -51 -63 -107 -169 -115 -219 -8 -56 -4 -53 47 30 36 57 82 115
160 201 18 20 33 39 33 43 0 3 14 24 31 45 16 22 42 55 57 74 15 19 52 62 82
95 30 34 91 101 135 150 44 48 79 94 79 101 -1 7 5 10 14 7 9 -4 13 -2 9 4 -4
6 0 14 9 17 8 3 13 10 10 15 -7 11 21 47 99 130 33 35 67 71 75 80 17 18 117
147 140 181 8 12 37 51 64 86 26 36 46 67 44 70 -3 2 -33 -26 -68 -63z"/>
<path d="M9410 3692 c-8 -15 -16 -30 -18 -34 -2 -5 1 -8 5 -8 9 0 35 61 30 67
-2 2 -10 -9 -17 -25z"/>
<path d="M9324 3565 c-9 -14 -15 -27 -13 -30 3 -2 12 10 21 26 21 36 15 39 -8
4z"/>
<path d="M9045 3108 c-92 -98 -158 -185 -153 -200 2 -4 -6 -14 -17 -23 -14
-10 -15 -13 -4 -9 9 3 31 26 50 52 18 26 38 52 44 58 5 7 18 22 29 35 25 32
115 138 140 167 10 12 17 22 14 22 -3 0 -49 -46 -103 -102z"/>
<path d="M8909 2983 c-13 -16 -12 -17 4 -4 16 13 21 21 13 21 -2 0 -10 -8 -17
-17z"/>
<path d="M6467 1227 c-41 -46 -73 -119 -83 -196 -5 -36 -3 -51 5 -51 13 0 54
64 57 89 1 9 14 45 29 81 23 54 42 123 32 119 -1 -1 -19 -19 -40 -42z"/>
<path d="M6690 562 c0 -4 14 -13 30 -19 17 -6 30 -10 30 -7 0 2 -13 10 -30 19
-16 9 -30 12 -30 7z"/>
<path d="M6540 530 c0 -5 9 -14 20 -20 11 -6 20 -7 20 -3 0 5 -9 14 -20 21
-11 7 -20 8 -20 2z"/>
<path d="M6470 440 c0 -5 5 -10 11 -10 5 0 7 5 4 10 -3 6 -8 10 -11 10 -2 0
-4 -4 -4 -10z"/>
</g>
</svg>
