<?xml version="1.0" standalone="no"?>
<!DOCTYPE svg PUBLIC "-//W3C//DTD SVG 20010904//EN"
 "http://www.w3.org/TR/2001/REC-SVG-20010904/DTD/svg10.dtd">
<svg version="1.0" xmlns="http://www.w3.org/2000/svg"
 width="60pt" height="60pt" viewBox="0 0 110 110"
 preserveAspectRatio="xMidYMid meet">

<g transform="translate(-10.000000,110.000000) scale(0.100000,-0.100000)"
fill="#000000" stroke="none">
<path d="M406 879 l-26 -20 0 -324 0 -325 24 -15 c19 -13 55 -15 210 -13 113
2 187 7 189 13 1 6 -44 11 -115 13 l-118 3 0 329 0 330 145 0 c132 0 172 7
129 24 -9 3 -105 6 -213 6 -185 0 -200 -1 -225 -21z m132 -341 l2 -328 -59 0
c-44 0 -60 4 -65 16 -3 9 -6 152 -6 319 0 344 -4 327 80 322 l45 -2 3 -327z"/>
<path d="M941 801 l-42 -89 3 -237 3 -237 33 -29 c35 -31 66 -36 107 -17 51
23 55 47 55 297 l0 231 -42 85 c-27 54 -48 85 -59 85 -10 0 -31 -31 -58 -89z
m119 -223 l0 -158 -60 0 -60 0 0 150 c0 149 0 151 31 212 l31 62 29 -54 c27
-53 28 -60 29 -212z m0 -260 c0 -80 -15 -108 -58 -108 -47 0 -62 25 -62 107
l0 73 60 0 60 0 0 -72z"/>
<path d="M670 695 c0 -13 11 -15 65 -13 87 4 88 22 3 26 -57 2 -68 0 -68 -13z"/>
</g>
</svg>