<svg width="50" height="50" viewBox="0 0 50 50" fill="none" xmlns="http://www.w3.org/2000/svg">
<circle cx="25" cy="25" r="25" fill="#CBEBF8"/>
<path d="M16.0156 10.3125H21.2969L23.8594 20.6406C24.1302 21.7865 24.3438 22.8802 24.5 23.9219C24.6562 24.9531 24.8073 25.9271 24.9531 26.8438H25.0781C25.224 25.9271 25.375 24.9531 25.5312 23.9219C25.6875 22.8802 25.901 21.7865 26.1719 20.6406L28.8125 10.3125H33.9844V37H30.2031V28.1719C30.2031 26.8177 30.2135 25.5156 30.2344 24.2656C30.2656 23.0156 30.3021 21.8698 30.3438 20.8281C30.3854 19.776 30.4323 18.849 30.4844 18.0469C30.5365 17.2448 30.5833 16.6094 30.625 16.1406H30.3281L26.2969 33.5625H23.7344L19.6719 16.1406H19.375C19.4167 16.6094 19.4635 17.2448 19.5156 18.0469C19.5677 18.849 19.6146 19.776 19.6562 20.8281C19.6979 21.8698 19.7292 23.0156 19.75 24.2656C19.7812 25.5156 19.7969 26.8177 19.7969 28.1719V37H16.0156V10.3125Z" fill="black"/>
</svg>
