<?xml version="1.0" standalone="no"?>
<!DOCTYPE svg PUBLIC "-//W3C//DTD SVG 20010904//EN"
 "http://www.w3.org/TR/2001/REC-SVG-20010904/DTD/svg10.dtd">
<svg version="1.0" xmlns="http://www.w3.org/2000/svg"
 width="1923.000000pt" height="1425.000000pt" viewBox="0 0 1923.000000 1425.000000"
 preserveAspectRatio="xMidYMid meet">

<g transform="translate(0.000000,1425.000000) scale(0.100000,-0.100000)"
fill="#000000" stroke="none">
<path d="M7925 13069 c-333 -22 -717 -186 -919 -393 -155 -158 -223 -265 -276
-428 l-25 -78 -370 -1 c-203 0 -589 0 -856 1 -456 1 -495 0 -615 -20 -363 -61
-698 -241 -877 -470 -98 -126 -185 -325 -210 -478 -18 -116 -18 -9115 1 -9222
17 -96 62 -233 113 -339 115 -238 517 -520 835 -586 250 -52 -34 -49 4989 -53
4843 -3 4828 -3 5085 38 287 47 450 123 680 316 134 113 193 183 250 300 68
137 98 231 111 339 7 61 9 1581 7 4680 l-3 4590 -20 65 c-23 72 -37 100 -109
219 -106 176 -330 387 -506 476 -78 39 -307 102 -451 124 -130 20 -181 21
-978 21 -462 0 -847 3 -856 6 -8 4 -15 14 -15 23 0 9 -14 52 -31 96 -16 44
-32 89 -34 99 -3 10 -25 45 -50 77 -46 58 -55 76 -32 63 6 -4 -3 9 -22 29 -19
20 -37 35 -40 32 -7 -7 -41 26 -41 40 0 6 -12 17 -26 24 -15 6 -24 15 -20 18
7 8 -23 43 -37 43 -5 0 -18 11 -28 24 -63 80 -393 234 -629 293 -90 22 -136
27 -320 33 -287 9 -3535 9 -3675 -1z m3836 -433 c186 -30 332 -86 485 -184 43
-28 93 -66 111 -84 51 -53 122 -191 143 -280 25 -107 35 -350 21 -548 -11
-160 -22 -214 -47 -224 -8 -3 -14 -11 -14 -18 0 -9 3 -8 10 2 6 9 10 10 10 3
0 -19 -98 -159 -135 -192 -19 -17 -41 -28 -49 -25 -8 3 -27 -10 -45 -34 -39
-48 -86 -83 -115 -86 -12 -2 -45 -15 -74 -29 -63 -32 -190 -71 -287 -89 -56
-10 -453 -13 -1945 -13 l-1875 0 -129 23 c-255 46 -311 72 -536 244 -50 38
-97 108 -139 208 -26 61 -26 60 -35 215 -4 61 -11 124 -17 141 -13 42 6 342
27 419 23 86 75 193 118 245 109 128 316 239 556 296 70 17 186 19 1650 24
1847 8 2191 6 2311 -14z m980 -83 c13 -16 12 -17 -3 -4 -17 13 -22 21 -14 21
2 0 10 -8 17 -17z m-6052 -970 c14 -210 29 -300 72 -417 41 -113 95 -199 190
-302 156 -167 311 -265 547 -344 207 -69 318 -89 542 -98 102 -4 975 -5 1940
-2 1968 7 1785 -1 2102 84 91 25 185 54 207 65 55 29 269 191 346 263 69 64
215 276 241 350 46 130 82 413 66 519 l-8 57 435 7 c480 9 1055 1 1226 -15
209 -20 409 -84 540 -171 77 -52 241 -224 269 -283 9 -18 21 -78 26 -132 7
-68 10 -1521 8 -4629 -3 -4062 -5 -4536 -19 -4585 -16 -57 -111 -204 -175
-270 -84 -88 -432 -240 -548 -240 -29 0 -58 -6 -64 -12 -10 -10 -76 -14 -245
-16 -127 -2 -229 -1 -227 1 3 3 95 8 205 11 110 4 201 9 204 12 4 4 -9246 7
-9424 3 -49 -1 -112 -2 -140 -3 -27 -1 -72 7 -100 16 -27 9 -70 19 -96 22 -97
13 -230 63 -313 120 -173 117 -277 260 -295 404 -13 99 -24 295 -23 397 0 44
1 2008 1 4365 1 2712 5 4323 11 4388 5 57 17 117 26 135 45 88 192 241 305
318 104 71 221 108 434 139 110 17 515 26 1171 28 l550 2 13 -187z m408 -30
c-3 -10 -5 -4 -5 12 0 17 2 24 5 18 2 -7 2 -21 0 -30z m7050 -10139 c-3 -3
-12 -4 -19 -1 -8 3 -5 6 6 6 11 1 17 -2 13 -5z"/>
<path d="M12353 11176 c-34 -39 -59 -73 -56 -76 2 -3 13 5 23 17 9 12 20 20
22 18 2 -3 18 9 34 27 16 17 23 28 17 24 -23 -13 -13 12 12 32 14 11 22 22 18
25 -4 2 -36 -28 -70 -67z m27 1 c0 -2 -10 -12 -22 -23 l-23 -19 19 23 c18 21
26 27 26 19z"/>
<path d="M12179 11023 c-13 -16 -12 -17 4 -4 9 7 17 15 17 17 0 8 -8 3 -21
-13z"/>
<path d="M6895 8591 c-92 -10 -143 -35 -173 -86 -21 -36 -23 -49 -19 -130 5
-102 27 -169 60 -181 12 -5 1379 -10 3037 -11 2417 -2 3020 0 3040 10 14 7 26
23 28 36 2 15 8 21 18 17 18 -7 42 40 50 96 4 31 0 60 -16 103 -53 143 -42
129 -102 138 -68 10 -5829 17 -5923 8z"/>
<path d="M7030 6340 c-184 -9 -264 -23 -296 -55 -39 -39 -45 -205 -10 -289 12
-28 23 -37 58 -47 33 -9 760 -11 3005 -11 1630 0 2984 4 3010 8 62 9 83 20 83
44 0 11 4 20 9 20 14 0 61 116 61 152 0 23 -8 44 -25 62 -13 14 -29 44 -35 65
-8 32 -16 40 -43 46 -43 10 -5618 15 -5817 5z m5910 -205 c0 -8 -2 -15 -4 -15
-2 0 -6 7 -10 15 -3 8 -1 15 4 15 6 0 10 -7 10 -15z"/>
<path d="M6819 4094 c-31 -9 -59 -28 -84 -55 l-38 -42 6 -91 c6 -113 30 -183
66 -199 38 -17 6024 -17 6063 0 16 7 29 23 33 41 3 18 14 32 26 35 21 6 49 62
49 100 0 21 -11 57 -55 177 l-13 35 -99 6 c-54 4 -1405 7 -3003 7 -2487 1
-2912 -1 -2951 -14z"/>
<path d="M5483 12183 c26 -2 67 -2 90 0 23 2 2 3 -48 3 -49 0 -68 -1 -42 -3z"/>
<path d="M5633 12183 c9 -2 23 -2 30 0 6 3 -1 5 -18 5 -16 0 -22 -2 -12 -5z"/>
<path d="M5758 12183 c7 -3 16 -2 19 1 4 3 -2 6 -13 5 -11 0 -14 -3 -6 -6z"/>
<path d="M5823 12183 c15 -2 39 -2 55 0 15 2 2 4 -28 4 -30 0 -43 -2 -27 -4z"/>
<path d="M5933 12183 c9 -2 23 -2 30 0 6 3 -1 5 -18 5 -16 0 -22 -2 -12 -5z"/>
<path d="M5988 12183 c6 -2 18 -2 25 0 6 3 1 5 -13 5 -14 0 -19 -2 -12 -5z"/>
<path d="M6073 12183 c26 -2 68 -2 95 0 26 2 4 3 -48 3 -52 0 -74 -1 -47 -3z"/>
<path d="M13713 12183 c15 -2 37 -2 50 0 12 2 0 4 -28 4 -27 0 -38 -2 -22 -4z"/>
<path d="M13803 12183 c9 -2 23 -2 30 0 6 3 -1 5 -18 5 -16 0 -22 -2 -12 -5z"/>
</g>
</svg>
