<?xml version="1.0" standalone="no"?>
<!DOCTYPE svg PUBLIC "-//W3C//DTD SVG 20010904//EN"
 "http://www.w3.org/TR/2001/REC-SVG-20010904/DTD/svg10.dtd">
<svg version="1.0" xmlns="http://www.w3.org/2000/svg"
 width="2948.000000pt" height="2940.000000pt" viewBox="0 0 2948.000000 2940.000000"
 preserveAspectRatio="xMidYMid meet">

<g transform="translate(0.000000,2940.000000) scale(0.100000,-0.100000)"
fill="#000000" stroke="none">
<path d="M13136 23853 c-1 -1 -79 -3 -174 -3 -95 -1 -172 -5 -172 -9 0 -4 -22
-7 -49 -7 -27 1 -48 -1 -46 -4 2 -3 -38 -5 -88 -6 -124 -1 -246 -13 -271 -26
-19 -10 -20 -10 -7 5 12 16 10 16 -30 1 -24 -8 -57 -15 -74 -16 -50 -1 -277
-65 -350 -98 -37 -17 -92 -39 -121 -47 -29 -9 -51 -20 -48 -24 2 -4 -6 -5 -18
-1 -16 4 -19 2 -13 -8 6 -10 4 -12 -8 -7 -10 3 -17 2 -17 -3 0 -6 -4 -9 -9 -7
-5 1 -17 -7 -26 -18 -9 -11 -14 -14 -10 -7 3 6 1 12 -4 12 -6 0 -11 -5 -11
-11 0 -5 -3 -8 -7 -6 -5 3 -44 -3 -88 -13 -44 -10 -71 -19 -60 -19 44 -2 202
22 225 34 49 25 251 38 513 32 252 -6 294 -9 329 -28 12 -7 18 -6 18 1 0 6 5
8 10 5 6 -3 10 -11 10 -17 0 -6 -3 -8 -7 -5 -3 4 -13 2 -20 -5 -11 -9 -17 -9
-24 3 -5 8 -9 9 -9 4 0 -6 -8 -11 -17 -11 -173 -4 -535 -17 -558 -20 -16 -2
-50 -4 -75 -5 -25 -1 -51 -6 -57 -12 -7 -5 -13 -6 -13 -1 0 5 -4 4 -8 -3 -4
-7 -64 -16 -157 -23 -139 -10 -313 -34 -443 -62 -55 -12 -220 -67 -393 -131
-54 -19 -141 -45 -195 -57 -225 -48 -284 -65 -386 -113 -59 -27 -105 -54 -102
-58 3 -5 -1 -6 -9 -4 -7 3 -26 -6 -43 -20 -16 -14 -48 -33 -71 -43 -24 -9 -43
-20 -43 -24 0 -5 -5 -8 -10 -8 -6 0 -47 -17 -93 -39 -161 -76 -194 -89 -317
-131 -144 -49 -230 -91 -338 -167 -42 -29 -108 -74 -147 -100 -199 -131 -239
-160 -344 -248 -62 -52 -154 -125 -205 -162 -50 -36 -122 -93 -159 -125 -38
-32 -95 -76 -128 -99 -33 -22 -97 -75 -142 -117 -45 -43 -118 -103 -162 -134
-44 -31 -106 -84 -139 -119 -32 -35 -115 -122 -185 -194 -304 -311 -482 -502
-520 -559 -22 -31 -71 -88 -71 -80 0 3 16 24 35 47 19 22 35 45 35 51 -1 25
-284 -297 -422 -479 -54 -71 -123 -159 -153 -195 -29 -35 -68 -89 -86 -120
-55 -91 -204 -320 -262 -400 -72 -99 -91 -131 -174 -285 -73 -136 -139 -276
-193 -408 -35 -84 -53 -98 -26 -20 22 63 3 43 -24 -27 -12 -30 -27 -62 -35
-70 -18 -22 -160 -345 -213 -485 -42 -114 -47 -132 -50 -199 -2 -20 -6 -27
-16 -23 -11 4 -16 -9 -21 -56 -7 -64 -72 -359 -127 -572 -17 -66 -37 -151 -44
-190 -14 -69 -43 -149 -51 -141 -3 2 0 13 6 24 11 20 31 130 35 198 2 22 7 51
11 65 8 23 8 23 17 4 6 -15 7 -13 3 8 -4 19 -2 26 5 22 5 -3 10 -1 10 5 0 7
-6 10 -12 8 -22 -7 -48 -71 -48 -116 0 -24 -4 -41 -9 -38 -5 4 -7 -3 -4 -14 5
-18 -2 -52 -47 -245 -6 -27 -12 -62 -12 -77 0 -16 -5 -28 -10 -28 -5 0 -7 -4
-4 -9 3 -5 0 -24 -8 -42 -8 -19 -14 -63 -14 -99 -1 -36 -3 -94 -6 -130 -3 -36
-6 -120 -8 -187 -1 -68 -5 -123 -9 -123 -4 0 -5 -8 -2 -18 2 -10 -3 -25 -12
-32 -15 -12 -17 -12 -15 5 1 11 1 25 0 30 -10 38 -13 630 -5 703 6 45 32 137
60 205 13 32 -10 17 -24 -15 -8 -18 -19 -40 -26 -48 -14 -17 -46 -96 -50 -125
-2 -11 -20 -67 -40 -125 -65 -191 -87 -348 -105 -762 -5 -128 -12 -260 -15
-293 -2 -33 -7 -177 -10 -320 -3 -143 -8 -363 -11 -490 -7 -283 23 -1354 45
-1585 6 -58 15 -159 21 -225 17 -184 64 -444 84 -457 6 -4 7 -10 3 -14 -4 -4
-3 -12 2 -18 11 -14 51 -161 51 -190 0 -16 3 -17 9 -8 6 10 10 6 15 -15 4 -15
9 -37 12 -48 4 -16 3 -17 -5 -5 -7 9 -11 10 -11 3 0 -6 4 -14 9 -17 4 -3 14
-27 21 -53 7 -27 18 -57 25 -68 7 -11 19 -45 28 -75 19 -65 66 -180 67 -163 0
6 -13 45 -30 86 -16 42 -30 82 -30 90 0 8 -7 32 -16 53 -9 22 -22 59 -30 82
l-13 44 21 -19 c12 -10 52 -81 89 -158 38 -77 69 -133 69 -124 0 20 -27 81
-58 132 -13 20 -25 43 -26 50 -3 18 -26 58 -56 97 -17 21 -34 62 -43 105 -30
133 -57 284 -57 317 0 18 -9 85 -19 148 -13 74 -22 189 -26 325 -3 116 -7 260
-9 320 -3 88 -2 99 5 55 12 -80 27 -212 49 -440 7 -63 27 -191 46 -285 64
-321 78 -375 95 -375 6 0 7 -5 3 -11 -3 -6 0 -15 7 -20 10 -6 11 -9 2 -9 -7 0
-13 -4 -13 -10 0 -5 6 -10 13 -10 8 0 14 -6 15 -12 3 -31 20 -92 21 -78 1 13
2 13 11 0 6 -9 5 -17 -2 -21 -6 -4 2 -30 25 -70 19 -35 42 -89 52 -119 10 -30
24 -73 33 -95 24 -66 24 -72 3 -35 -26 44 -26 35 -2 -32 23 -62 63 -212 86
-318 21 -94 40 -152 47 -144 3 3 5 -8 4 -25 -1 -17 1 -31 5 -31 8 0 24 -40 21
-52 -1 -5 3 -8 9 -8 5 0 8 -4 5 -9 -3 -5 1 -25 9 -45 8 -20 14 -36 11 -36 -10
0 -57 80 -51 89 3 6 1 11 -5 11 -6 0 -10 6 -9 13 1 6 -3 25 -9 40 -7 16 -12
33 -12 38 0 6 -6 7 -12 3 -8 -5 -7 0 2 11 8 10 10 16 4 12 -15 -9 -37 42 -63
148 -13 50 -29 104 -37 122 -8 17 -14 38 -14 46 0 8 -13 41 -30 73 -16 32 -30
67 -30 77 0 9 -4 17 -10 17 -21 0 13 -103 48 -142 9 -12 11 -18 4 -18 -7 0
-12 3 -12 8 0 4 -14 23 -31 42 l-30 35 20 -35 c10 -19 29 -60 41 -90 12 -30
26 -64 31 -75 5 -11 15 -45 23 -75 17 -65 58 -209 86 -300 10 -36 27 -90 36
-120 27 -92 134 -301 134 -263 0 5 -21 51 -46 102 -27 54 -44 100 -41 111 3
11 2 22 -3 25 -4 3 -11 21 -15 42 -4 20 -18 59 -31 86 -14 27 -23 51 -20 55 3
3 12 -11 20 -30 8 -19 22 -41 31 -48 9 -7 14 -19 11 -26 -3 -7 0 -11 7 -8 7 2
18 -8 24 -23 7 -16 46 -91 87 -168 41 -77 86 -171 101 -210 15 -38 33 -83 41
-98 8 -16 12 -33 8 -38 -3 -5 0 -9 5 -9 6 0 10 -3 9 -7 -4 -18 18 -75 68 -179
30 -61 54 -116 54 -123 0 -7 5 -9 12 -5 6 4 8 3 4 -4 -7 -11 42 -113 72 -148
23 -27 62 -41 62 -22 1 20 24 -15 71 -106 23 -44 60 -108 83 -141 22 -33 39
-61 38 -62 -1 -2 -1 -5 -1 -8 1 -3 2 -8 3 -12 1 -5 9 -22 19 -39 9 -17 13 -35
9 -39 -4 -5 -2 -5 4 -2 7 4 17 -6 24 -23 7 -17 17 -30 22 -30 5 0 6 -4 3 -10
-3 -6 -1 -10 4 -10 6 0 11 -7 11 -15 0 -8 4 -15 9 -15 5 0 14 -14 21 -30 7
-17 17 -33 22 -36 5 -4 2 9 -7 27 -10 19 -15 32 -12 29 14 -13 77 -111 77
-120 0 -5 4 -10 9 -10 5 0 13 -10 17 -22 3 -13 19 -41 35 -62 16 -22 29 -45
29 -52 0 -7 3 -14 8 -16 4 -1 32 -41 61 -88 46 -72 148 -202 174 -221 4 -3 10
-16 12 -29 5 -26 112 -137 726 -750 392 -390 459 -454 475 -456 5 -1 15 -12
21 -25 7 -13 13 -20 13 -16 0 5 20 -12 45 -37 25 -25 49 -46 54 -46 5 0 39
-30 76 -68 37 -37 71 -66 76 -65 5 2 9 -2 9 -8 0 -5 5 -7 12 -3 7 5 9 2 5 -9
-4 -11 -2 -14 9 -10 7 3 14 -1 14 -8 0 -7 3 -10 6 -7 3 4 26 -14 52 -38 26
-24 56 -47 67 -50 11 -3 29 -18 40 -34 11 -17 26 -30 33 -30 6 0 12 -4 12 -10
0 -5 6 -10 12 -10 13 0 148 -88 159 -103 3 -4 17 -9 30 -10 13 -1 49 -18 79
-38 30 -20 57 -35 60 -35 3 1 19 -9 37 -22 17 -12 36 -22 42 -22 6 0 19 -4 29
-10 9 -5 71 -36 137 -68 66 -33 163 -84 215 -113 97 -56 127 -70 285 -135 50
-20 162 -69 250 -109 334 -152 363 -163 565 -221 52 -14 124 -35 160 -45 36
-11 108 -30 160 -44 195 -50 248 -65 281 -80 l34 -16 -50 6 c-80 8 -339 73
-470 117 -155 51 -246 75 -320 82 l-60 6 65 -33 c177 -91 232 -117 310 -145
95 -33 387 -122 501 -151 41 -11 117 -31 169 -44 52 -14 145 -35 205 -47 131
-25 209 -44 290 -70 33 -11 74 -21 90 -23 17 -2 40 -9 52 -16 37 -19 195 -71
204 -66 4 3 10 1 14 -5 3 -5 17 -10 29 -10 13 0 36 -7 52 -15 16 -8 32 -11 37
-6 5 5 23 5 41 -1 17 -5 36 -11 41 -12 6 -2 25 -7 43 -11 17 -4 32 -10 32 -14
0 -4 8 -7 18 -8 56 -3 116 -14 127 -23 7 -6 17 -10 21 -9 5 2 38 -1 74 -4 36
-4 124 -9 195 -12 72 -3 198 -14 280 -25 235 -31 398 -40 705 -40 291 1 306 1
445 16 44 4 84 7 89 6 4 -2 14 3 22 9 8 6 14 7 14 2 0 -6 18 -7 48 -3 26 4
117 11 202 15 85 4 158 9 162 12 8 4 149 15 178 14 8 -1 24 -1 35 0 11 0 45 1
75 2 30 1 58 7 62 12 5 7 14 6 28 -3 12 -7 20 -8 20 -2 0 6 11 8 25 6 18 -3
25 0 25 10 0 8 5 12 10 9 6 -4 7 -11 4 -17 -5 -8 -1 -9 10 -5 10 4 24 7 32 7
9 0 12 5 9 10 -4 6 -1 9 7 8 7 -2 12 3 10 10 -1 8 2 11 7 7 6 -3 8 -12 4 -20
-5 -15 8 -21 21 -8 4 4 19 9 34 11 15 2 28 7 30 12 2 5 10 6 19 3 11 -4 14 -2
9 5 -5 8 0 12 13 13 39 3 46 5 44 16 -1 6 6 10 15 10 24 -1 105 23 99 29 -14
14 -89 19 -265 18 -109 -1 -188 3 -180 7 18 12 5 11 -27 -1 -23 -9 -26 -8 -21
5 3 8 2 15 -3 15 -4 0 -8 7 -8 15 0 17 13 20 22 5 4 -6 12 -7 18 -3 7 5 27 8
45 8 17 0 32 2 32 5 0 3 16 5 35 4 19 -1 38 2 41 7 3 5 11 6 17 2 17 -10 51
-10 59 1 4 6 12 6 20 0 11 -8 51 -11 61 -5 1 1 32 4 69 6 38 2 94 9 125 14 32
6 78 13 103 16 25 3 56 7 70 10 14 2 76 11 139 19 155 21 278 44 386 72 50 13
135 33 190 45 55 13 129 36 165 53 36 16 67 30 70 31 11 3 168 78 200 96 19
11 56 29 83 40 26 12 47 25 47 30 0 13 -12 11 -97 -17 -90 -29 -297 -79 -363
-88 -25 -3 -54 -7 -65 -9 -11 -3 -42 -8 -70 -11 -27 -4 -66 -9 -85 -11 -99
-14 -153 -17 -186 -11 -45 9 -40 15 17 21 24 3 73 10 109 15 36 5 88 12 115
15 67 8 87 13 175 40 41 13 135 36 209 50 74 14 143 31 153 36 11 6 32 11 48
11 16 1 27 4 25 8 -3 4 11 11 31 14 19 4 43 10 52 13 15 4 15 3 2 -6 -13 -9
-13 -11 1 -11 8 0 24 6 34 14 11 8 25 11 32 9 8 -3 13 0 11 7 -2 7 22 26 52
42 30 16 64 38 76 49 11 10 56 32 100 48 43 16 111 44 149 61 201 91 278 126
363 166 51 24 97 44 102 44 6 0 10 5 10 11 0 5 4 8 9 5 5 -4 11 -3 13 1 7 17
107 61 111 50 3 -9 8 -8 20 2 9 7 15 17 12 21 -3 4 7 11 20 14 14 4 24 10 21
14 -3 5 16 19 42 33 26 13 53 30 61 37 7 7 20 11 28 8 9 -4 11 -2 7 6 -5 8 -2
9 10 5 14 -6 17 -3 12 8 -4 13 -2 14 14 5 15 -8 30 -5 64 12 43 22 58 38 36
38 -6 0 -28 -9 -50 -20 -50 -25 -60 -25 -27 0 14 11 32 20 39 20 8 0 35 18 59
41 24 22 58 50 74 61 l30 20 -32 -30 c-63 -60 -9 -44 61 18 76 67 251 217 280
239 17 13 4 -4 -29 -39 -33 -35 -51 -58 -40 -50 37 26 120 94 158 130 20 19
46 39 56 45 11 5 49 38 86 73 37 35 69 61 72 58 3 -3 0 -14 -8 -23 -13 -16
-12 -17 4 -4 10 8 15 21 12 31 -6 20 6 33 266 285 220 214 330 318 300 282
-14 -15 -20 -27 -14 -27 17 0 64 60 57 72 -4 6 -3 8 3 5 5 -3 142 126 304 288
355 354 424 430 522 575 21 30 45 66 55 80 16 24 16 25 -3 10 -35 -27 19 38
135 160 154 163 165 176 215 260 24 41 56 89 70 105 l27 30 -20 -35 c-11 -19
-33 -57 -48 -85 -47 -88 -103 -163 -145 -197 -51 -41 -152 -164 -156 -189 -4
-25 -101 -190 -150 -254 -21 -27 -38 -53 -38 -56 0 -4 -59 -70 -132 -146 -72
-76 -135 -142 -139 -148 -5 -5 78 75 184 180 106 104 192 191 192 193 0 2 -6
0 -12 -4 -7 -4 0 6 16 22 71 72 196 247 196 275 0 5 4 8 8 5 5 -3 9 1 9 9 0
19 45 84 63 90 14 5 27 24 115 165 62 100 125 217 125 234 0 8 20 44 45 81 25
36 43 70 40 75 -3 5 8 29 25 52 98 136 205 345 263 513 19 55 51 134 71 176
51 109 95 213 127 304 16 44 29 72 29 63 0 -9 -22 -81 -49 -160 -27 -79 -56
-168 -65 -198 -10 -30 -20 -62 -22 -70 -20 -59 126 247 158 330 22 58 69 168
105 245 37 77 82 185 100 240 85 249 145 433 153 470 5 22 22 90 38 151 16 60
35 159 41 220 20 191 47 334 62 334 5 0 9 7 9 16 0 8 4 13 9 10 5 -3 8 0 8 7
-1 10 26 105 63 222 10 32 41 308 44 390 1 28 -2 58 -7 68 -5 11 -3 17 5 17 9
0 9 3 2 8 -6 4 -11 77 -13 197 -1 105 -4 204 -6 220 -11 86 -11 94 -1 87 6 -3
6 1 -1 9 -6 8 -13 54 -15 102 -2 48 -5 87 -8 87 -3 0 -5 49 -5 110 0 60 -4
110 -8 110 -5 0 -5 5 -2 10 4 6 7 44 7 85 0 52 4 73 12 68 6 -4 5 1 -2 10 -20
24 -22 79 -4 72 11 -4 12 -2 4 8 -14 17 -13 79 2 70 7 -4 7 -2 -1 8 -13 16
-12 156 1 178 6 9 5 12 0 8 -6 -3 -10 9 -10 28 0 19 3 32 6 30 4 -2 7 2 7 10
0 8 -5 15 -10 15 -5 0 -2 11 7 25 15 22 15 24 0 18 -14 -5 -15 -3 -5 15 14 26
14 35 0 26 -8 -5 -8 -1 0 14 14 26 14 35 0 26 -8 -4 -8 -1 -1 12 7 14 9 169 2
169 -1 0 -2 33 -3 73 -1 39 1 72 5 72 5 0 8 -6 9 -12 0 -7 3 -22 5 -33 3 -11
7 -31 10 -45 3 -14 7 -124 9 -245 3 -161 1 -223 -8 -234 -8 -9 -8 -12 -1 -8
14 8 14 -171 0 -192 -6 -9 -5 -12 0 -8 7 4 10 -97 11 -271 1 -152 4 -284 6
-292 3 -8 5 -28 4 -45 -2 -16 1 -40 4 -51 5 -12 3 -27 -4 -34 -9 -10 -9 -11 1
-5 11 6 13 -5 10 -53 -1 -33 1 -58 5 -55 4 2 7 -10 6 -29 -1 -32 8 -295 16
-463 2 -44 9 -81 14 -83 6 -2 11 -15 11 -28 0 -25 14 -32 26 -13 3 6 1 16 -5
22 -13 13 -15 30 -2 22 5 -3 13 0 17 6 4 8 3 9 -4 5 -7 -4 -12 -1 -12 9 0 10
-5 13 -12 9 -7 -4 -8 -3 -4 5 4 6 11 9 15 6 5 -2 11 12 14 31 3 20 12 41 19
48 7 6 12 10 10 9 -2 -1 -10 4 -17 10 -10 10 -10 17 2 40 8 16 19 25 26 22 7
-4 3 1 -7 9 -11 9 -17 19 -13 22 3 4 2 15 -4 25 -7 14 -7 19 2 17 7 -2 14 6
16 17 4 17 2 18 -7 5 -10 -12 -11 -11 -5 5 5 11 10 32 13 47 2 15 7 26 11 24
4 -3 8 5 8 17 2 17 0 19 -7 7 -5 -8 -10 -10 -10 -4 0 6 3 14 7 18 4 4 9 49 10
99 4 129 7 142 23 139 13 -2 12 0 0 10 -19 16 -25 62 -7 52 8 -5 8 -3 0 7 -7
7 -13 17 -13 22 0 4 6 5 13 1 8 -5 8 -2 -2 9 -10 13 -11 20 -2 30 8 10 7 17
-2 27 -9 10 -9 11 1 6 6 -4 12 -2 12 3 0 6 -5 11 -11 11 -7 0 -5 9 4 24 9 13
13 27 10 30 -11 11 -13 40 -4 73 7 26 6 32 -7 35 -15 3 -15 5 -1 18 16 14 14
50 -3 61 -5 3 -4 12 4 20 19 20 18 59 -1 59 -10 0 -12 3 -5 8 6 4 11 29 10 55
-1 27 2 51 6 53 3 2 3 17 0 32 -8 30 -7 174 1 196 3 8 3 17 0 20 -12 11 -12
57 -1 50 7 -5 8 -2 3 6 -8 13 -13 81 -19 275 -10 295 -23 481 -35 515 -5 14
-15 54 -21 90 -16 88 -58 264 -71 298 -6 15 -13 45 -15 66 -3 22 -9 48 -15 57
-5 10 -8 22 -7 26 4 17 -14 93 -22 88 -4 -3 -8 5 -7 18 0 12 -3 31 -7 42 -4
11 4 0 18 -25 14 -25 25 -53 26 -62 0 -10 4 -18 9 -18 11 0 26 -39 22 -59 -1
-7 2 -10 8 -6 6 3 12 1 12 -4 3 -26 4 -30 12 -37 15 -16 6 28 -18 82 -14 31
-25 63 -25 71 0 7 -7 16 -16 20 -10 4 -12 8 -5 13 8 4 3 22 -14 54 -14 26 -27
55 -29 64 -2 10 -11 35 -21 57 -16 35 -26 74 -39 154 -3 13 -16 45 -29 71 -14
26 -28 63 -32 81 -4 19 -11 39 -15 44 -4 6 -16 42 -28 80 -11 39 -34 115 -50
170 -31 103 -68 240 -82 310 -52 245 -126 453 -255 710 -105 212 -135 279
-162 370 -40 132 -164 402 -194 421 -5 3 -6 11 -3 17 4 7 4 9 -1 5 -4 -4 -20
19 -36 52 -15 33 -31 60 -34 60 -3 0 4 -18 15 -40 24 -48 24 -49 3 -45 -10 1
-17 8 -15 14 1 7 -8 26 -22 44 -13 18 -31 46 -40 64 -28 56 -74 191 -68 199 4
4 3 5 -3 2 -5 -3 -24 22 -40 57 -32 67 -28 79 5 17 10 -20 19 -32 20 -27 1 29
-141 239 -241 355 -26 30 -68 91 -95 135 -26 44 -58 94 -71 111 -13 17 -20 34
-16 37 3 4 2 7 -3 7 -5 0 -18 23 -29 50 -11 28 -23 50 -27 50 -4 0 -8 6 -8 14
0 8 -13 28 -29 45 -16 17 -26 31 -23 31 3 0 -1 6 -9 13 -9 6 -35 36 -59 66
-25 30 -61 72 -82 94 -21 23 -36 43 -34 45 4 3 -26 41 -62 78 -7 8 -10 14 -5
14 4 0 3 4 -2 8 -6 4 -33 36 -60 72 -27 36 -99 115 -161 175 -61 61 -114 118
-118 128 -3 11 -11 15 -17 11 -8 -4 -9 -3 -5 5 5 8 -18 39 -62 84 -39 40 -80
84 -92 99 -34 44 -128 135 -240 232 -25 21 -81 73 -125 116 -44 42 -90 80
-103 84 -12 4 -22 12 -22 17 0 6 -4 7 -10 4 -5 -3 -10 -3 -10 2 0 10 -64 54
-104 71 -27 12 -26 9 14 -25 73 -61 149 -138 114 -115 -17 12 -37 28 -44 37
-7 8 -17 15 -22 15 -9 0 -73 49 -124 95 -12 11 -28 25 -36 30 -166 129 -216
165 -288 207 -47 28 -114 70 -149 95 -35 24 -65 43 -66 41 -2 -2 31 -28 72
-58 83 -61 131 -99 308 -241 113 -91 176 -152 254 -244 18 -22 148 -157 288
-300 273 -278 312 -319 333 -350 7 -11 -155 148 -361 353 -227 226 -410 400
-465 441 -49 37 -124 101 -166 140 -42 40 -89 82 -106 94 -90 67 -192 159
-192 174 0 5 -17 17 -37 28 -21 11 -45 27 -53 35 -8 9 -11 10 -6 2 10 -14 -4
-6 -181 104 -54 34 -138 82 -186 108 -49 26 -118 70 -154 97 -36 28 -67 48
-69 46 -4 -4 50 -54 99 -91 52 -40 38 -45 -18 -7 -26 18 -70 43 -99 58 -45 23
-166 108 -166 118 0 2 19 -6 42 -17 85 -41 130 -58 139 -52 6 3 15 2 22 -4 7
-5 39 -19 72 -32 33 -13 73 -32 89 -41 16 -10 33 -16 38 -13 5 3 24 -8 44 -25
35 -32 67 -44 45 -18 -6 8 -8 17 -4 21 4 4 -1 4 -11 0 -14 -5 -17 -4 -12 5 4
6 4 10 -1 9 -4 -1 -33 14 -63 35 -30 20 -51 37 -46 37 4 0 -15 16 -44 35 -29
19 -56 35 -60 35 -4 0 -13 7 -20 14 -6 8 -28 20 -48 27 -20 7 -68 27 -107 45
-66 31 -216 84 -237 84 -5 0 -62 20 -126 45 -192 75 -211 81 -377 141 -160 57
-248 95 -259 113 -4 5 -20 13 -37 16 -17 4 -59 25 -94 46 -126 80 -377 167
-572 200 -187 31 -417 87 -558 136 -137 47 -316 96 -543 148 -13 3 -20 10 -17
14 3 5 -4 7 -15 4 -11 -3 -26 0 -33 6 -8 6 -16 10 -18 8 -2 -1 2 3 9 10 9 7
22 9 36 4 11 -5 27 -6 35 -3 8 2 11 0 7 -6 -3 -5 0 -9 7 -9 29 3 138 -16 143
-24 3 -5 10 -7 15 -3 5 3 16 0 24 -6 8 -7 15 -10 15 -6 0 3 11 1 25 -4 14 -5
36 -12 48 -14 12 -3 74 -21 137 -41 122 -38 249 -67 262 -59 4 3 8 0 8 -6 0
-6 3 -9 8 -6 4 2 55 -9 112 -25 58 -16 123 -32 145 -35 l40 -6 -30 21 c-16 11
-34 21 -40 21 -5 0 -22 6 -37 14 -15 8 -42 17 -60 21 -18 4 -78 23 -133 42
-55 19 -106 35 -112 35 -7 1 -13 4 -13 8 0 4 -6 7 -12 8 -28 1 -130 32 -173
52 -52 23 -241 74 -315 85 -14 2 -27 4 -30 5 -3 2 -8 2 -11 2 -10 -1 -181 27
-229 38 -55 12 -127 22 -157 22 -13 0 -20 4 -17 9 3 5 -2 9 -11 9 -10 0 -13
-5 -9 -12 5 -8 0 -7 -11 2 -16 13 -123 15 -827 15 -445 0 -811 -1 -812 -2z
m1529 -13 c39 -1 60 -5 47 -7 -12 -2 -20 -8 -17 -13 3 -4 15 -6 27 -2 13 3 19
1 15 -5 -4 -6 1 -17 11 -24 15 -13 16 -12 3 4 -8 10 -9 17 -3 17 6 0 14 -5 17
-10 4 -7 13 -6 27 1 15 8 19 8 14 0 -5 -7 4 -11 23 -11 17 0 31 -3 31 -8 0 -6
-73 -9 -137 -4 -12 1 -32 12 -43 25 -18 18 -20 19 -14 3 5 -14 3 -17 -7 -14
-8 3 -13 9 -12 14 1 5 -9 9 -22 9 -13 0 -21 -3 -18 -7 7 -12 -9 -9 -37 7 -19
10 -28 11 -39 2 -12 -10 -13 -9 -6 2 6 11 3 13 -18 7 -20 -5 -25 -3 -21 7 3
10 21 13 57 12 29 -1 84 -3 122 -5z m225 -70 c0 -5 -4 -10 -10 -10 -5 0 -10 5
-10 10 0 6 5 10 10 10 6 0 10 -4 10 -10z m-2437 -100 c-16 -16 -73 -16 -73 -1
0 11 47 19 68 12 7 -2 10 -7 5 -11z m2423 -35 c44 -3 116 -12 160 -21 43 -8
90 -17 104 -18 14 -2 48 -9 75 -15 28 -7 70 -14 95 -16 79 -8 131 -14 192 -25
33 -6 73 -13 89 -15 56 -7 88 -16 98 -28 7 -10 1 -13 -25 -13 -18 0 -34 3 -34
6 0 3 -16 5 -35 5 -19 -1 -60 2 -92 6 -32 5 -83 11 -113 14 -74 7 -107 13
-210 35 -118 26 -239 50 -275 55 -117 17 -186 24 -240 25 -41 1 -54 4 -40 10
20 7 87 6 251 -5z m-2287 -68 c-2 -2 -11 -8 -20 -15 -12 -9 -16 -9 -16 1 0 7
9 14 20 14 11 1 18 1 16 0z m81 -1 c0 -3 -4 -8 -10 -11 -5 -3 -10 -1 -10 4 0
6 5 11 10 11 6 0 10 -2 10 -4z m3637 -272 c-3 -3 -12 -4 -19 -1 -8 3 -5 6 6 6
11 1 17 -2 13 -5z m149 -30 c80 -23 169 -62 160 -71 -1 -2 -20 4 -42 13 -37
16 -166 57 -229 74 -30 8 -30 8 -4 9 15 1 67 -11 115 -25z m-5748 -115 l37 -1
-35 -8 c-19 -4 -64 -13 -100 -20 -36 -6 -69 -15 -75 -19 -5 -5 -55 -25 -110
-46 -55 -21 -119 -46 -142 -56 -23 -11 -52 -20 -65 -22 -13 -1 -25 -5 -28 -8
-3 -4 -72 -28 -155 -53 -82 -26 -189 -59 -237 -74 -47 -15 -85 -24 -82 -21 6
11 242 114 349 153 55 20 123 48 150 61 56 28 70 31 59 13 -4 -7 1 -6 12 3 20
16 41 23 189 63 140 38 169 44 183 40 8 -2 30 -4 50 -5z m-438 -19 c-8 -5 -19
-10 -25 -10 -5 0 -3 5 5 10 8 5 20 10 25 10 6 0 3 -5 -5 -10z m-710 -354 c0
-2 -7 -7 -16 -10 -8 -3 -12 -2 -9 4 6 10 25 14 25 6z m-150 -77 c-78 -43 -85
-45 -74 -26 4 7 3 9 -2 4 -5 -5 -9 -14 -9 -19 0 -6 -6 -13 -14 -16 -9 -3 -11
0 -6 9 5 8 4 11 -1 6 -5 -5 -9 -12 -9 -17 0 -11 -74 -66 -238 -177 -181 -122
-222 -155 -332 -262 -49 -48 -129 -114 -176 -145 -54 -36 -131 -102 -203 -176
-65 -66 -136 -134 -159 -152 -22 -18 -68 -57 -102 -87 -33 -30 39 44 160 165
346 344 544 522 692 623 35 24 65 47 68 51 3 5 28 21 55 36 28 15 50 34 50 43
0 14 2 14 10 1 9 -14 15 -6 10 15 -1 6 2 7 5 3 10 -10 47 11 40 22 -4 6 1 7
11 3 12 -4 15 -3 10 5 -4 8 -2 10 7 6 8 -3 26 8 41 27 30 35 153 103 161 88 4
-5 18 -3 33 5 15 8 31 12 35 9 5 -3 -23 -23 -63 -44z m64 -111 c-3 -4 -74 -41
-158 -83 -84 -41 -159 -82 -166 -90 -12 -15 -125 -85 -136 -85 -10 0 20 25 66
56 25 17 73 49 107 72 33 23 99 60 145 82 45 23 89 45 97 49 18 9 51 9 45 -1z
m4186 -194 c-28 -7 -218 -9 -214 -2 2 3 55 6 116 6 62 0 106 -2 98 -4z m57 0
c-3 -3 -12 -4 -19 -1 -8 3 -5 6 6 6 11 1 17 -2 13 -5z m-797 -89 c8 -5 11 -4
7 2 -4 6 288 10 801 11 662 2 830 0 937 -13 233 -27 524 -46 542 -37 21 11
179 -15 294 -47 41 -11 146 -35 233 -51 244 -48 522 -153 648 -246 33 -24 68
-44 78 -44 9 0 31 -7 49 -16 17 -9 38 -13 46 -10 8 3 15 1 15 -4 0 -6 6 -10
14 -10 8 0 17 -6 19 -12 4 -10 7 -10 15 0 7 11 12 11 25 -2 8 -9 22 -13 30
-10 27 10 348 -147 452 -222 17 -11 55 -34 85 -50 30 -16 97 -59 148 -96 52
-38 99 -68 104 -68 4 0 25 -10 46 -23 20 -13 57 -31 82 -41 68 -27 241 -153
350 -254 13 -12 27 -19 32 -16 4 3 8 1 8 -4 0 -4 30 -28 68 -52 37 -25 69 -47
72 -50 3 -3 23 -17 45 -32 22 -14 60 -46 86 -70 93 -88 143 -127 154 -118 7 6
16 2 25 -9 7 -11 20 -17 28 -13 10 3 13 1 8 -6 -3 -6 3 -13 14 -17 11 -4 18
-11 15 -16 -4 -5 0 -9 7 -9 7 0 57 -43 111 -94 53 -51 97 -92 97 -90 0 3 32
-30 129 -133 17 -18 31 -32 31 -30 0 2 38 -34 84 -80 94 -92 130 -114 50 -30
-163 170 -199 210 -196 219 1 5 -1 7 -6 4 -4 -3 -48 36 -98 85 -49 50 -81 87
-72 84 9 -4 24 -18 33 -31 16 -24 42 -34 30 -11 -4 6 15 -10 42 -38 28 -27 48
-54 45 -59 -3 -5 0 -6 5 -3 6 4 99 -82 207 -190 108 -109 196 -191 196 -184 0
20 -487 504 -499 496 -6 -3 -9 0 -6 7 3 7 -8 22 -24 32 -29 20 -97 97 -70 80
8 -4 19 -9 26 -9 17 0 172 -143 293 -270 58 -60 164 -169 235 -241 136 -137
315 -322 400 -413 69 -75 10 -33 -70 49 -33 34 -69 66 -80 72 -21 11 -6 -8 90
-110 28 -29 49 -58 47 -63 -1 -6 3 -7 9 -4 6 4 33 -14 61 -41 44 -43 190 -204
221 -244 6 -8 61 -67 122 -130 234 -243 166 -192 -105 81 -375 376 -656 650
-639 622 8 -13 17 -23 22 -23 4 0 5 -5 1 -12 -4 -6 -3 -8 4 -4 6 3 13 -6 17
-24 5 -25 10 -29 20 -20 11 9 13 8 10 -8 -2 -11 5 -28 16 -38 10 -9 19 -14 19
-9 0 4 7 2 15 -5 8 -7 12 -17 9 -22 -3 -5 2 -18 12 -29 20 -22 42 -26 24 -4
-7 8 -9 15 -5 15 13 0 54 -53 49 -62 -3 -5 41 -56 98 -114 57 -58 105 -108
108 -112 6 -10 -153 142 -215 203 -27 28 -88 87 -135 130 l-85 80 75 -80 c41
-44 127 -133 190 -198 63 -65 117 -123 118 -128 2 -5 31 -36 63 -68 32 -31 59
-62 59 -69 0 -6 5 -14 12 -18 7 -5 8 -3 3 7 -8 12 -6 12 8 0 9 -7 14 -18 10
-24 -3 -5 -1 -7 5 -3 10 6 26 -10 27 -26 0 -3 4 -10 9 -15 6 -5 6 -2 1 7 -8
13 -7 13 8 1 10 -7 16 -20 15 -29 -2 -8 3 -17 11 -20 10 -3 11 0 5 9 -7 12 -5
12 9 0 18 -15 23 -26 7 -16 -19 12 -10 -15 15 -42 83 -91 94 -106 89 -114 -3
-5 1 -6 9 -4 12 5 73 -66 76 -88 0 -4 13 -18 28 -31 15 -13 46 -50 68 -82 22
-33 42 -61 46 -64 34 -30 159 -261 206 -385 20 -49 45 -110 58 -135 48 -94
153 -377 153 -410 0 -8 3 -24 7 -35 4 -11 -5 -4 -20 15 -15 19 -26 31 -23 25
12 -31 44 -90 51 -93 4 -2 5 -8 2 -12 -3 -5 1 -24 9 -42 8 -18 22 -67 31 -108
23 -111 95 -337 135 -425 5 -11 16 -38 25 -59 8 -22 18 -36 22 -33 3 4 0 13
-7 22 -7 8 -10 15 -6 15 3 0 1 12 -4 26 -7 16 -7 23 0 19 13 -8 13 -2 -1 29
-7 14 -16 23 -20 20 -5 -3 -6 2 -3 11 4 8 2 21 -3 28 -9 11 -73 164 -73 174 0
2 4 1 10 -2 6 -3 7 1 3 10 -5 14 -8 14 -15 3 -7 -9 -8 -6 -4 11 3 14 -3 44
-15 70 -28 65 -32 98 -13 124 16 21 15 15 -2 -28 -4 -10 0 -15 15 -15 15 0 28
-14 47 -51 14 -28 23 -57 20 -65 -3 -7 1 -19 8 -26 14 -15 15 -15 22 -45 4
-13 11 -23 16 -23 5 0 6 -5 3 -10 -4 -6 -1 -17 5 -25 7 -8 9 -15 4 -15 -5 0
-4 -4 2 -8 7 -4 15 -23 18 -42 3 -19 10 -51 15 -71 5 -21 5 -43 0 -50 -10 -16
-3 -103 11 -139 11 -29 44 -177 60 -265 10 -57 24 -114 85 -340 14 -55 37
-156 50 -225 13 -69 28 -141 33 -160 18 -65 2 149 -18 240 -11 47 -22 110 -26
140 -3 30 -17 100 -30 155 -13 55 -24 114 -24 130 -1 17 -10 66 -21 110 -11
44 -24 103 -29 130 -4 28 -13 70 -18 95 -6 25 -13 78 -16 119 -11 152 37 22
89 -244 32 -161 91 -379 125 -460 9 -21 30 -105 36 -140 28 -183 34 -229 34
-277 0 -40 4 -58 13 -58 9 0 9 -2 0 -8 -14 -9 -13 -49 11 -297 23 -231 26
-467 16 -1150 -9 -593 -22 -884 -50 -1065 -5 -36 -12 -87 -15 -115 -9 -72 -15
-68 -16 11 l-1 69 -10 -45 c-5 -25 -13 -61 -18 -80 -5 -19 -14 -57 -21 -85 -6
-27 -24 -88 -40 -135 -15 -47 -39 -132 -54 -189 -14 -58 -31 -113 -36 -123 -6
-10 -16 -74 -24 -141 -16 -130 -56 -280 -122 -457 -22 -58 -52 -140 -67 -182
-16 -43 -32 -78 -37 -78 -17 0 -7 40 76 300 20 63 43 143 51 178 20 87 64 225
75 237 5 5 9 18 8 30 0 11 -3 14 -6 7 -2 -6 -9 -10 -13 -7 -5 3 -21 -6 -36
-20 -27 -25 -21 -37 6 -12 8 6 6 1 -5 -13 -11 -13 -27 -31 -35 -38 -8 -7 -9
-11 -2 -7 15 8 16 -17 0 -33 -7 -7 -8 -12 -3 -12 5 0 1 -6 -8 -12 -9 -7 -23
-42 -31 -78 -8 -36 -22 -92 -31 -125 -9 -33 -31 -109 -47 -170 -84 -301 -235
-690 -337 -868 -28 -48 -51 -90 -51 -92 0 -2 -14 -33 -30 -69 -17 -36 -31 -69
-31 -73 0 -5 -6 -15 -13 -23 -7 -8 -20 -28 -30 -45 -12 -21 -3 -14 28 20 25
28 56 70 68 95 12 25 36 68 53 95 48 77 117 219 165 337 24 59 45 106 47 104
6 -5 -55 -172 -100 -275 -74 -165 -160 -298 -373 -572 -131 -169 -335 -456
-408 -574 -147 -238 -177 -278 -321 -420 -156 -154 -381 -395 -369 -395 4 0
-3 -12 -17 -27 -22 -24 -20 -24 18 5 22 18 97 92 165 164 241 258 273 286 90
78 -139 -158 -407 -420 -527 -515 -55 -44 -160 -139 -233 -212 -83 -83 -140
-133 -153 -133 -11 0 -17 -5 -14 -10 4 -6 1 -9 -7 -8 -7 2 -12 -3 -11 -9 2 -7
-2 -13 -8 -13 -7 0 -53 -40 -103 -88 -127 -123 -194 -172 -321 -235 -335 -165
-400 -196 -405 -191 -9 10 45 43 221 130 96 48 186 96 201 106 14 10 31 18 36
18 12 0 132 82 234 161 37 28 208 195 380 371 376 384 326 332 433 453 49 55
92 102 95 105 3 3 35 39 70 80 36 41 71 81 78 88 7 8 24 29 38 47 14 19 42 46
62 61 l37 28 -26 -34 c-42 -58 -44 -65 -11 -41 18 12 32 26 32 30 0 3 20 27
44 51 95 97 373 490 311 440 -18 -15 -18 -14 -1 13 17 24 36 41 21 17 -3 -5
-4 -10 -2 -10 11 0 57 82 51 92 -4 6 -3 8 3 5 6 -4 17 1 24 11 13 15 12 16 -3
3 -11 -8 -18 -9 -18 -3 0 6 4 13 10 17 5 3 19 20 30 38 30 45 -40 -35 -88
-102 -200 -276 -269 -358 -502 -597 -135 -138 -315 -323 -400 -411 -191 -196
-419 -409 -438 -407 -7 1 -11 0 -8 -3 7 -8 -55 -57 -103 -82 -25 -12 -65 -41
-90 -63 -48 -42 -146 -102 -314 -194 -83 -46 -271 -163 -359 -225 -15 -10 -29
-19 -32 -19 -3 0 -44 -23 -92 -50 -48 -28 -91 -50 -95 -50 -5 0 -9 -4 -9 -10
0 -5 -6 -10 -13 -10 -7 0 -25 -12 -40 -26 -58 -54 -330 -188 -473 -234 -101
-32 -133 -47 -79 -35 58 12 -114 -69 -225 -105 -36 -12 -72 -28 -80 -35 -8 -7
-26 -16 -40 -19 -22 -6 -51 -18 -171 -70 -20 -9 -64 -23 -98 -32 -34 -8 -78
-22 -98 -30 -19 -8 -38 -13 -41 -10 -3 3 -12 0 -20 -7 -9 -6 -13 -7 -9 -1 3 6
0 11 -8 11 -8 0 -13 -5 -12 -11 1 -6 -10 -11 -25 -10 -15 0 -25 -4 -22 -8 3
-4 1 -8 -5 -8 -20 0 -20 18 2 37 12 11 61 40 110 64 96 48 104 65 12 24 -32
-14 -60 -23 -63 -20 -3 3 -12 -1 -20 -7 -14 -12 -62 -28 -259 -85 -56 -16 -90
-31 -86 -37 3 -6 3 -8 -1 -4 -4 3 -31 -2 -60 -12 -30 -10 -75 -21 -102 -24
-41 -6 -97 -15 -126 -22 -5 -1 -22 -2 -39 -3 -17 0 -28 -5 -24 -11 3 -6 17 -8
31 -6 13 3 24 0 24 -6 0 -7 5 -6 14 1 10 8 16 9 21 2 4 -7 94 -9 263 -7 290 4
305 6 636 90 121 30 222 53 225 51 2 -3 -1 -5 -8 -5 -7 0 -36 -11 -64 -24 -75
-34 -369 -114 -458 -126 -42 -5 -105 -13 -140 -19 -35 -5 -81 -9 -102 -10 -22
0 -64 -5 -95 -10 -32 -5 -93 -13 -137 -16 -43 -4 -83 -9 -88 -12 -5 -3 -48 -7
-95 -9 -115 -5 -132 -8 -132 -17 0 -4 -9 -3 -21 3 -11 7 -28 9 -37 5 -21 -8
-1116 -20 -1702 -19 -256 1 -564 6 -685 13 -121 7 -320 14 -443 16 -239 5
-302 12 -457 50 -55 14 -140 32 -190 40 -78 13 -242 55 -380 97 -38 12 -38 12
-12 16 15 2 78 -8 140 -22 122 -29 483 -91 587 -101 36 -4 76 -9 90 -11 14 -2
81 -6 150 -8 97 -4 111 -3 64 4 -158 22 -708 182 -815 236 -39 19 -130 51
-202 69 -393 102 -732 213 -962 315 -120 53 -349 169 -334 170 8 0 163 -59
264 -100 75 -30 305 -110 318 -110 18 0 -6 19 -55 44 -29 14 -84 46 -123 71
-38 25 -77 48 -85 51 -8 3 -35 14 -60 24 -25 11 -88 36 -140 56 -52 20 -102
42 -110 49 -28 23 -120 85 -125 85 -3 0 -33 18 -66 40 -33 22 -65 37 -71 34
-7 -4 -8 -2 -4 4 4 7 1 12 -7 12 -8 0 -21 7 -28 16 -7 9 23 -2 67 -25 45 -22
87 -41 94 -41 14 0 -36 35 -93 65 -21 11 -107 68 -190 128 -84 59 -187 128
-231 154 -43 25 -120 80 -170 122 -50 42 -111 92 -136 110 -48 37 -152 137
-578 557 -144 142 -268 261 -275 263 -21 7 72 -89 278 -289 110 -107 308 -301
440 -432 231 -228 304 -292 371 -323 18 -8 45 -25 60 -38 16 -12 41 -31 57
-40 15 -10 27 -23 27 -30 0 -6 -7 -3 -15 7 -8 11 -15 16 -15 12 0 -5 -7 -2
-16 5 -9 7 -25 14 -35 16 -56 9 -133 62 -287 199 -26 23 -94 66 -87 54 3 -5 3
-10 0 -10 -12 0 -220 213 -218 221 2 5 -3 8 -10 6 -6 -1 -11 4 -9 11 1 8 -2
11 -7 8 -11 -7 -147 132 -143 146 1 5 -1 7 -6 4 -13 -8 -69 57 -64 73 3 8 -1
12 -9 9 -18 -6 -38 14 -31 31 4 10 1 13 -11 8 -10 -4 -14 -2 -11 6 2 7 -36 54
-86 104 -50 51 -90 96 -89 100 3 20 -2 27 -12 13 -9 -13 -10 -13 -6 0 2 8 -18
39 -47 70 -73 79 -143 163 -173 207 -14 21 -31 41 -37 45 -6 5 -7 8 -1 8 6 0
2 5 -7 11 -10 5 -18 15 -18 21 0 6 -24 42 -52 80 -29 38 -53 72 -53 76 0 4
-11 19 -26 33 -15 14 -30 36 -34 48 -3 12 -11 19 -16 16 -5 -4 -9 3 -9 15 0
12 -4 19 -9 16 -5 -4 -20 16 -34 44 -13 27 -28 46 -32 42 -5 -4 -5 -2 -1 5 4
7 -1 21 -11 31 -36 37 -63 72 -56 72 4 0 -3 7 -15 16 -12 8 -19 20 -16 26 4 6
2 8 -3 5 -6 -4 -16 0 -23 9 -7 8 -19 13 -27 10 -8 -3 -11 -1 -8 4 3 5 -5 25
-18 42 -14 18 -49 78 -78 133 -29 55 -60 111 -69 125 -10 14 -20 37 -24 52 -3
15 -20 50 -36 78 -17 28 -30 54 -30 59 0 4 -9 16 -20 26 -11 10 -20 22 -20 27
0 4 -20 36 -45 69 -35 47 -120 203 -130 239 -1 3 -7 18 -13 33 -7 16 -12 33
-12 38 0 5 -4 9 -9 9 -4 0 -18 33 -31 73 -13 40 -33 82 -46 94 -25 23 -31 43
-13 43 5 0 7 5 4 10 -4 6 -11 8 -16 5 -5 -3 -6 1 -3 9 3 8 -2 28 -11 45 -8 17
-13 31 -9 31 3 0 -1 11 -10 25 -9 14 -14 30 -11 35 3 5 -1 20 -9 32 -8 13 -25
50 -37 83 -12 33 -25 65 -29 70 -17 22 -69 169 -63 178 4 6 1 7 -7 2 -10 -6
-12 -4 -7 8 3 9 -5 44 -18 78 -14 34 -22 67 -18 73 4 8 3 8 -6 0 -12 -11 -10
-18 25 -109 4 -11 8 -29 9 -40 1 -11 17 -60 34 -108 17 -48 29 -92 26 -97 -3
-4 -1 -19 5 -32 5 -13 14 -41 20 -64 5 -22 19 -51 30 -64 11 -13 20 -26 21
-29 0 -3 2 -14 4 -23 2 -10 2 -18 1 -18 -5 0 -96 128 -96 135 0 3 4 3 10 0 6
-3 7 1 3 10 -4 13 -8 14 -14 4 -8 -13 -39 49 -39 78 0 8 -7 27 -15 44 -9 16
-13 35 -9 41 5 7 3 8 -6 3 -10 -6 -12 -4 -7 8 3 10 2 17 -4 17 -6 0 -9 6 -7
12 3 7 -8 51 -24 97 -16 47 -26 92 -22 104 4 12 2 17 -4 13 -7 -4 -9 8 -7 34
2 26 0 38 -7 34 -6 -4 -8 1 -3 16 8 27 -3 93 -15 85 -4 -3 -15 16 -24 42 -19
54 -19 56 -7 49 5 -3 12 -22 15 -41 4 -19 11 -35 16 -35 10 0 61 -96 54 -103
-3 -2 1 -16 7 -31 8 -18 15 -23 20 -15 10 16 0 41 -13 33 -6 -4 -9 -1 -6 7 3
8 -13 57 -35 109 -29 68 -42 116 -47 170 l-7 75 -3 -80 -3 -80 -17 136 c-19
144 -34 209 -24 99 4 -36 8 -73 10 -83 1 -10 -1 -15 -6 -12 -10 6 -25 90 -21
117 1 9 -3 19 -9 23 -5 3 -10 12 -10 18 0 7 4 6 11 -3 9 -12 10 -12 5 3 -3 10
-6 35 -7 55 0 29 -2 33 -9 17 -7 -19 -8 -18 -13 5 -3 14 -13 61 -22 105 -10
44 -22 105 -27 135 -5 30 -11 66 -13 80 -3 14 -10 131 -15 260 -5 129 -15 332
-22 450 -14 261 -15 505 -5 915 17 714 23 841 56 1150 11 99 25 232 31 295 10
105 75 403 102 468 6 15 10 33 9 40 -1 6 3 12 9 12 5 0 10 8 10 18 0 21 35
131 85 267 33 90 78 175 98 183 4 2 5 8 2 12 -3 5 5 33 18 62 13 29 38 100 56
158 52 167 82 250 117 325 35 74 90 214 129 329 13 37 30 76 40 85 13 13 12 7
-4 -29 -11 -25 -21 -51 -21 -58 0 -7 -21 -70 -46 -140 -26 -70 -46 -138 -46
-152 0 -14 -18 -64 -39 -113 -40 -89 -51 -127 -23 -72 9 17 36 64 60 105 23
41 63 127 88 190 24 63 66 162 93 220 27 58 69 153 92 212 24 59 58 131 76
160 18 29 61 103 96 163 82 145 140 232 219 333 36 45 80 104 99 130 18 26 37
46 41 45 5 -1 14 5 22 15 12 15 11 16 -4 3 -44 -34 -8 15 104 143 67 76 130
141 140 144 10 2 15 8 12 13 -3 5 1 6 9 3 9 -3 42 22 86 65 39 39 71 67 71 62
0 -5 -43 -51 -96 -103 -89 -87 -143 -148 -130 -148 15 0 207 202 243 255 23
33 62 85 87 115 25 30 46 59 46 63 0 4 88 94 195 200 107 106 195 190 195 187
0 -2 8 7 17 20 9 14 23 29 31 34 24 14 243 210 291 259 24 26 49 43 54 40 6
-3 7 -1 4 4 -4 6 3 19 15 29 20 19 21 19 14 -3 -5 -15 10 -6 50 33 61 58 135
111 197 140 20 10 37 22 37 26 0 5 4 7 9 3 5 -3 22 6 36 19 15 14 32 24 39 23
6 -1 10 4 8 11 -1 8 2 11 8 7 5 -3 25 5 43 19 19 14 37 23 40 20 4 -4 45 30
93 75 47 45 89 80 91 77 3 -3 12 2 21 10 8 9 23 13 34 11 10 -3 16 -1 13 4 -7
10 50 41 59 32 3 -4 6 0 6 7 0 7 3 11 6 7 3 -3 20 3 37 13 24 15 35 17 51 8
18 -10 19 -9 9 4 -10 12 -4 18 37 35 28 12 48 18 45 13 -6 -10 74 19 95 35 8
6 41 24 73 39 31 16 57 33 57 39 0 6 3 7 6 4 4 -4 28 9 54 28 26 19 53 35 59
35 7 0 23 10 36 23 44 41 55 48 65 42 5 -3 13 3 19 12 5 10 11 17 13 15 4 -4
57 14 81 28 15 9 182 77 432 175 85 34 277 95 298 95 10 0 31 7 47 15 16 8 60
19 98 25 38 5 108 19 156 30 148 34 229 49 291 54 65 5 135 23 100 26 -35 3
25 17 68 16 34 -2 42 4 38 27 -1 4 8 3 19 -3 11 -6 18 -14 16 -19 -3 -4 17 0
44 8 33 11 43 18 32 22 -12 4 -7 7 15 11 18 2 30 1 27 -4 -3 -4 2 -5 10 -2 9
3 16 11 16 18 0 7 4 6 9 -3 7 -10 13 -11 31 -1 22 12 47 14 295 25 71 3 130 7
131 8 6 6 102 -1 114 -8z m-685 -55 c-27 -12 -43 -12 -25 0 8 5 22 9 30 9 10
0 8 -3 -5 -9z m-279 -7 c-2 -3 -22 -9 -43 -13 -32 -8 -35 -7 -20 4 16 12 74
20 63 9z m-99 -9 c-3 -3 -12 -4 -19 -1 -8 3 -5 6 6 6 11 1 17 -2 13 -5z
m-4072 -746 c-55 -56 -101 -104 -102 -107 -2 -2 -3 1 -3 7 0 13 184 202 197
202 4 0 -37 -46 -92 -102z m245 88 c0 -2 -8 -10 -17 -17 -16 -13 -17 -12 -4 4
13 16 21 21 21 13z m-120 -149 c0 -2 -10 -12 -22 -23 l-23 -19 19 23 c18 21
26 27 26 19z m-390 -332 c-24 -25 -46 -45 -49 -45 -3 0 15 20 39 45 24 25 46
45 49 45 3 0 -15 -20 -39 -45z m-70 -79 c0 -2 -8 -10 -17 -17 -16 -13 -17 -12
-4 4 13 16 21 21 21 13z m-40 -49 c0 -2 -15 -16 -32 -33 l-33 -29 29 33 c28
30 36 37 36 29z m12769 -83 c4 3 21 -9 37 -27 l29 -32 -32 29 c-18 17 -33 25
-33 19 0 -6 54 -62 121 -124 260 -244 479 -469 479 -492 0 -5 -46 39 -102 99
-112 120 -187 195 -323 325 -134 129 -265 264 -265 275 0 5 19 -10 41 -34 22
-23 44 -40 48 -38z m-13023 -86 c-32 -41 -103 -147 -141 -212 -16 -27 -52 -74
-82 -106 -52 -56 -66 -79 -40 -64 7 4 8 3 4 -2 -5 -5 -14 -9 -20 -9 -7 0 -30
-19 -51 -43 -24 -26 -32 -40 -20 -35 12 4 6 -9 -20 -40 -42 -51 -62 -57 -27
-9 12 17 21 34 21 38 0 5 -11 -8 -25 -28 -14 -20 -25 -40 -25 -43 0 -13 -66
-103 -117 -158 -29 -32 -53 -62 -53 -66 0 -4 -7 -8 -15 -8 -12 0 -10 7 8 26
13 14 38 46 55 71 132 183 187 255 246 320 38 41 80 92 93 112 14 21 29 35 34
32 5 -3 6 2 3 10 -3 9 -1 16 5 16 6 0 17 13 26 29 16 32 153 201 162 201 3 0
-6 -15 -21 -32z m1584 -181 c0 -1 -123 -124 -272 -272 l-273 -270 270 273
c251 253 275 277 275 269z m11865 -237 c73 -90 203 -281 170 -250 -15 14 -48
54 -73 90 -56 79 -94 127 -196 250 l-80 95 63 -60 c34 -33 86 -89 116 -125z
m-1615 -17 c0 -8 -9 0 -50 45 l-45 47 48 -45 c26 -24 47 -45 47 -47z m-12120
13 c0 -2 -8 -10 -17 -17 -16 -13 -17 -12 -4 4 13 16 21 21 21 13z m14040 -251
c30 -41 65 -106 97 -180 3 -5 -5 1 -18 15 -12 14 -25 24 -30 23 -5 -2 -5 5 -2
15 3 9 3 14 -2 10 -12 -11 -45 37 -49 72 -2 17 -7 34 -11 38 -5 4 -5 -1 -2
-10 4 -10 2 -18 -3 -18 -5 0 -9 10 -8 23 1 13 -9 39 -22 58 -38 54 6 14 50
-46z m-14467 -122 c-47 -88 -259 -457 -289 -504 -12 -20 -59 -112 -104 -203
-45 -92 -95 -180 -110 -196 -26 -26 -50 -83 -50 -116 0 -24 -101 -224 -153
-305 -74 -114 -169 -299 -163 -316 3 -7 2 -13 -2 -13 -4 0 -8 -10 -9 -22 0
-13 -24 -90 -52 -173 -28 -82 -51 -157 -51 -167 0 -9 -4 -19 -8 -22 -13 -8 26
229 54 333 27 99 58 168 125 277 72 118 159 290 190 375 84 232 199 467 283
574 55 71 118 163 277 408 50 75 92 137 95 137 2 0 -13 -30 -33 -67z m87 -43
c-6 -11 -13 -20 -16 -20 -2 0 0 9 6 20 6 11 13 20 16 20 2 0 0 -9 -6 -20z
m-72 -102 c-8 -13 -27 -44 -42 -70 -15 -27 -30 -48 -32 -48 -7 0 36 81 59 112
25 33 35 37 15 6z m12852 0 c0 -6 -6 -5 -15 2 -8 7 -15 14 -15 16 0 2 7 1 15
-2 8 -4 15 -11 15 -16z m1740 -99 c15 -28 5 -23 -15 7 -9 15 -12 23 -6 20 6
-4 16 -16 21 -27z m-1335 -339 c10 -11 16 -20 13 -20 -3 0 -13 9 -23 20 -10
11 -16 20 -13 20 3 0 13 -9 23 -20z m326 -322 c35 -40 48 -59 30 -43 -37 34
-122 133 -105 122 7 -4 40 -39 75 -79z m1514 -38 c15 -36 38 -89 51 -119 14
-29 23 -55 21 -57 -3 -3 -77 148 -82 166 0 3 -11 24 -23 47 -25 49 -28 64 -8
43 8 -8 26 -44 41 -80z m-15901 -320 c-17 -33 -27 -40 -17 -12 6 17 23 42 28
42 2 0 -3 -13 -11 -30z m14825 -397 c6 -12 11 -25 11 -30 0 -9 -60 84 -60 93
0 9 34 -36 49 -63z m49 -118 c-3 -3 -9 2 -12 12 -6 14 -5 15 5 6 7 -7 10 -15
7 -18z m-13864 -512 c-8 -27 -27 -86 -40 -133 -46 -151 -66 -165 -29 -19 28
109 64 199 81 199 2 0 -4 -21 -12 -47z m14276 -320 c8 -29 17 -53 21 -53 4 0
9 -15 12 -32 3 -18 11 -55 17 -83 15 -66 24 -131 17 -125 -3 3 -8 17 -10 30
-2 14 -6 32 -9 40 -6 16 -16 50 -52 185 -14 50 -32 110 -41 134 -8 24 -15 46
-14 50 2 14 47 -98 59 -146z m105 -468 c8 -49 17 -103 20 -120 5 -27 4 -26 -9
6 -8 20 -17 58 -20 85 -21 161 -16 177 9 29z m-16126 -273 c-6 -94 -9 -275 -7
-402 2 -149 -1 -230 -7 -230 -6 0 -5 -4 1 -8 7 -4 11 -33 11 -69 0 -49 -3 -60
-13 -52 -12 10 -12 28 1 62 4 9 3 17 -2 17 -5 0 -10 6 -11 13 0 6 -6 59 -12
116 -13 116 -8 465 8 546 6 28 16 80 23 118 6 37 13 66 15 64 1 -1 -2 -80 -7
-175z m17485 -134 c-3 -5 -1 -8 4 -8 5 0 12 -28 16 -62 7 -68 24 -151 36 -183
9 -22 10 -24 38 -162 18 -83 25 -166 26 -295 1 -28 5 -44 11 -40 5 3 4 -2 -3
-11 -8 -9 -10 -22 -6 -28 5 -8 3 -9 -5 -5 -7 5 -10 14 -7 21 2 7 -1 18 -7 24
-6 6 -16 61 -23 123 -7 62 -16 133 -20 158 -4 25 -7 55 -7 68 1 12 -3 22 -7
22 -5 0 -8 10 -8 23 1 12 0 36 -1 52 l-3 30 -9 -25 c-7 -20 -7 -17 -3 13 3 21
1 44 -5 50 -5 7 -12 50 -15 97 -3 47 -7 114 -10 150 -4 50 -3 57 4 30 4 -19 6
-38 4 -42z m-16268 -256 c4 -226 4 -563 0 -612 -3 -30 -6 -88 -6 -127 -1 -40
-6 -73 -12 -73 -5 0 -6 5 -2 12 5 8 2 9 -11 4 -14 -5 -15 -3 -8 6 12 15 23 78
14 78 -3 0 -5 60 -5 132 1 73 3 248 4 388 2 215 8 280 24 280 0 0 2 -39 2 -88z
m-1216 -427 c0 -8 -4 -15 -10 -15 -5 0 -7 7 -4 15 4 8 8 15 10 15 2 0 4 -7 4
-15z m-3 -77 c-3 -8 -6 -5 -6 6 -1 11 2 17 5 13 3 -3 4 -12 1 -19z m10 -145
c-2 -21 -4 -6 -4 32 0 39 2 55 4 38 2 -18 2 -50 0 -70z m17535 75 c-7 -7 -12
-8 -12 -2 0 14 12 26 19 19 2 -3 -1 -11 -7 -17z m-16435 -65 c1 -24 1 -25 -7
-8 -11 26 -12 35 -2 35 4 0 8 -12 9 -27z m1 -70 c1 -34 0 -36 -9 -14 -8 21 -6
51 4 51 1 0 4 -17 5 -37z m0 -74 c-1 -17 -4 -25 -8 -18 -7 10 -2 49 5 49 2 0
3 -14 3 -31z m101 -81 c-1 -24 2 -72 6 -108 4 -36 7 -72 6 -80 -1 -8 0 -26 1
-40 6 -79 -1 -525 -9 -527 -6 -2 -8 -59 -5 -140 3 -120 2 -134 -11 -122 -9 8
-11 16 -5 18 6 2 5 7 -3 11 -20 13 -21 43 -1 36 15 -5 15 -5 1 6 -17 15 -18
120 0 184 5 19 8 104 6 187 -8 332 -9 467 -3 472 3 4 2 21 -2 38 -9 35 -8 66
3 84 4 6 1 14 -5 16 -8 3 -6 6 5 6 14 1 17 -7 16 -41z m-99 13 c0 -6 -4 -12
-8 -15 -5 -3 -9 1 -9 9 0 8 4 15 9 15 4 0 8 -4 8 -9z m0 -41 c0 -5 -2 -10 -4
-10 -3 0 -8 5 -11 10 -3 6 -1 10 4 10 6 0 11 -4 11 -10z m-1 -83 c-3 -5 -3
-24 1 -43 4 -19 4 -37 -1 -40 -12 -7 -22 22 -16 46 3 11 2 20 -3 20 -7 0 -3
43 7 70 4 10 8 5 13 -15 3 -16 3 -34 -1 -38z m-2 -99 c6 -7 11 -31 11 -53 2
-61 14 -219 17 -225 8 -13 16 -247 10 -288 -6 -41 -8 -44 -16 -24 -5 13 -6 29
-2 34 3 6 2 9 -3 6 -8 -5 -12 29 -17 140 -1 12 -3 22 -6 22 -4 0 -6 11 -6 24
0 13 3 22 8 19 4 -2 7 1 7 6 0 6 -4 11 -8 11 -4 0 -9 53 -11 118 -2 64 -4 131
-5 147 -1 17 3 36 8 43 5 7 4 12 -3 12 -6 0 -11 5 -11 10 0 14 16 12 27 -2z
m-1054 -966 c3 -56 8 -105 10 -110 18 -29 32 -631 14 -613 -12 12 -24 135 -26
261 -1 63 -4 131 -6 150 -14 117 -13 432 0 418 2 -2 6 -49 8 -106z m17452
-638 c-1 -63 -7 -110 -14 -117 -6 -6 -11 -9 -12 -6 0 2 -2 12 -4 22 -2 9 1 15
5 12 5 -3 11 -1 15 5 3 5 0 10 -7 10 -8 0 -9 3 -3 8 13 9 18 32 7 32 -8 0 -7
71 2 115 6 26 5 25 10 25 2 0 2 -47 1 -106z m-17399 -185 c17 -19 19 -33 29
-179 3 -58 9 -113 12 -124 3 -12 1 -16 -6 -12 -6 4 -11 3 -11 -3 0 -5 4 -11 9
-13 5 -1 12 -39 16 -83 3 -44 9 -91 11 -105 4 -19 3 -21 -4 -10 -18 27 -52
232 -67 403 -13 149 -19 268 -8 177 3 -19 11 -42 19 -51z m1 49 c-3 -8 -6 -5
-6 6 -1 11 2 17 5 13 3 -3 4 -12 1 -19z m17387 -43 c1 -20 -3 -43 -10 -50 -10
-9 -10 -15 -1 -24 6 -6 7 -11 2 -11 -6 0 -3 -5 5 -11 13 -9 12 -10 -2 -5 -12
3 -18 0 -18 -9 0 -8 6 -15 13 -15 8 0 8 -3 2 -8 -6 -4 -11 -15 -12 -24 -2 -42
-4 -48 -14 -48 -5 0 -8 4 -5 9 3 5 6 38 7 75 1 42 6 70 15 77 8 7 11 16 6 23
-7 9 -8 36 -3 63 3 17 12 -8 15 -42z m-1279 -152 c-7 -38 -22 -93 -33 -123
-11 -30 -28 -89 -38 -130 -17 -76 -49 -160 -59 -160 -3 0 -1 8 4 19 11 20 27
78 42 156 6 28 23 91 39 142 16 51 33 110 36 132 4 22 10 39 14 36 4 -3 2 -35
-5 -72z m1259 -105 c-2 -23 -6 -44 -9 -46 -6 -6 -4 45 2 71 8 30 11 18 7 -25z
m-16021 -128 c-3 -12 -8 -19 -11 -16 -5 6 5 36 12 36 2 0 2 -9 -1 -20z m45
-205 c0 -16 -2 -15 -8 5 -4 14 -8 36 -8 50 0 22 1 22 8 -5 4 -16 8 -39 8 -50z
m15762 -82 c-10 -16 -11 -15 -6 7 3 14 6 32 7 40 1 8 4 5 6 -7 2 -12 -1 -30
-7 -40z m-3 -85 c-3 -8 -6 -5 -6 6 -1 11 2 17 5 13 3 -3 4 -12 1 -19z m-18
-92 c-9 -8 -10 -7 -5 7 3 10 7 31 8 45 1 22 2 21 5 -7 3 -19 -1 -38 -8 -45z
m-16981 -141 c-3 -3 -9 2 -12 12 -6 14 -5 15 5 6 7 -7 10 -15 7 -18z m1506
-261 c3 -8 2 -12 -4 -9 -6 3 -10 10 -10 16 0 14 7 11 14 -7z m89 -228 c4 -10
1 -13 -8 -9 -8 3 -12 9 -9 14 7 12 11 11 17 -5z m13901 -31 c-9 -14 -18 -25
-21 -25 -5 0 5 18 20 38 17 22 18 13 1 -13z m-53 -106 c-16 -35 -34 -75 -40
-89 -10 -24 -10 -24 -4 5 8 40 62 160 69 153 3 -3 -8 -34 -25 -69z m1246 -261
c-3 -7 -5 -2 -5 12 0 14 2 19 5 13 2 -7 2 -19 0 -25z m-10 -90 c-3 -8 -6 -5
-6 6 -1 11 2 17 5 13 3 -3 4 -12 1 -19z m-309 -633 c-6 -14 -13 -23 -15 -21
-5 5 15 46 22 46 3 0 -1 -11 -7 -25z m-23 -102 c-25 -49 -55 -99 -66 -113
l-19 -25 16 40 c34 85 94 185 110 185 3 0 -15 -39 -41 -87z m-1474 -50 c-78
-143 -166 -285 -223 -360 -33 -43 -79 -107 -103 -143 -75 -113 -89 -109 -20 5
106 174 369 565 380 565 2 0 -13 -30 -34 -67z m-14002 -216 c67 -135 131 -253
141 -262 11 -10 20 -24 20 -32 0 -8 5 -11 12 -7 7 4 8 3 4 -4 -4 -7 -3 -12 2
-12 11 0 104 -121 182 -235 30 -44 109 -151 177 -238 119 -153 150 -197 138
-197 -3 0 6 -17 22 -37 27 -38 27 -38 -20 7 -47 45 -67 80 -24 44 19 -16 19
-15 -3 10 -48 57 -71 78 -88 80 -9 2 -16 5 -15 9 0 3 -18 25 -40 49 -56 58
-173 215 -193 258 -9 19 -26 49 -38 65 -12 17 -37 57 -55 90 -18 33 -50 83
-71 110 -20 28 -75 123 -120 210 -45 88 -100 193 -122 233 -21 39 -36 72 -31
72 4 0 2 5 -5 12 -14 14 -16 32 -4 24 5 -3 64 -115 131 -249z m1424 187 c16
-19 25 -34 20 -34 -4 0 -21 16 -36 35 -36 45 -21 44 16 -1z m144 -218 c-1 -6
3 -10 8 -9 6 1 39 -42 75 -95 98 -146 191 -276 204 -284 6 -4 8 -8 5 -8 -3 0
12 -19 35 -43 71 -74 96 -106 88 -111 -5 -3 -38 26 -75 64 -37 39 -69 69 -71
67 -7 -4 -56 46 -56 56 0 6 9 0 20 -13 11 -13 20 -18 20 -12 0 6 -13 21 -29
34 -35 29 -156 192 -201 273 -18 33 -39 70 -47 82 -13 20 -13 21 6 16 11 -3
19 -10 18 -17z m13684 -159 l-34 -32 28 38 c15 21 30 35 33 32 3 -3 -9 -20
-27 -38z m-188 -62 c-3 -9 -8 -14 -10 -11 -3 3 -2 9 2 15 9 16 15 13 8 -4z
m-33 -55 c-6 -11 -13 -20 -16 -20 -2 0 0 9 6 20 6 11 13 20 16 20 2 0 0 -9 -6
-20z m160 -8 c0 -5 -7 -17 -15 -28 -14 -18 -14 -17 -4 9 12 27 19 34 19 19z
m-14605 -602 c10 -11 16 -20 13 -20 -3 0 -13 9 -23 20 -10 11 -16 20 -13 20 3
0 13 -9 23 -20z m40 -30 c3 -5 1 -10 -4 -10 -6 0 -11 5 -11 10 0 6 2 10 4 10
3 0 8 -4 11 -10z m211 -174 c92 -97 149 -166 137 -166 -5 0 -24 18 -43 39 -18
22 -38 37 -43 34 -6 -3 -7 -1 -3 5 4 7 -26 45 -70 92 -42 44 -72 80 -67 80 6
0 46 -38 89 -84z m13804 1 c0 -2 -15 -16 -32 -33 l-33 -29 29 33 c28 30 36 37
36 29z m-13907 -112 c23 -32 17 -32 -13 0 -13 14 -19 25 -14 25 5 0 17 -12 27
-25z m11357 -466 c0 -5 -4 -7 -10 -4 -5 3 -10 2 -10 -2 0 -5 -35 -30 -77 -55
-91 -53 -255 -148 -298 -172 -16 -10 -21 -15 -10 -12 l20 6 -20 -16 c-11 -8
-29 -20 -40 -25 -15 -8 -13 -4 5 11 21 18 22 21 5 15 l-20 -6 20 18 c60 56
277 190 335 208 14 4 27 10 30 14 19 24 70 39 70 20z m-545 -324 c-39 -32 -57
-32 -19 0 16 14 34 25 39 25 6 0 -3 -11 -20 -25z m-55 -30 c0 -2 -10 -9 -22
-15 -22 -11 -22 -10 -4 4 21 17 26 19 26 11z m-120 -164 c0 -11 -111 -87 -141
-96 -13 -4 -49 -22 -79 -41 -93 -56 -294 -125 -275 -94 8 13 128 73 212 106
37 15 77 33 88 40 11 8 29 14 42 14 12 0 25 5 28 10 7 11 105 70 118 70 4 0 7
-4 7 -9z m-9191 -271 c50 -47 226 -195 261 -220 19 -13 40 -28 45 -33 6 -4 41
-28 80 -53 38 -24 64 -44 57 -44 -7 0 -30 11 -52 25 -29 18 -38 21 -33 9 5
-14 3 -14 -15 -3 -11 7 -19 16 -16 20 2 4 -6 11 -18 14 -13 4 -31 14 -41 23
-10 9 -25 17 -34 18 -9 2 -23 11 -32 20 -15 17 -15 17 4 3 18 -13 19 -13 6 3
-7 10 -17 16 -21 13 -8 -5 -302 288 -309 308 -2 7 17 -8 44 -33 26 -25 59 -56
74 -70z m7578 -279 c1 -13 -3 -18 -13 -14 -7 3 -11 10 -7 16 3 6 1 7 -5 3 -6
-4 -9 -13 -5 -21 4 -11 1 -13 -11 -9 -9 3 -16 2 -16 -3 0 -5 -10 -9 -22 -8
-13 1 -26 -3 -30 -9 -5 -8 -8 -7 -8 2 0 10 -5 10 -21 2 -11 -7 -23 -9 -27 -6
-3 3 0 6 6 6 7 0 12 7 12 15 0 8 7 15 15 15 8 0 15 -4 15 -9 0 -5 8 -8 18 -6
9 2 21 4 25 4 5 1 6 5 3 10 -4 5 6 14 21 19 41 15 49 14 50 -7z m-3907 -1473
c25 -6 56 -10 69 -9 14 0 28 -5 33 -11 4 -7 8 -8 8 -2 0 11 45 10 200 -3 47
-3 97 -7 112 -7 14 -1 24 -4 22 -7 -4 -6 141 -35 164 -33 6 1 12 -2 12 -8 0
-5 4 -7 9 -4 5 3 21 -4 37 -16 15 -13 25 -17 20 -10 -8 14 -5 15 18 6 9 -3 16
-10 16 -14 0 -10 -173 -3 -245 10 -83 15 -102 18 -165 25 -193 21 -350 51
-388 75 -14 9 -13 10 7 4 16 -4 21 -3 17 5 -9 14 -3 13 54 -1z m3053 -43 c19
-4 26 -2 22 5 -7 12 -3 12 19 4 15 -6 15 -8 -1 -20 -17 -12 -16 -13 5 -7 28 7
29 -12 2 -27 -14 -7 -20 -7 -20 0 0 5 -7 10 -16 10 -8 0 -13 4 -9 9 3 5 1 12
-5 16 -5 3 -10 -1 -10 -9 0 -8 -4 -18 -10 -21 -6 -3 -7 1 -4 9 4 11 0 16 -11
16 -9 0 -14 -3 -12 -7 3 -5 -7 -9 -21 -9 -15 -1 -21 1 -13 3 11 5 11 7 0 15
-10 6 -7 8 11 6 15 -2 24 2 23 9 -2 7 3 11 10 8 6 -2 25 -6 40 -10z m-320 -15
c3 -11 1 -18 -4 -14 -5 3 -9 12 -9 20 0 20 7 17 13 -6z m176 2 c7 -13 6 -19
-2 -19 -7 0 -13 9 -13 19 0 10 1 18 3 18 1 0 7 -8 12 -18z m-209 4 c0 -3 -4
-8 -10 -11 -5 -3 -10 -1 -10 4 0 6 5 11 10 11 6 0 10 -2 10 -4z m114 -12 c3
-8 2 -12 -4 -9 -6 3 -10 10 -10 16 0 14 7 11 14 -7z m66 0 c0 -2 -11 -4 -25
-4 -14 0 -25 4 -25 9 0 4 11 6 25 3 14 -2 25 -6 25 -8z m-105 -4 c3 -6 -1 -7
-9 -4 -18 7 -21 14 -7 14 6 0 13 -4 16 -10z"/>
<path d="M18410 20690 c0 -5 5 -10 11 -10 5 0 7 5 4 10 -3 6 -8 10 -11 10 -2
0 -4 -4 -4 -10z"/>
<path d="M18620 20661 c0 -6 4 -13 10 -16 6 -3 7 1 4 9 -7 18 -14 21 -14 7z"/>
<path d="M18706 20515 c4 -9 16 -21 28 -27 19 -10 19 -9 -3 16 -28 30 -33 32
-25 11z"/>
<path d="M19380 19766 c0 -2 8 -10 18 -17 15 -13 16 -12 3 4 -13 16 -21 21
-21 13z"/>
<path d="M13613 19518 c-4 -7 -1 -8 8 -3 12 8 12 6 0 -9 -10 -12 -16 -13 -21
-6 -5 9 -12 9 -26 1 -11 -6 -32 -15 -47 -21 -16 -5 -25 -14 -22 -20 3 -5 -1
-10 -9 -10 -19 0 -21 -16 -3 -24 6 -3 1 -3 -11 0 -21 5 -23 3 -17 -15 4 -15 2
-21 -8 -21 -8 0 -17 -7 -21 -15 -3 -8 -1 -15 3 -15 5 0 11 6 14 13 4 9 7 9 18
-1 12 -11 12 -13 -1 -10 -8 2 -14 -2 -13 -8 1 -7 -6 -10 -17 -7 -13 4 -27 -7
-50 -39 -33 -45 -114 -108 -141 -108 -9 0 -33 -11 -53 -25 -20 -14 -41 -25
-45 -25 -5 0 -23 -13 -41 -30 -18 -16 -36 -30 -41 -30 -5 0 -9 -5 -9 -11 0 -6
20 1 45 15 25 15 45 22 45 17 0 -13 -72 -71 -81 -65 -11 6 -59 -17 -60 -30 0
-6 -3 -22 -6 -36 -3 -14 -7 -666 -9 -1450 -2 -784 -4 -1531 -5 -1661 l-2 -237
-206 -7 c-113 -4 -259 -5 -324 -1 -65 4 -558 5 -1095 4 -537 -2 -1143 -3
-1345 -3 -353 0 -369 -1 -383 -19 -8 -11 -14 -16 -14 -11 0 5 -13 -4 -30 -20
-16 -15 -27 -32 -24 -37 3 -4 -1 -8 -9 -8 -19 0 -78 -60 -93 -95 -7 -17 -22
-39 -33 -49 -11 -10 -18 -22 -16 -27 3 -4 -2 -14 -10 -22 -11 -12 -12 -17 -2
-20 6 -3 3 -6 -7 -6 -11 -1 -17 -4 -13 -7 3 -3 -3 -14 -14 -25 -10 -10 -19
-26 -19 -34 0 -8 -4 -15 -10 -15 -5 0 -6 -7 -3 -17 4 -10 2 -14 -5 -9 -16 9
-24 -25 -16 -70 11 -60 14 -244 5 -291 -5 -26 -5 -43 1 -43 5 0 7 -4 4 -9 -15
-24 78 -253 122 -299 7 -8 10 -18 7 -23 -4 -5 -2 -9 3 -9 4 0 18 -17 29 -38
25 -43 62 -77 83 -77 8 1 24 -4 35 -10 11 -6 32 -10 47 -9 15 0 25 -3 22 -8
-4 -6 -15 -8 -25 -5 -11 3 -19 1 -19 -4 0 -5 -16 -9 -35 -9 -19 0 -35 4 -35
10 0 5 -7 6 -17 3 -12 -5 -14 -3 -8 8 7 11 6 12 -7 2 -8 -7 -18 -9 -23 -5 -4
4 -5 -4 0 -18 4 -14 8 -35 9 -47 0 -13 4 -24 9 -24 10 -2 20 -5 37 -11 8 -3
49 -11 90 -18 41 -6 95 -16 120 -20 25 -5 86 -14 135 -20 50 -6 124 -15 165
-20 165 -21 261 -29 400 -35 138 -5 1936 -7 2125 -3 50 2 110 -1 135 -6 25 -4
72 -9 105 -10 79 -4 135 -27 136 -58 1 -13 0 -27 -1 -33 -8 -41 -8 -95 0 -95
6 0 10 -8 10 -17 0 -15 -2 -15 -9 -4 -6 9 -9 -5 -9 -40 1 -44 2 -49 8 -24 6
25 15 18 11 -7 0 -5 3 -8 8 -8 5 0 8 -37 6 -82 -2 -46 -6 -589 -9 -1207 -5
-1081 0 -1449 24 -1636 13 -97 53 -225 87 -276 23 -34 62 -69 79 -69 12 0 -5
103 -18 111 -7 4 -10 11 -7 14 16 15 103 -134 93 -160 -4 -11 -2 -14 9 -9 10
3 28 -10 52 -40 21 -24 52 -54 69 -67 l31 -22 -31 34 c-38 41 -75 95 -78 112
-1 7 -20 50 -43 97 -33 67 -44 104 -53 175 -15 118 -20 214 -11 219 4 3 8 -11
9 -31 2 -20 8 -45 13 -56 8 -15 8 -18 -1 -12 -7 4 -4 -4 5 -19 10 -14 14 -26
9 -26 -4 0 -3 -5 4 -12 7 -7 12 -24 12 -39 0 -15 5 -31 10 -34 6 -3 10 -14 10
-25 0 -10 25 -58 56 -106 31 -49 68 -108 83 -132 17 -28 35 -45 54 -49 15 -3
27 -8 27 -12 0 -3 18 -7 41 -8 45 -3 150 17 279 52 168 46 276 74 311 80 48 7
56 19 63 84 3 30 10 69 16 85 5 17 11 47 13 66 2 20 7 41 11 48 4 7 4 17 1 22
-3 6 -2 10 2 10 5 0 8 12 7 28 -1 15 1 31 4 36 10 17 9 130 -1 150 -6 12 -6
16 1 12 7 -4 9 7 7 32 -3 36 8 73 18 62 3 -3 7 -18 8 -35 3 -21 0 -29 -9 -27
-8 1 -11 -2 -7 -8 3 -6 10 -8 15 -5 5 3 7 -23 6 -57 -2 -35 1 -75 5 -90 4 -16
4 -28 1 -28 -4 0 -6 -21 -5 -47 5 -92 1 -213 -7 -213 -3 0 -6 -20 -8 -44 -2
-40 -1 -44 17 -39 19 5 41 49 41 84 0 9 5 19 12 21 11 4 13 10 21 83 7 59 18
95 28 95 6 0 5 9 -1 20 -7 14 -8 26 -1 38 9 14 10 13 11 -10 0 -18 5 -28 15
-28 14 0 20 -13 16 -34 -1 -5 6 -3 16 4 28 22 29 24 11 17 -21 -8 -24 6 -4 22
11 9 15 9 19 -1 3 -7 4 4 2 24 -1 26 3 43 17 54 10 10 19 31 19 48 5 134 3
2807 -2 2896 -6 126 -2 140 48 149 16 2 633 5 1373 6 740 1 1383 3 1430 4 l85
2 -55 14 c-30 8 -81 14 -112 15 -31 0 -60 5 -63 10 -4 7 31 10 107 9 62 -1
137 1 167 5 30 3 84 7 120 7 36 1 97 8 136 15 38 7 74 10 80 6 5 -3 3 3 -5 13
-8 10 -10 16 -4 12 7 -4 17 0 24 8 16 19 101 77 106 72 2 -2 -14 -14 -35 -28
-21 -13 -36 -29 -34 -36 4 -9 15 -5 37 12 18 14 36 22 41 17 5 -4 5 -1 1 6 -4
7 -2 12 7 12 14 0 57 40 57 54 0 4 11 22 25 40 35 46 31 58 -5 15 -40 -50
-186 -121 -241 -117 -23 1 -44 8 -49 17 -4 8 -16 16 -26 17 -11 1 -37 9 -59
18 l-40 16 65 -1 c109 -2 191 21 310 86 54 30 55 32 83 115 28 83 28 90 30
335 2 241 1 252 -20 297 -13 26 -23 61 -23 77 0 17 -4 31 -10 31 -5 0 -10 7
-10 15 0 8 -3 14 -7 13 -10 -3 -77 19 -120 38 -17 8 -36 14 -42 14 -6 0 -11 5
-11 10 0 6 25 10 55 10 46 0 55 -3 55 -17 0 -15 2 -16 10 -3 6 10 10 11 10 3
0 -7 6 -13 13 -13 24 0 14 107 -12 131 -11 11 -21 24 -21 29 0 5 -8 7 -17 4
-15 -5 -15 -4 -3 4 8 6 18 8 23 5 5 -3 7 0 5 8 -3 8 2 19 11 26 14 11 14 12 1
13 -9 0 -22 -6 -29 -12 -11 -11 -11 -9 -2 9 6 12 11 24 11 27 0 2 -29 5 -65 5
-36 0 -75 3 -88 6 -17 5 -19 4 -7 -4 12 -9 11 -11 -7 -11 -13 0 -23 5 -23 11
0 6 -9 9 -20 6 -11 -3 -20 -1 -20 4 0 4 -74 7 -164 6 -90 -1 -162 1 -160 5 6
10 -503 13 -1696 11 -975 -1 -1209 3 -1226 19 -12 12 -11 132 0 141 7 5 6 10
-3 16 -13 8 -13 12 0 27 8 10 9 15 3 11 -7 -4 -14 0 -18 8 -3 8 0 14 7 12 7
-1 13 14 15 41 2 27 -1 42 -9 42 -9 0 -9 3 0 14 10 11 13 281 14 1123 1 1163
-2 1299 -44 1553 -28 171 -30 182 -42 210 -5 14 -9 31 -8 38 1 6 -3 12 -9 12
-5 0 -10 9 -10 20 0 11 -4 28 -9 38 -5 9 -14 37 -21 62 -7 25 -17 56 -23 70
-6 14 -10 30 -9 36 1 6 -7 19 -17 28 -11 10 -17 24 -15 31 4 9 0 12 -13 9 -26
-7 -50 21 -27 30 10 4 21 1 25 -6 4 -7 10 -10 13 -8 2 3 -2 14 -10 25 -13 17
-17 18 -35 7 -17 -11 -20 -11 -14 0 6 10 5 10 -5 1 -10 -9 -6 -25 21 -80 32
-66 33 -72 30 -178 -1 -60 -5 -113 -8 -118 -6 -10 -26 18 -30 43 -1 8 -7 16
-13 18 -8 3 -7 8 1 19 10 11 10 14 -2 11 -9 -2 -13 5 -11 21 1 16 -2 22 -11
18 -8 -3 -14 1 -14 9 0 7 5 10 10 7 6 -4 3 4 -6 18 -9 13 -17 31 -17 41 0 10
-5 18 -10 18 -6 0 -14 8 -17 18 -10 26 -37 57 -53 60 -16 3 -46 15 -98 40 -18
8 -39 15 -47 15 -8 0 -15 3 -15 7 0 7 -33 9 -188 10 -123 1 -210 -5 -257 -20
-16 -5 -52 -12 -79 -15 -27 -3 -54 -9 -60 -12 -6 -3 0 7 14 23 14 16 18 23 10
17 -8 -7 -19 -13 -24 -13 -6 0 0 7 12 16 13 9 30 13 38 10 9 -3 12 -1 9 4 -5
9 1 11 30 10 3 0 22 7 42 15 21 9 49 15 63 14 52 -3 81 1 75 11 -5 8 121 17
158 11 4 0 23 -2 42 -4 19 -1 35 -6 35 -10 0 -4 10 -3 21 4 12 6 19 7 16 2 -4
-6 14 -11 41 -12 58 -2 85 -7 110 -20 33 -18 132 -30 132 -16 0 6 -11 18 -24
25 -25 13 -43 40 -26 40 5 0 15 -7 24 -15 8 -8 19 -15 25 -15 6 0 11 -4 11
-10 0 -5 12 -10 26 -10 21 0 24 3 15 13 -6 8 -8 16 -5 20 3 3 -6 13 -21 23
-18 12 -29 14 -37 6 -7 -7 -17 -7 -34 0 -28 13 -31 25 -6 30 14 3 13 5 -6 10
-12 3 -20 3 -18 -1 3 -4 1 -13 -4 -21 -7 -11 -11 -8 -21 13 -10 22 -18 26 -43
24 -17 -1 -34 -6 -38 -12 -7 -9 -13 27 -8 50 1 6 -1 7 -5 3 -7 -7 -35 15 -35
27 0 14 -31 36 -41 29 -8 -4 -9 -3 -5 4 4 7 1 12 -8 12 -8 0 -23 3 -33 6 -15
5 -15 4 -3 -5 13 -9 12 -11 -5 -12 -11 -1 -23 -1 -27 0 -4 0 -2 -13 4 -29 5
-17 14 -30 18 -30 5 0 11 -8 13 -17 2 -10 3 -8 2 4 -1 13 4 31 11 40 11 16 12
13 7 -19 -4 -25 -2 -38 6 -38 6 0 11 -10 11 -21 0 -18 -3 -19 -15 -9 -8 6 -18
9 -23 6 -5 -3 -20 8 -32 24 -23 30 -60 41 -60 18 0 -6 -2 -9 -5 -6 -7 6 18 58
28 58 5 0 5 5 2 10 -5 8 -11 8 -20 0 -9 -8 -12 -4 -9 15 2 21 0 24 -11 15 -8
-7 -19 -9 -25 -5 -5 3 -10 2 -10 -4 0 -5 8 -14 17 -19 15 -9 14 -11 -4 -23
-12 -7 -19 -19 -16 -26 3 -7 1 -13 -4 -13 -5 0 -9 9 -10 20 -1 11 4 20 13 20
19 0 18 16 -1 24 -11 4 -19 -3 -25 -19 -5 -14 -12 -25 -15 -25 -4 0 -3 5 1 12
5 7 3 8 -5 4 -10 -6 -9 -12 2 -24 12 -15 12 -19 -2 -32 -9 -8 -26 -16 -36 -18
-20 -3 -20 -2 -1 13 11 8 23 15 28 15 4 0 8 5 8 11 0 7 -7 8 -17 4 -10 -4 -27
-10 -38 -13 -18 -5 -18 -4 -6 11 9 11 10 17 2 17 -6 0 -11 -5 -11 -11 0 -6 -9
-9 -19 -6 -15 3 -18 1 -14 -11 5 -12 2 -14 -12 -9 -15 7 -16 5 -4 -9 12 -14
14 -14 25 0 15 21 23 20 21 -3 0 -11 -5 -17 -10 -14 -4 2 -14 -1 -22 -7 -12
-10 -15 -10 -15 0 0 8 -7 21 -15 30 -13 14 -12 18 5 33 11 9 20 13 20 9 0 -4
4 -2 8 3 12 17 56 51 48 38 -4 -7 -2 -13 4 -13 6 0 8 -5 4 -12 -5 -9 -1 -8 12
1 34 26 63 59 57 65 -3 3 -12 -2 -20 -12 -13 -16 -13 -16 -11 2 3 21 -27 31
-39 14z m127 -88 c0 -5 -5 -10 -11 -10 -5 0 -7 5 -4 10 3 6 8 10 11 10 2 0 4
-4 4 -10z m190 -20 c0 -5 -4 -10 -10 -10 -16 0 -12 -17 6 -24 8 -3 12 -2 9 4
-3 6 -4 10 -1 10 2 0 11 3 20 6 13 5 16 -1 16 -28 0 -35 23 -50 34 -22 3 7 14
10 25 7 25 -6 28 -25 4 -22 -10 1 -20 0 -23 -1 -3 -1 -18 -3 -33 -4 -19 -2
-26 1 -23 10 3 7 -2 15 -11 18 -10 4 -14 2 -10 -8 4 -10 1 -13 -8 -10 -16 6
-30 58 -20 74 8 13 25 13 25 0z m-197 -6 c-7 -3 -9 -12 -6 -20 3 -8 -1 -14
-11 -14 -9 0 -16 4 -16 8 0 12 22 32 35 31 5 0 5 -3 -2 -5z m78 -29 c5 3 6 -1
2 -10 -5 -13 -7 -14 -14 -3 -5 7 -8 20 -8 28 1 11 3 10 6 -3 2 -9 9 -15 14
-12z m-121 7 c0 -5 -7 -9 -15 -9 -8 0 -12 4 -9 9 3 4 9 8 15 8 5 0 9 -4 9 -8z
m90 -9 c0 -10 -4 -14 -8 -8 -4 6 -11 13 -16 18 -5 4 -2 7 7 7 10 0 17 -8 17
-17z m280 -84 c0 -6 -4 -7 -10 -4 -5 3 -10 11 -10 16 0 6 5 7 10 4 6 -3 10
-11 10 -16z m130 17 c0 -2 -7 -7 -16 -10 -8 -3 -12 -2 -9 4 6 10 25 14 25 6z
m-900 -181 c-8 -9 -8 -14 1 -17 7 -2 -6 -18 -28 -36 -34 -27 -43 -29 -58 -19
-16 12 -15 15 11 46 27 33 62 53 77 44 4 -3 3 -11 -3 -18z m1061 -328 c-7 -7
-9 -1 -6 19 5 40 7 43 12 15 3 -13 0 -28 -6 -34z m-81 33 c0 -5 -5 -10 -11
-10 -5 0 -7 5 -4 10 3 6 8 10 11 10 2 0 4 -4 4 -10z m100 -122 c-10 -22 -10
-22 -5 5 3 16 1 27 -5 27 -6 0 -8 5 -4 11 12 21 25 -17 14 -43z m-114 -496
c-18 -16 -18 -16 -6 6 6 13 14 21 18 18 3 -4 -2 -14 -12 -24z m8 -349 c-5
-347 -5 -384 -1 -417 1 -10 -3 -21 -8 -23 -7 -2 -11 46 -12 139 -1 79 -2 175
-3 214 -2 39 0 76 4 83 4 6 3 11 -3 11 -6 0 -8 6 -6 13 3 7 7 73 9 147 3 117
10 170 21 170 2 0 1 -152 -1 -337z m-1 -510 c-8 -22 -20 -6 -21 29 -1 33 -1
33 13 9 7 -14 11 -31 8 -38z m-3 -71 c0 -15 -2 -15 -10 -2 -13 20 -13 33 0 25
6 -3 10 -14 10 -23z m-13 -54 c-3 -7 -5 -2 -5 12 0 14 2 19 5 13 2 -7 2 -19 0
-25z m0 -160 c-3 -7 -5 -2 -5 12 0 14 2 19 5 13 2 -7 2 -19 0 -25z m13 -28 c0
-5 -5 -10 -11 -10 -5 0 -7 5 -4 10 3 6 8 10 11 10 2 0 4 -4 4 -10z m-1 -222
c1 -62 -1 -109 -6 -105 -9 9 -12 228 -3 222 3 -2 7 -54 9 -117z m-3 -211 c5
-263 5 -380 0 -385 -3 -3 -1 -11 5 -19 7 -8 8 -13 1 -13 -5 0 -12 6 -15 14 -5
11 -11 327 -8 376 1 8 1 39 1 69 1 85 15 48 16 -42z m14 -437 c0 -5 -4 -10 -9
-10 -6 0 -13 5 -16 10 -3 6 1 10 9 10 9 0 16 -4 16 -10z m5 -70 c-3 -5 -1 -11
4 -14 11 -7 11 -475 -1 -482 -4 -3 -9 3 -9 13 -1 10 -3 29 -5 43 -4 25 -8 452
-4 480 1 9 5 6 11 -8 5 -13 7 -28 4 -32z m-4598 -496 c-3 -3 -12 -4 -19 -1 -8
3 -5 6 6 6 11 1 17 -2 13 -5z m8033 -14 c0 -5 -4 -10 -10 -10 -5 0 -10 5 -10
10 0 6 5 10 10 10 6 0 10 -4 10 -10z m-7996 -20 c-10 -4 -21 -6 -24 -3 -8 7
24 22 34 16 5 -4 1 -10 -10 -13z m96 0 c0 -5 -7 -7 -15 -4 -8 4 -15 1 -15 -7
0 -7 -3 -10 -6 -6 -9 9 5 27 22 27 8 0 14 -4 14 -10z m-130 -9 c0 -6 -4 -12
-8 -15 -5 -3 -9 1 -9 9 0 8 4 15 9 15 4 0 8 -4 8 -9z m6207 -17 c-3 -3 -12 -4
-19 -1 -8 3 -5 6 6 6 11 1 17 -2 13 -5z m60 0 c-3 -3 -12 -4 -19 -1 -8 3 -5 6
6 6 11 1 17 -2 13 -5z m-6399 -75 c-18 -11 -20 -5 -12 27 l7 28 9 -24 c6 -16
5 -26 -4 -31z m5780 44 c-26 -2 -71 -2 -100 0 -29 2 -8 3 47 3 55 0 79 -1 53
-3z m2472 -149 c0 -2 -7 -4 -15 -4 -8 0 -15 4 -15 10 0 5 7 7 15 4 8 -4 15 -8
15 -10z m40 -5 c0 -4 -7 -6 -15 -3 -8 4 -15 10 -15 15 0 4 7 6 15 3 8 -4 15
-10 15 -15z m-2850 -7 c0 -5 -13 -7 -30 -4 -16 2 -30 6 -30 8 0 2 14 4 30 4
17 0 30 -4 30 -8z m80 -1 c0 -6 -15 -9 -34 -8 -19 1 -32 5 -29 10 6 10 63 9
63 -2z m147 2 c-10 -10 -137 -13 -137 -4 0 6 30 10 71 10 39 -1 68 -3 66 -6z
m-5650 -35 c-2 -7 -14 -13 -26 -13 -13 0 -27 -8 -32 -18 -6 -9 -15 -17 -22
-17 -7 0 -6 4 3 10 12 7 12 12 2 22 -9 9 -12 9 -12 -2 0 -7 -3 -10 -6 -7 -4 4
-1 13 6 22 16 19 94 21 87 3z m3213 -1006 c31 -9 96 -21 125 -22 6 0 15 -8 21
-18 11 -17 9 -18 -45 -8 -31 5 -58 13 -61 17 -7 10 -119 18 -520 35 -225 10
-141 16 155 11 160 -3 306 -10 325 -15z m4813 11 c-7 -2 -21 -2 -30 0 -10 3
-4 5 12 5 17 0 24 -2 18 -5z m-7773 -53 c13 -8 13 -10 -2 -10 -9 0 -20 5 -23
10 -8 13 5 13 25 0z m5999 -106 c4 -4 -242 -6 -714 -6 -372 0 -485 3 -450 12
31 7 1156 2 1164 -6z m-3315 -14 c10 -9 13 -9 -226 -10 -103 0 -218 4 -255 9
-37 5 -142 10 -233 11 -90 1 -167 3 -170 6 -8 9 874 -8 884 -16z m303 4 c-3
-3 -12 -4 -19 -1 -8 3 -5 6 6 6 11 1 17 -2 13 -5z m63 -5 c0 -4 -4 -11 -10
-14 -5 -3 -10 -1 -10 6 0 8 -5 7 -17 -2 -16 -12 -17 -12 -6 2 13 16 43 22 43
8z m78 -5 c25 -7 30 -21 7 -21 -8 0 -15 4 -15 9 0 5 -10 6 -21 3 -15 -5 -19
-4 -15 4 8 13 12 13 44 5z m4212 2 c0 -11 -19 -15 -25 -6 -3 5 1 10 9 10 9 0
16 -2 16 -4z m-147 -43 c-18 -2 -48 -2 -65 0 -18 2 -4 4 32 4 36 0 50 -2 33
-4z m-2643 -52 c0 -6 -4 -13 -10 -16 -5 -3 -10 1 -10 9 0 9 5 16 10 16 6 0 10
-4 10 -9z m-118 -323 c-6 -6 -7 0 -4 19 5 21 7 23 10 9 2 -10 0 -22 -6 -28z
m10 -48 c3 -17 1 -33 -4 -36 -4 -3 -5 -17 -2 -32 4 -15 3 -23 -2 -19 -11 10
-14 117 -4 117 4 0 10 -14 12 -30z m-4 -160 c0 -9 -3 -7 -8 5 -5 11 -8 29 -8
40 0 16 2 15 8 -5 4 -14 8 -32 8 -40z m-1 -312 c-3 -8 -6 -5 -6 6 -1 11 2 17
5 13 3 -3 4 -12 1 -19z m0 -120 c-2 -18 -4 -4 -4 32 0 36 2 50 4 33 2 -18 2
-48 0 -65z m0 -180 c-2 -24 -4 -7 -4 37 0 44 2 63 4 43 2 -21 2 -57 0 -80z m0
-90 c-3 -8 -6 -5 -6 6 -1 11 2 17 5 13 3 -3 4 -12 1 -19z m-3 -1044 c3 -8 2
-12 -4 -9 -6 3 -10 10 -10 16 0 14 7 11 14 -7z m-4 -523 c0 -5 3 -18 6 -28 6
-16 5 -16 -9 2 -19 23 -21 35 -7 35 6 0 10 -4 10 -9z m-1050 -231 c0 -5 -2
-10 -4 -10 -3 0 -8 5 -11 10 -3 6 -1 10 4 10 6 0 11 -4 11 -10z"/>
<path d="M14022 19471 c-9 -5 -11 -17 -6 -34 4 -17 2 -27 -5 -27 -6 0 -11 -4
-11 -9 0 -14 35 -7 53 11 18 18 23 68 7 68 -5 0 -10 -12 -10 -27 0 -21 -3 -24
-9 -14 -5 8 -7 20 -4 28 6 15 3 16 -15 4z"/>
<path d="M19950 19052 c6 -13 14 -21 18 -18 3 4 -2 14 -12 24 -18 16 -18 16
-6 -6z"/>
<path d="M7434 19017 c-17 -18 -39 -45 -49 -62 -22 -35 -23 -36 40 33 52 56
60 82 9 29z"/>
<path d="M20050 18850 c6 -11 13 -20 16 -20 2 0 0 9 -6 20 -6 11 -13 20 -16
20 -2 0 0 -9 6 -20z"/>
<path d="M20110 18727 c0 -5 11 -25 25 -45 14 -20 25 -33 25 -29 0 5 -11 25
-25 45 -14 20 -25 33 -25 29z"/>
<path d="M20266 18403 c14 -60 172 -398 181 -389 2 2 -24 60 -57 130 -34 69
-58 132 -54 138 4 6 3 8 -4 4 -9 -6 -33 45 -31 68 0 5 -4 12 -10 15 -6 4 -12
19 -13 34 -1 15 -6 27 -10 27 -5 0 -5 -12 -2 -27z"/>
<path d="M6693 17528 c-6 -7 -22 -40 -37 -72 -21 -46 -24 -61 -14 -68 10 -6
10 -8 0 -8 -7 0 -10 -4 -7 -10 3 -5 -1 -20 -9 -32 -14 -23 -36 -134 -36 -179
1 -23 1 -23 17 6 27 49 74 186 68 196 -4 5 -2 9 3 9 5 0 7 12 4 26 -3 19 -1
25 7 20 6 -4 11 -3 11 3 0 5 -5 13 -10 16 -7 4 -7 12 0 25 13 24 13 33 0 25
-6 -3 -7 1 -4 9 3 9 9 14 13 12 4 -3 7 4 7 15 0 22 -1 23 -13 7z"/>
<path d="M20911 17124 c0 -11 3 -14 6 -6 3 7 2 16 -1 19 -3 4 -6 -2 -5 -13z"/>
<path d="M17970 15579 c0 -5 5 -7 10 -4 6 3 10 8 10 11 0 2 -4 4 -10 4 -5 0
-10 -5 -10 -11z"/>
<path d="M17898 15353 c7 -3 16 -2 19 1 4 3 -2 6 -13 5 -11 0 -14 -3 -6 -6z"/>
<path d="M9178 15195 c-6 -14 -15 -25 -21 -25 -5 0 -7 -7 -3 -15 4 -12 2 -13
-13 -5 -14 7 -20 6 -24 -5 -3 -7 -1 -16 6 -19 9 -3 8 -5 -1 -5 -7 -1 -10 -5
-7 -11 3 -5 2 -10 -3 -10 -5 0 -9 -24 -8 -52 0 -32 5 -52 12 -51 6 1 11 -5 11
-13 0 -7 -4 -14 -9 -14 -5 0 -2 -7 7 -16 20 -20 11 -32 -10 -14 -13 11 -15 5
-15 -49 0 -36 4 -61 11 -61 5 0 8 -4 5 -9 -3 -5 -2 -22 3 -37 5 -16 14 -55 21
-87 6 -31 15 -55 18 -53 4 2 8 -6 8 -19 2 -29 32 -75 50 -75 7 0 11 -8 9 -20
-2 -11 1 -19 8 -17 7 1 11 -4 10 -10 -2 -7 3 -13 10 -13 7 0 18 -9 25 -20 8
-13 18 -17 29 -13 10 3 15 3 12 0 -6 -7 44 -67 125 -151 42 -43 39 -37 -29 71
-22 35 -46 63 -54 63 -8 0 -11 3 -8 7 4 3 -1 12 -11 19 -14 11 -14 15 -4 22
11 7 10 10 -3 15 -9 4 -13 3 -10 -3 3 -6 -1 -7 -10 -3 -13 4 -14 8 -4 14 10 6
10 11 1 22 -7 7 -9 17 -5 20 3 4 2 7 -3 7 -5 0 -20 33 -33 73 -13 39 -26 79
-29 87 -3 8 -7 24 -9 35 -2 10 -11 30 -19 43 -10 15 -11 21 -3 17 9 -6 11 -2
7 13 -4 12 -2 25 3 28 5 3 7 10 4 15 -4 5 -2 9 3 9 13 0 21 60 12 86 -5 11
-10 34 -13 50 -3 16 -11 43 -18 59 -15 36 -20 113 -8 121 12 7 11 24 -1 24 -6
0 -16 -11 -22 -25z"/>
<path d="M18132 14807 c-7 -29 -12 -80 -12 -113 0 -33 -6 -84 -14 -114 -21
-85 -27 -153 -11 -140 8 6 13 33 13 63 1 28 5 53 11 55 5 2 7 10 4 19 -4 10
-2 14 5 9 6 -3 14 -1 18 5 5 8 3 9 -6 4 -9 -6 -10 -2 -4 16 4 13 7 37 6 52 -1
15 2 26 7 23 9 -6 10 -1 16 99 3 44 2 74 -1 66 -4 -9 -9 -10 -13 -3 -4 6 -12
-12 -19 -41z"/>
<path d="M17825 14200 c-3 -6 1 -7 9 -4 18 7 21 14 7 14 -6 0 -13 -4 -16 -10z"/>
<path d="M14948 14033 c61 -2 163 -2 225 0 61 1 11 3 -113 3 -124 0 -174 -2
-112 -3z"/>
<path d="M14568 14023 c12 -2 30 -2 40 0 9 3 -1 5 -23 4 -22 0 -30 -2 -17 -4z"/>
<path d="M12963 13765 c0 -8 4 -12 9 -9 5 3 6 10 3 15 -9 13 -12 11 -12 -6z"/>
<path d="M14436 10862 c-3 -5 1 -9 9 -9 8 0 12 4 9 9 -3 4 -7 8 -9 8 -2 0 -6
-4 -9 -8z"/>
<path d="M19849 10563 c-13 -16 -12 -17 4 -4 9 7 17 15 17 17 0 8 -8 3 -21
-13z"/>
<path d="M13460 10354 c0 -16 66 -84 81 -84 4 0 11 -10 15 -22 7 -22 8 -21 13
7 5 23 16 34 49 50 49 23 54 35 15 35 -16 0 -44 4 -63 9 -83 22 -110 23 -110
5z"/>
<path d="M19464 10153 c-38 -43 -93 -103 -124 -135 -30 -31 -84 -87 -120 -125
-36 -37 -124 -128 -195 -202 -72 -74 -121 -129 -110 -123 33 17 465 460 534
547 35 44 71 88 79 98 8 9 13 17 10 17 -3 0 -36 -35 -74 -77z"/>
<path d="M8490 9402 c0 -12 19 -26 26 -19 2 2 -2 10 -11 17 -9 8 -15 8 -15 2z"/>
<path d="M18654 9378 l-19 -23 23 19 c21 18 27 26 19 26 -2 0 -12 -10 -23 -22z"/>
<path d="M8532 9356 c7 -8 15 -12 17 -11 5 6 -10 25 -20 25 -5 0 -4 -6 3 -14z"/>
<path d="M18574 9298 c-22 -24 -99 -99 -173 -168 -141 -131 -231 -219 -231
-227 0 -5 238 217 375 349 49 48 85 88 79 88 -7 0 -29 -19 -50 -42z"/>
<path d="M18410 9063 c-66 -64 -120 -119 -120 -123 0 -3 33 26 73 64 41 39 99
95 130 124 31 28 51 52 46 52 -5 0 -63 -53 -129 -117z"/>
<path d="M9071 8897 c2 -1 13 -9 24 -17 19 -14 19 -14 6 3 -7 9 -18 17 -24 17
-6 0 -8 -1 -6 -3z"/>
<path d="M16610 7980 c-13 -9 -13 -10 0 -10 8 0 22 5 30 10 13 9 13 10 0 10
-8 0 -22 -5 -30 -10z"/>
<path d="M11745 7690 c3 -5 8 -10 11 -10 2 0 4 5 4 10 0 6 -5 10 -11 10 -5 0
-7 -4 -4 -10z"/>
<path d="M11785 7676 c22 -18 69 -33 163 -51 72 -14 85 -2 15 14 -27 6 -70 18
-98 26 -27 8 -61 17 -75 20 -24 6 -24 6 -5 -9z"/>
<path d="M15145 7560 c3 -5 8 -10 11 -10 2 0 4 5 4 10 0 6 -5 10 -11 10 -5 0
-7 -4 -4 -10z"/>
<path d="M5996 19223 c-6 -14 -5 -15 5 -6 7 7 10 15 7 18 -3 3 -9 -2 -12 -12z"/>
<path d="M5731 18708 l-23 -43 26 30 c21 25 34 55 23 55 -2 0 -14 -19 -26 -42z"/>
<path d="M16995 23190 c-3 -5 -13 -6 -23 -3 -10 3 -6 -2 8 -14 14 -10 70 -33
125 -51 122 -38 130 -40 133 -27 2 6 -7 11 -18 13 -15 3 -20 8 -15 20 3 9 3
13 -1 9 -4 -4 -17 -1 -28 6 -25 16 -140 57 -160 57 -8 0 -17 -4 -21 -10z"/>
<path d="M18480 22410 c8 -5 20 -10 25 -10 6 0 3 5 -5 10 -8 5 -19 10 -25 10
-5 0 -3 -5 5 -10z"/>
<path d="M18631 22314 c63 -42 121 -82 130 -90 8 -8 19 -14 23 -14 12 0 -42
42 -147 113 -54 37 -103 67 -109 67 -6 0 40 -34 103 -76z"/>
<path d="M18614 22291 c7 -11 46 -35 46 -28 0 3 -12 12 -26 22 -15 9 -23 12
-20 6z"/>
<path d="M5361 18104 c0 -11 3 -14 6 -6 3 7 2 16 -1 19 -3 4 -6 -2 -5 -13z"/>
<path d="M5205 17510 c3 -5 8 -10 11 -10 2 0 4 5 4 10 0 6 -5 10 -11 10 -5 0
-7 -4 -4 -10z"/>
<path d="M5195 17481 c-3 -5 -2 -12 3 -15 5 -3 9 1 9 9 0 17 -3 19 -12 6z"/>
<path d="M22660 13845 c-7 -9 -11 -17 -9 -20 3 -2 10 5 17 15 14 24 10 26 -8
5z"/>
<path d="M22625 13679 c-4 -6 -5 -12 -2 -15 2 -3 7 2 10 11 7 17 1 20 -8 4z"/>
<path d="M22546 13485 c4 -8 8 -15 10 -15 2 0 4 7 4 15 0 8 -4 15 -10 15 -5 0
-7 -7 -4 -15z"/>
<path d="M22550 13456 c0 -2 8 -10 18 -17 15 -13 16 -12 3 4 -13 16 -21 21
-21 13z"/>
<path d="M5040 12315 c0 -5 5 -17 10 -25 5 -8 10 -10 10 -5 0 6 -5 17 -10 25
-5 8 -10 11 -10 5z"/>
<path d="M6206 9897 c81 -125 237 -337 249 -337 6 0 -19 41 -52 86 -13 17 -20
33 -17 37 6 6 -74 127 -84 127 -5 0 21 -42 55 -88 14 -18 23 -35 20 -38 -7 -7
-71 93 -94 147 -12 26 -27 50 -34 55 -9 5 -7 -3 5 -20 10 -16 13 -25 7 -22 -6
4 -29 34 -51 66 -61 90 -64 80 -4 -13z"/>
<path d="M20784 9558 l-19 -23 23 19 c21 18 27 26 19 26 -2 0 -12 -10 -23 -22z"/>
<path d="M20811 9423 c-22 -32 -66 -96 -97 -143 -63 -94 -278 -313 -454 -463
-58 -49 -168 -151 -245 -226 -156 -151 -239 -228 -211 -193 11 12 17 24 14 27
-8 8 -173 -163 -173 -180 0 -8 -56 -75 -125 -148 -68 -72 -112 -121 -97 -108
15 14 30 21 34 17 4 -4 1 -12 -8 -16 -9 -5 -33 -31 -54 -57 -25 -32 -4 -15 61
48 54 53 115 109 134 125 54 45 139 125 184 173 23 24 50 54 61 65 11 12 49
46 85 76 36 30 72 62 80 70 9 8 56 53 105 100 50 46 141 133 203 193 110 107
150 134 72 49 -22 -24 -40 -45 -40 -48 0 -20 75 62 121 132 9 14 41 50 71 82
86 90 223 268 258 335 18 34 39 70 47 79 8 9 12 22 8 28 -4 6 -1 17 5 25 7 8
10 15 7 15 -3 0 -23 -26 -46 -57z m-1041 -1106 c0 -2 -12 -14 -27 -28 l-28
-24 24 28 c23 25 31 32 31 24z m-91 -89 c-2 -2 -17 -14 -34 -28 l-30 -25 24
28 c14 15 29 27 34 27 6 0 8 -1 6 -2z m-171 -177 c-13 -16 -30 -32 -38 -36 -8
-3 1 10 19 29 42 44 51 46 19 7z"/>
<path d="M20279 8723 c-13 -16 -12 -17 4 -4 9 7 17 15 17 17 0 8 -8 3 -21 -13z"/>
<path d="M19675 8380 c-59 -61 -105 -113 -101 -117 3 -3 7 -4 9 -2 1 3 49 53
106 111 58 59 103 110 100 113 -3 2 -54 -45 -114 -105z"/>
<path d="M19612 8276 c-40 -40 -72 -71 -72 -68 0 3 7 14 17 24 9 10 13 21 9
25 -7 7 -31 -17 -165 -162 -40 -43 -29 -41 21 5 35 32 82 65 90 63 4 -2 7 3 6
10 -2 6 2 11 8 10 12 -2 170 154 163 161 -3 3 -37 -28 -77 -68z"/>
<path d="M19275 7933 c-31 -37 -37 -47 -16 -28 31 28 77 85 69 85 -2 0 -26
-26 -53 -57z"/>
<path d="M19354 7928 l-29 -33 33 29 c30 28 37 36 29 36 -2 0 -16 -15 -33 -32z"/>
<path d="M19149 7853 c-13 -16 -12 -17 4 -4 9 7 17 15 17 17 0 8 -8 3 -21 -13z"/>
<path d="M18536 7405 c-11 -8 -16 -15 -10 -15 5 0 18 7 28 15 11 8 16 15 10
15 -5 0 -18 -7 -28 -15z"/>
<path d="M17037 6651 c-22 -15 -25 -20 -13 -24 9 -4 16 -2 16 3 0 5 9 12 20
15 11 3 20 11 20 16 0 13 -11 10 -43 -10z"/>
<path d="M11783 6104 c4 -4 15 -9 23 -10 9 -1 30 -9 48 -18 54 -25 187 -58
221 -54 25 3 31 0 27 -11 -3 -9 0 -12 9 -9 8 3 23 2 35 -3 14 -5 21 -3 21 6 0
13 -23 22 -72 31 -11 2 -51 13 -90 25 -38 11 -79 22 -90 24 -11 2 -33 6 -50 9
-16 3 -43 9 -60 12 -16 4 -26 3 -22 -2z"/>
</g>
</svg>
