<?xml version="1.0" standalone="no"?>
<!DOCTYPE svg PUBLIC "-//W3C//DTD SVG 20010904//EN"
 "http://www.w3.org/TR/2001/REC-SVG-20010904/DTD/svg10.dtd">
<svg version="1.0" xmlns="http://www.w3.org/2000/svg"
 width="2230.000000pt" height="2038.000000pt" viewBox="0 0 2230.000000 2038.000000"
 preserveAspectRatio="xMidYMid meet">

<g transform="translate(0.000000,2038.000000) scale(0.100000,-0.100000)"
fill="#000000" stroke="none">
<path d="M5655 20010 c-60 -13 -92 -27 -92 -42 -1 -7 -11 -49 -23 -93 -21 -75
-23 -103 -26 -460 -2 -209 -6 -393 -8 -410 -3 -16 -6 -772 -6 -1680 -1 -1026
-5 -1729 -12 -1860 -17 -340 -15 -929 5 -1140 28 -296 54 -442 83 -466 38 -31
121 -42 357 -44 233 -2 238 -1 241 19 11 55 52 569 66 821 5 105 10 516 10
915 0 488 4 764 12 846 l12 121 54 2 c30 1 60 5 66 9 6 3 1419 9 3141 13 3107
7 3507 12 3526 41 16 26 61 630 47 643 -3 3 -175 10 -382 15 -208 6 -382 12
-386 15 -17 11 -2315 2 -2605 -10 -33 -1 -440 -5 -905 -9 -465 -3 -980 -8
-1145 -11 -165 -3 -543 -8 -840 -11 l-540 -7 -13 84 c-24 148 -34 467 -37
1159 -2 573 -6 717 -24 955 -20 264 -42 453 -59 520 -8 29 -9 29 -128 46 -153
21 -338 30 -389 19z"/>
<path d="M15394 20000 c-63 -13 -111 -36 -128 -62 -8 -12 -25 -63 -37 -113
-20 -86 -22 -124 -30 -775 -6 -477 -5 -758 3 -925 16 -342 15 -833 -1 -1094
-12 -191 -12 -265 0 -515 15 -313 19 -1332 7 -1801 -4 -148 -4 -252 0 -230 6
32 9 15 15 -80 18 -282 57 -497 105 -577 15 -26 21 -28 77 -27 126 1 459 38
485 54 6 4 9 14 6 21 -3 8 -1 259 4 557 6 298 14 823 20 1167 11 758 19 962
34 952 6 -4 524 -7 1151 -7 1023 0 1154 -2 1273 -18 293 -38 476 -101 597
-204 44 -38 189 -208 206 -242 8 -14 37 -63 66 -109 29 -45 53 -85 53 -88 0
-3 9 -19 21 -35 11 -16 17 -29 13 -29 -4 0 1 -9 10 -19 10 -11 15 -24 12 -29
-3 -5 1 -15 8 -21 11 -9 12 -20 5 -47 -7 -22 -7 -96 0 -207 13 -229 20 -400
26 -712 7 -383 9 -2691 2 -2755 -4 -30 -9 -91 -12 -135 -8 -104 -15 -146 -30
-168 -10 -14 -14 -15 -18 -5 -3 10 -7 10 -17 1 -7 -6 -19 -9 -28 -6 -10 4 -13
2 -8 -5 11 -18 -9 -15 -24 3 -8 10 -16 12 -20 6 -3 -6 -21 -14 -40 -17 -25 -5
-31 -4 -25 5 5 9 -1 8 -21 -2 -16 -8 -46 -14 -67 -13 -20 0 -37 -3 -37 -8 0
-5 -10 -1 -22 10 -19 15 -20 16 -9 2 12 -16 11 -18 -3 -18 -9 0 -16 5 -16 11
0 8 -4 9 -13 0 -8 -6 -16 -8 -20 -5 -9 9 -57 12 -57 3 0 -5 -9 -9 -20 -9 -11
0 -20 4 -20 9 0 6 -12 6 -30 1 -18 -5 -32 -5 -36 1 -4 6 -11 6 -19 -1 -9 -8
-15 -8 -20 0 -3 5 -13 10 -21 10 -8 0 -13 -3 -11 -7 3 -5 -12 -8 -34 -9 -29 0
-39 4 -39 15 -1 14 -2 13 -10 -1 -9 -14 -15 -15 -41 -6 -21 7 -34 7 -41 0 -7
-7 -19 -7 -34 -2 -17 7 -24 6 -24 -2 0 -7 -7 -3 -16 8 -8 10 -13 14 -10 8 3
-7 -1 -14 -9 -18 -8 -3 -15 -2 -15 3 0 5 -18 5 -40 1 -21 -4 -41 -4 -42 -1 -2
4 -36 4 -76 1 -53 -4 -71 -2 -68 6 3 8 -4 8 -22 -2 -16 -8 -28 -10 -30 -4 -2
6 -8 7 -13 4 -15 -9 -270 -10 -276 -1 -3 4 -10 3 -17 -2 -7 -6 -16 -8 -19 -5
-3 3 -38 7 -77 8 -50 1 -74 6 -80 16 -8 13 -10 12 -10 -2 0 -20 -5 -21 -70
-18 -25 1 -69 1 -99 1 -35 -1 -57 3 -63 11 -6 11 -8 11 -8 0 0 -9 -12 -11 -40
-8 -22 3 -42 1 -45 -5 -4 -5 -14 -6 -23 -1 -9 4 -37 7 -62 7 -25 0 -48 4 -52
10 -5 6 -11 6 -20 -3 -19 -19 -26 -14 -21 16 3 26 3 26 -7 4 -7 -18 -15 -22
-31 -17 -14 5 -25 2 -30 -6 -7 -11 -9 -10 -9 3 0 9 5 20 10 23 18 11 1 23 -25
17 -24 -4 -36 -32 -14 -32 5 0 7 5 4 10 -3 6 1 10 9 10 10 0 13 -6 10 -15 -7
-17 -30 -20 -39 -5 -3 6 -11 10 -16 10 -6 0 -8 -4 -4 -9 3 -5 1 -12 -5 -16 -5
-3 -10 -1 -10 5 0 18 -24 37 -44 34 -25 -4 -33 -14 -10 -14 10 0 26 -5 34 -11
12 -8 10 -10 -9 -5 -14 3 -32 0 -40 -7 -8 -7 -12 -7 -9 -2 4 6 3 17 -3 25 -7
12 -9 11 -10 -5 0 -11 -3 -14 -6 -7 -2 6 -10 9 -16 5 -19 -11 -48 -11 -44 1 2
6 13 10 23 8 18 -2 18 -2 0 9 -14 9 -20 8 -27 -2 -7 -11 -12 -12 -29 -1 -11 7
-20 8 -20 4 0 -5 10 -14 23 -20 21 -10 21 -11 2 -11 -12 -1 -27 5 -34 12 -11
10 -13 10 -7 0 4 -7 2 -13 -4 -13 -6 0 -8 -5 -4 -11 3 -6 -8 -3 -25 6 -17 9
-36 13 -41 10 -6 -4 -17 1 -26 10 -9 9 -19 13 -23 9 -3 -4 0 -9 7 -11 6 -3 12
-8 12 -13 0 -11 -33 -7 -42 4 -4 6 -14 4 -25 -5 -17 -13 -17 -13 -3 5 16 21
17 21 -39 -2 -9 -3 -12 -1 -7 6 11 18 -5 15 -26 -5 -18 -16 -18 -16 -12 0 4
12 1 17 -11 17 -9 0 -13 4 -10 10 3 6 -1 7 -9 4 -9 -3 -16 -1 -16 5 0 15 -31
1 -53 -22 -9 -11 -20 -17 -24 -13 -4 3 2 13 13 20 10 8 15 18 11 22 -4 5 -12
2 -16 -5 -5 -7 -14 -11 -20 -7 -7 5 -9 1 -5 -8 3 -9 1 -16 -5 -16 -6 0 -11 5
-11 11 0 6 -7 3 -16 -5 -19 -20 -24 -20 -24 0 0 8 5 12 10 9 6 -3 10 -1 10 5
0 7 -6 10 -14 7 -7 -3 -18 -1 -24 5 -6 6 -8 0 -4 -18 3 -19 1 -25 -7 -20 -6 4
-9 11 -6 16 3 5 0 12 -6 16 -8 4 -9 3 -5 -4 4 -7 1 -12 -8 -12 -9 0 -16 -5
-16 -12 0 -6 -3 -8 -6 -5 -4 4 -1 14 6 22 11 13 11 16 0 13 -22 -5 -38 -22
-32 -33 3 -5 2 -7 -2 -3 -5 4 -18 3 -31 -2 -17 -7 -25 -5 -29 6 -3 8 -10 14
-16 14 -6 0 -8 -5 -4 -12 4 -7 3 -8 -4 -4 -7 4 -12 15 -13 24 -1 11 -4 8 -9
-8 -8 -24 -8 -24 -9 -2 -1 12 -6 22 -12 22 -6 0 -8 -9 -3 -22 6 -20 5 -21 -10
-9 -11 9 -16 10 -16 2 0 -7 -5 -9 -10 -6 -6 4 -7 12 -3 19 4 7 0 4 -9 -6 -16
-18 -17 -18 -24 4 l-7 22 -18 -23 c-11 -13 -19 -19 -19 -15 0 5 -4 3 -8 -3 -6
-10 -16 -8 -42 6 -19 10 -41 16 -48 13 -7 -2 -20 4 -28 14 -14 18 -15 18 -5
-3 6 -12 16 -23 23 -26 7 -2 -4 -4 -24 -4 -32 1 -35 2 -20 15 19 15 11 13 -32
-8 -23 -12 -30 -12 -34 -2 -3 10 -7 10 -18 1 -11 -9 -14 -9 -14 0 0 7 -4 10
-9 6 -5 -3 -12 3 -14 12 -4 14 -5 14 -6 -4 -1 -17 -7 -21 -36 -20 -23 1 -31 4
-22 10 7 5 1 6 -18 3 -28 -6 -29 -5 -11 9 23 17 14 20 -15 4 -11 -5 -17 -13
-15 -17 3 -5 -5 -9 -17 -9 -18 -2 -19 0 -7 8 11 8 8 9 -12 5 -21 -5 -28 -3
-28 9 0 8 -5 15 -12 15 -6 0 -8 -3 -5 -7 7 -6 -38 -33 -56 -33 -5 0 -2 9 7 19
11 12 14 21 7 26 -6 3 -11 -1 -11 -10 0 -9 -4 -13 -10 -10 -5 3 -10 -2 -11
-12 0 -10 -3 -13 -5 -6 -4 9 -11 9 -30 1 -20 -10 -27 -9 -35 3 -7 12 -9 12 -9
-1 0 -13 -1 -13 -10 0 -5 8 -10 10 -10 5 0 -14 -43 -14 -52 -1 -5 8 -8 7 -8 0
0 -7 -15 -12 -35 -12 -19 0 -32 4 -29 9 3 5 0 9 -5 9 -6 0 -11 -4 -11 -9 0 -5
-7 -12 -16 -15 -12 -4 -15 -2 -10 9 4 12 2 13 -16 2 -16 -9 -22 -9 -25 0 -3
10 -8 9 -20 -2 -12 -12 -18 -13 -29 -4 -11 9 -14 9 -14 0 0 -7 -5 -9 -10 -6
-6 4 -8 11 -5 16 4 5 2 9 -4 9 -5 0 -11 -5 -13 -12 -4 -12 -98 -15 -116 -4 -6
3 -13 0 -15 -6 -4 -8 -9 -3 -13 11 -7 23 -8 23 -14 5 -5 -13 -16 -19 -39 -19
-21 0 -30 4 -26 13 2 6 0 12 -4 12 -5 0 -11 -6 -13 -12 -3 -7 -19 -13 -37 -14
-24 -1 -31 2 -27 12 3 8 1 14 -3 14 -5 0 -12 -7 -15 -15 -4 -13 -10 -14 -26
-5 -11 6 -20 7 -20 3 0 -10 -153 -9 -168 1 -7 4 -12 3 -12 -3 0 -10 -31 -7
-50 4 -6 3 -10 2 -10 -2 0 -15 -91 -8 -101 8 -7 12 -9 12 -9 -1 0 -13 -21 -15
-132 -15 -73 0 -139 4 -145 8 -8 5 -13 3 -13 -5 0 -9 -3 -9 -10 2 -7 11 -12
12 -21 3 -8 -8 -18 -9 -31 -2 -13 7 -18 6 -18 -3 0 -9 -3 -9 -10 2 -9 13 -12
12 -25 -4 -9 -12 -15 -15 -15 -7 0 10 -9 12 -30 8 -29 -6 -42 6 -17 16 9 4 9
6 -1 6 -7 1 -15 -5 -18 -13 -6 -15 -89 -17 -112 -2 -7 4 -12 3 -12 -1 0 -5
-29 -9 -63 -8 -66 0 -97 14 -97 44 0 10 -9 17 -25 17 -14 1 -25 -2 -25 -7 0
-5 6 -9 13 -9 22 0 51 -37 37 -45 -7 -4 -16 -1 -21 6 -5 9 -9 9 -9 2 0 -18
-70 -12 -70 6 0 14 -1 14 -10 1 -11 -17 -150 -24 -150 -7 0 5 -7 4 -16 -4 -13
-10 -17 -10 -24 0 -6 11 -9 11 -15 1 -6 -10 -11 -9 -22 5 -12 17 -13 17 -13 2
0 -20 -4 -21 -31 -7 -14 8 -19 7 -19 -2 0 -9 -3 -9 -10 2 -7 11 -12 12 -21 3
-8 -8 -18 -9 -31 -2 -10 5 -18 6 -18 2 0 -13 -144 -12 -152 1 -5 7 -8 6 -8 -3
0 -10 -3 -11 -13 -2 -8 6 -17 8 -21 4 -12 -13 -536 -11 -536 1 0 8 -3 8 -8 0
-4 -6 -53 -10 -124 -10 -96 1 -118 4 -122 16 -3 13 -4 13 -5 0 -1 -21 -219
-20 -232 1 -7 12 -9 11 -9 -1 0 -13 -20 -15 -132 -13 -73 1 -144 2 -158 2
-281 -1 -492 1 -500 6 -5 3 -10 3 -10 -2 0 -12 -144 -3 -152 10 -4 7 -8 8 -8
2 0 -5 -14 -10 -30 -11 -23 -1 -30 3 -30 17 0 27 -20 23 -21 -3 0 -22 -1 -22
-9 -3 -5 11 -9 14 -9 8 -1 -7 -11 -13 -23 -13 -21 1 -21 2 -6 13 13 11 7 13
-43 14 -42 2 -62 -2 -65 -11 -7 -17 -54 -16 -54 2 0 6 -5 12 -11 12 -5 0 -8
-4 -4 -9 3 -5 1 -12 -5 -16 -6 -3 -14 4 -19 17 -9 22 -10 22 -11 -7 -2 -29 -2
-29 -9 -5 l-7 25 -8 -25 -8 -25 -7 25 -7 25 -8 -22 c-4 -13 -12 -23 -17 -23
-6 0 -7 5 -3 11 4 8 -8 10 -40 7 -40 -3 -46 -1 -43 14 3 11 0 15 -9 11 -7 -2
-10 -11 -7 -19 3 -8 0 -14 -6 -14 -6 0 -11 7 -11 15 0 8 -4 15 -10 15 -5 0
-10 -7 -10 -16 0 -8 -5 -12 -10 -9 -6 4 -8 10 -6 14 3 4 -10 8 -29 9 -23 2
-37 -3 -44 -15 -9 -16 -11 -15 -12 7 -1 17 -3 20 -6 8 -2 -10 -9 -18 -14 -18
-6 0 -7 5 -4 10 3 6 -1 10 -10 10 -9 0 -13 -4 -10 -10 3 -5 2 -10 -4 -10 -5 0
-13 5 -16 10 -9 15 -25 12 -25 -5 0 -8 -4 -15 -10 -15 -5 0 -7 7 -3 17 5 14 1
15 -31 10 -20 -3 -34 -2 -32 2 3 4 -8 5 -25 3 -16 -2 -29 -9 -29 -16 0 -6 -5
-4 -9 4 -12 20 -109 20 -122 -1 -6 -10 -9 -10 -9 -1 0 19 -20 14 -21 -5 0 -14
-2 -13 -9 4 -6 15 -15 21 -25 17 -8 -3 -12 -10 -9 -15 3 -5 1 -9 -5 -9 -5 0
-12 6 -14 13 -4 9 -8 8 -16 -3 -6 -9 -11 -10 -11 -3 0 14 -92 22 -137 12 -20
-4 -33 -3 -33 3 0 5 -6 8 -12 5 -7 -2 -12 -10 -10 -17 2 -10 -1 -10 -14 0 -14
12 -18 12 -31 -5 -14 -20 -15 -20 -11 0 3 17 -2 19 -32 16 -19 -1 -38 -8 -42
-15 -5 -7 -8 -5 -8 7 0 17 -16 17 -67 1 -7 -2 -13 1 -13 7 0 6 -4 8 -10 4 -5
-3 -7 -11 -4 -18 3 -8 -4 -13 -15 -13 -14 0 -17 4 -10 12 16 19 -9 28 -27 10
-8 -9 -23 -15 -32 -15 -15 1 -15 2 1 6 34 9 16 21 -20 12 -21 -4 -40 -5 -43
-1 -3 4 -43 7 -90 6 -145 -2 -143 -1 -137 -25 4 -16 3 -18 -9 -8 -11 9 -14 9
-14 -1 0 -8 -3 -10 -7 -7 -3 4 -13 1 -21 -6 -13 -10 -14 -8 -8 16 4 16 2 27
-4 27 -5 0 -10 -4 -10 -8 0 -5 -7 -17 -15 -28 -14 -18 -15 -17 -5 8 6 18 6 29
0 33 -6 4 -10 -4 -11 -17 l0 -23 -10 23 c-5 13 -13 21 -19 17 -5 -3 -18 -1
-29 5 -14 7 -22 7 -27 -1 -3 -6 -15 -9 -25 -6 -11 3 -19 0 -19 -7 0 -8 13 -12
34 -12 19 1 32 4 29 9 -2 4 1 7 6 7 6 0 11 -7 11 -16 0 -14 3 -14 15 -4 12 10
15 9 15 -5 0 -14 -7 -16 -45 -12 -31 4 -45 2 -45 -6 0 -7 -4 -6 -11 3 -6 8
-12 11 -15 5 -5 -12 -1004 -13 -1022 -1 -7 4 -12 4 -12 -1 0 -4 -18 -8 -40 -9
-22 0 -40 3 -40 8 0 4 -6 5 -13 2 -23 -8 -221 -11 -249 -3 -16 4 -28 4 -28 0
0 -7 -172 -3 -179 5 -3 2 1 10 7 16 14 14 16 38 3 38 -5 0 -12 -15 -15 -33 -4
-21 -12 -34 -22 -34 -9 0 -13 6 -9 16 5 13 4 14 -6 4 -15 -15 -43 -17 -34 -3
3 6 -1 10 -10 10 -9 0 -14 -4 -11 -9 3 -5 -1 -12 -10 -15 -12 -4 -15 -2 -10 9
5 13 2 14 -17 3 -26 -14 -48 -16 -62 -6 -6 4 -27 3 -48 -2 -22 -5 -39 -4 -43
2 -3 5 -11 5 -19 -2 -10 -8 -15 -8 -20 0 -5 8 -10 8 -20 0 -10 -8 -14 -8 -17
1 -3 8 -9 9 -19 4 -19 -13 -58 -14 -66 -2 -3 5 -10 3 -15 -4 -7 -11 -11 -11
-15 -1 -2 6 -9 9 -15 6 -17 -11 -102 -12 -120 -2 -10 5 -18 5 -18 0 0 -10 -41
-10 -57 1 -6 4 -14 3 -18 -2 -3 -6 -12 -8 -20 -4 -8 3 -15 0 -15 -7 0 -9 -4
-9 -12 -3 -7 6 -30 9 -50 7 -21 -2 -40 1 -43 7 -4 5 -12 6 -18 2 -19 -12 -450
-13 -465 -1 -8 7 -12 7 -12 0 0 -15 -252 -12 -262 3 -5 7 -8 7 -8 -1 0 -7 -42
-11 -120 -11 -65 -1 -123 -4 -129 -7 -5 -4 -12 -3 -14 1 -6 9 -175 9 -184 0
-3 -4 -12 -2 -19 4 -8 7 -14 7 -19 -1 -5 -8 -11 -8 -20 0 -8 7 -20 8 -27 4
-17 -11 -39 -11 -62 -1 -10 5 -16 5 -13 0 7 -11 -214 -10 -233 2 -8 5 -11 4
-7 -2 7 -12 -172 -11 -191 1 -7 4 -12 2 -12 -4 0 -8 -6 -7 -21 1 -12 6 -19 7
-16 2 3 -5 -166 -8 -394 -8 -219 0 -399 -4 -399 -8 0 -5 -5 -5 -10 -2 -18 11
-70 14 -70 4 0 -6 -7 -6 -20 1 -15 8 -20 8 -20 -1 0 -8 -5 -7 -17 2 -9 8 -18
10 -20 4 -3 -11 -94 -12 -112 -1 -6 4 -11 2 -11 -5 0 -8 -5 -7 -17 2 -13 11
-17 11 -20 1 -3 -6 -9 -10 -14 -6 -13 8 -285 18 -354 13 -5 -1 -39 -1 -75 0
-36 0 -72 1 -80 0 -43 -1 -516 9 -520 12 -6 2 -87 6 -197 8 -58 1 -73 4 -73
16 0 13 44 15 338 15 185 0 531 1 769 1 237 1 436 -2 442 -6 7 -3 11 -3 10 2
-3 20 2 24 17 12 22 -18 41 -20 54 -3 9 10 8 12 -9 9 -11 -2 -23 0 -26 5 -4 7
-34 7 -42 0 -8 -7 -30 -5 -40 2 -6 5 -14 5 -18 -2 -3 -5 -11 -10 -16 -10 -6 0
-8 4 -4 9 3 5 0 13 -6 17 -8 5 -9 3 -4 -6 6 -10 4 -12 -9 -7 -10 4 -15 3 -11
-3 8 -12 -5 -13 -25 0 -9 6 -20 5 -29 -3 -12 -10 -14 -9 -8 8 7 19 6 19 -7 2
-14 -18 -15 -18 -25 0 -6 11 -11 13 -11 5 0 -7 -5 -10 -12 -6 -7 4 -8 3 -4 -5
5 -8 -5 -10 -37 -9 -25 2 -43 6 -41 10 2 4 0 10 -6 13 -6 4 -9 3 -8 -2 2 -4
-2 -8 -7 -8 -5 0 -9 4 -7 8 1 5 -2 6 -8 2 -6 -3 -8 -11 -5 -16 4 -5 -1 -9 -10
-9 -9 0 -14 4 -11 9 4 5 -2 8 -11 7 -10 -2 -21 2 -25 8 -6 8 -11 7 -17 -3 -6
-10 -17 -11 -37 -6 -16 5 -40 10 -53 11 -22 3 -23 2 -5 -12 16 -13 14 -13 -20
1 -39 15 -62 12 -50 -7 4 -7 2 -8 -5 -4 -6 4 -9 12 -6 17 5 8 -38 4 -73 -7 -7
-2 -11 0 -8 5 3 5 -13 7 -37 6 -288 -19 -827 -30 -827 -17 0 6 6 13 13 15 7 3
6 6 -5 6 -9 1 -17 9 -16 19 0 9 5 222 11 472 5 250 11 1045 11 1765 1 1303 1
1311 24 1515 43 379 67 484 132 581 94 142 238 236 456 299 60 17 143 42 184
55 107 34 243 70 257 69 7 -1 13 2 13 7 0 4 17 11 38 15 52 9 230 91 267 121
16 14 36 39 44 55 13 26 12 30 -5 43 -24 16 -33 95 -12 95 9 0 10 3 2 8 -16
10 -28 52 -14 52 6 0 -1 12 -15 27 -13 15 -23 35 -20 43 8 25 -80 196 -110
216 -22 14 -42 16 -153 9 -98 -5 -129 -10 -136 -22 -6 -11 -10 -12 -16 -4 -8
14 -183 34 -221 26 -14 -3 -61 -8 -104 -10 -43 -2 -90 -8 -104 -14 -14 -5 -59
-19 -98 -31 -44 -13 -77 -28 -82 -39 -6 -11 -27 -21 -50 -25 -23 -3 -72 -28
-118 -58 -73 -50 -280 -241 -417 -387 -151 -161 -127 -130 -202 -251 -26 -41
-57 -86 -69 -100 -28 -33 -103 -153 -116 -188 -23 -58 -41 -194 -49 -357 -21
-422 -28 -2428 -27 -7455 l2 -5385 23 -160 c12 -88 31 -196 42 -241 32 -127
113 -311 136 -308 5 1 22 4 38 8 26 6 27 6 12 -9 -9 -9 -14 -21 -11 -26 4 -5
-1 -9 -9 -9 -10 0 -13 6 -9 18 5 14 3 15 -7 5 -11 -10 -4 -29 35 -105 26 -51
72 -130 103 -176 88 -132 294 -317 434 -388 55 -28 70 -30 62 -9 -4 10 0 15
11 15 12 0 15 4 9 13 -5 7 -1 4 9 -6 22 -25 22 -48 0 -40 -14 4 -14 2 2 -9 39
-29 352 -141 495 -178 163 -42 396 -49 1655 -51 638 -1 1455 -6 1815 -10 1317
-14 3034 -17 5145 -8 1188 5 3213 11 4500 14 1287 2 2381 7 2430 10 532 34
771 102 1045 295 203 142 278 221 422 435 268 402 306 517 345 1040 17 227 18
548 16 6115 -2 3881 -6 5958 -13 6120 -19 445 -42 610 -115 839 -52 161 -62
185 -102 251 -20 33 -22 41 -9 30 18 -14 19 -14 7 8 -7 12 -17 20 -23 16 -7
-4 -8 -3 -4 4 7 12 -25 57 -103 144 -36 40 -42 51 -30 59 11 7 11 9 -4 9 -10
0 -15 4 -12 10 3 5 0 7 -7 5 -8 -3 -21 8 -31 25 -10 17 -23 28 -28 24 -5 -3
-8 0 -7 7 2 7 -7 18 -19 23 -12 6 -33 28 -47 51 -64 101 -205 220 -329 279
-125 59 -383 142 -498 160 -52 8 -150 18 -219 21 -69 4 -147 9 -175 12 -27 3
-210 7 -405 10 -351 5 -940 -14 -1225 -38 -66 -6 -256 -12 -421 -14 l-302 -4
-11 107 c-22 202 -32 459 -41 1112 -13 937 -29 1250 -74 1472 -12 60 -13 62
-47 65 -19 2 -67 8 -107 13 -86 12 -229 11 -288 0z m-6375 -8286 c-14 -13 -17
-13 -30 2 -12 15 -12 16 9 10 15 -5 22 -3 22 5 0 7 3 9 7 5 4 -3 0 -13 -8 -22z
m27 -10 c-4 -9 -9 -15 -11 -12 -3 3 -3 13 1 22 4 9 9 15 11 12 3 -3 3 -13 -1
-22z m61 4 c-3 -8 -6 -5 -6 6 -1 11 2 17 5 13 3 -3 4 -12 1 -19z m293 12 c0
-5 -4 -10 -10 -10 -5 0 -10 5 -10 10 0 6 5 10 10 10 6 0 10 -4 10 -10z m30 0
c0 -5 -2 -10 -4 -10 -3 0 -8 5 -11 10 -3 6 -1 10 4 10 6 0 11 -4 11 -10z m240
-5 c0 -8 -2 -15 -4 -15 -2 0 -6 7 -10 15 -3 8 -1 15 4 15 6 0 10 -7 10 -15z
m83 8 c-7 -2 -21 -2 -30 0 -10 3 -4 5 12 5 17 0 24 -2 18 -5z m244 1 c-3 -3
-12 -4 -19 -1 -8 3 -5 6 6 6 11 1 17 -2 13 -5z m713 -3 c0 -5 -9 -11 -20 -14
-22 -6 -28 8 -7 16 19 8 27 8 27 -2z m5806 -5 c18 -14 17 -15 -11 -12 -16 2
-31 8 -33 15 -5 16 20 14 44 -3z m-5781 -6 c3 -5 1 -10 -4 -10 -6 0 -11 5 -11
10 0 6 2 10 4 10 3 0 8 -4 11 -10z m5305 6 c0 -3 -4 -8 -10 -11 -5 -3 -10 -1
-10 4 0 6 5 11 10 11 6 0 10 -2 10 -4z m3080 -720 c138 -7 253 -15 255 -18 5
-5 18 -5947 16 -7183 -1 -833 -7 -986 -38 -1105 -2 -8 -5 -21 -5 -27 -1 -7 -5
-13 -10 -13 -4 0 -8 -8 -8 -19 0 -10 -7 -24 -15 -31 -8 -7 -12 -17 -8 -23 3
-5 1 -7 -4 -4 -6 4 -28 -14 -49 -38 -21 -25 -44 -45 -52 -45 -7 0 -10 -4 -7
-10 3 -5 -1 -10 -9 -10 -9 0 -15 -6 -13 -13 1 -6 -3 -11 -10 -10 -12 2 -12
-14 -1 -33 5 -7 -1 -10 -16 -7 -13 3 -27 0 -30 -6 -5 -7 0 -9 11 -5 12 4 10 0
-7 -15 -14 -11 -30 -21 -35 -21 -6 0 -17 -9 -25 -19 -7 -11 -17 -18 -21 -15
-4 2 -10 -4 -13 -14 -4 -11 -22 -27 -41 -37 -18 -11 -32 -22 -29 -26 2 -4 -21
-30 -53 -58 -47 -43 -72 -55 -152 -80 -192 -60 -386 -80 -721 -74 -522 8
-13040 11 -13777 3 -738 -8 -752 -9 -772 -29 l-20 -20 -47 21 c-36 15 -76 21
-170 26 l-124 5 0 -24 c0 -19 -2 -21 -10 -9 -8 12 -10 12 -10 -5 -1 -19 -1
-19 -11 -2 -6 9 -15 15 -20 11 -6 -3 -13 3 -16 15 -6 22 -53 31 -53 10 0 -11
-68 -8 -88 5 -6 4 -18 4 -24 -1 -21 -12 -38 -12 -38 0 0 7 -5 5 -10 -3 -5 -8
-10 -10 -10 -4 0 7 -7 15 -16 18 -9 4 -13 2 -8 -5 5 -8 1 -8 -13 0 -11 6 -23
7 -27 4 -3 -3 -6 1 -6 10 0 18 -61 39 -120 42 -47 2 -80 13 -112 39 -66 53
-92 72 -110 78 -34 14 -118 92 -147 138 -16 25 -43 92 -61 150 -17 58 -38 125
-46 148 -53 169 -91 651 -100 1272 -3 228 -6 1912 -7 3743 l-2 3327 95 1 c52
1 246 5 430 8 184 3 3925 5 8312 3 6503 -2 8023 -5 8228 -16z m-14875 -9475
c3 -5 2 -12 -3 -15 -5 -3 -9 1 -9 9 0 17 3 19 12 6z m-1550 -151 c3 -5 1 -10
-4 -10 -6 0 -11 5 -11 10 0 6 2 10 4 10 3 0 8 -4 11 -10z"/>
<path d="M3451 16924 c0 -11 3 -14 6 -6 3 7 2 16 -1 19 -3 4 -6 -2 -5 -13z"/>
<path d="M3325 11770 c-3 -5 -1 -10 4 -10 6 0 11 5 11 10 0 6 -2 10 -4 10 -3
0 -8 -4 -11 -10z"/>
<path d="M3727 11766 c-4 -9 -11 -16 -17 -16 -6 0 -9 4 -6 8 3 5 -1 9 -9 9
-23 0 -18 -13 11 -25 20 -10 24 -10 19 0 -4 7 1 4 9 -6 16 -20 16 -20 16 0 0
10 -4 25 -9 32 -7 11 -9 11 -14 -2z"/>
<path d="M3807 11766 c-4 -9 -14 -16 -22 -16 -10 0 -13 5 -9 13 4 6 3 8 -1 4
-21 -18 -12 -34 17 -32 36 3 42 9 30 30 -8 16 -10 16 -15 1z"/>
<path d="M4281 11762 c-14 -26 -14 -32 1 -32 6 0 8 3 5 7 -4 3 -2 12 5 20 6 7
8 16 5 19 -3 3 -10 -3 -16 -14z"/>
<path d="M19289 11763 c-13 -16 -12 -17 4 -4 16 13 21 21 13 21 -2 0 -10 -8
-17 -17z"/>
<path d="M3855 11762 c-22 -15 -12 -29 20 -29 19 0 33 4 32 8 -1 4 3 6 8 6 6
-1 9 -4 8 -7 -1 -3 7 -6 18 -6 10 0 19 4 19 8 0 4 -5 8 -11 8 -5 0 -8 4 -5 8
2 4 -7 7 -22 6 -41 -2 -44 -3 -37 -14 3 -6 -1 -7 -9 -4 -9 3 -13 10 -10 15 6
11 3 11 -11 1z"/>
<path d="M3970 11757 c0 -10 4 -16 9 -12 5 3 12 1 16 -4 3 -7 15 -7 29 -1 13
5 27 6 32 2 4 -4 4 -2 1 5 -4 6 -1 14 5 16 8 3 6 6 -4 6 -10 1 -18 -3 -18 -9
0 -5 -5 -10 -11 -10 -5 0 -7 6 -4 13 4 6 0 4 -8 -5 -13 -16 -15 -16 -30 0 -16
15 -17 15 -17 -1z"/>
<path d="M4113 11755 c-10 -10 -9 -14 3 -19 22 -8 24 -8 24 8 0 21 -13 26 -27
11z"/>
<path d="M4560 11755 c-7 -9 -11 -17 -9 -20 3 -2 10 5 17 15 14 24 10 26 -8 5z"/>
<path d="M6840 11765 c0 -5 4 -16 9 -24 7 -10 12 -11 27 -1 16 9 16 11 2 6
-10 -3 -22 2 -27 12 -6 9 -10 13 -11 7z"/>
<path d="M12915 11757 c-15 -12 -16 -15 -4 -22 8 -5 11 -5 7 0 -4 4 0 14 10
21 23 18 11 18 -13 1z"/>
<path d="M13066 11759 c4 -8 -1 -9 -15 -4 -16 5 -21 2 -21 -10 0 -12 6 -15 20
-10 13 4 20 2 20 -7 0 -10 3 -9 10 2 13 21 12 27 -6 34 -9 4 -13 2 -8 -5z"/>
<path d="M13349 11753 c-7 -7 -9 -17 -5 -20 4 -4 10 -2 14 4 5 8 13 9 22 3 21
-13 27 -12 27 4 0 20 -44 26 -58 9z"/>
<path d="M19330 11763 c0 -15 18 -35 23 -27 3 5 -1 15 -9 22 -8 7 -14 9 -14 5z"/>
<path d="M4075 11751 c-3 -5 -2 -12 3 -15 5 -3 9 1 9 9 0 17 -3 19 -12 6z"/>
<path d="M6395 11750 c-7 -12 2 -30 16 -30 5 0 9 5 9 11 0 5 -5 7 -12 3 -8 -5
-9 -2 -5 9 7 19 2 23 -8 7z"/>
<path d="M6555 11749 c-4 -6 -5 -12 -2 -15 2 -3 7 2 10 11 7 17 1 20 -8 4z"/>
<path d="M6596 11751 c-9 -13 29 -42 47 -35 8 3 18 13 21 21 5 13 4 14 -8 4
-8 -7 -16 -8 -18 -4 -3 4 -3 2 -2 -4 2 -7 -1 -13 -6 -13 -9 0 -14 14 -11 33 1
10 -17 9 -23 -2z"/>
<path d="M6682 11740 c0 -14 2 -19 5 -12 2 6 2 18 0 25 -3 6 -5 1 -5 -13z"/>
<path d="M6710 11745 c-9 -11 -10 -15 -1 -15 7 0 9 -5 5 -12 -4 -7 -3 -8 5 -4
6 4 8 12 5 18 -5 8 -1 9 9 5 10 -4 24 -10 32 -13 8 -3 15 -1 15 6 0 6 5 8 10
5 6 -4 7 -12 4 -18 -4 -7 -3 -9 1 -4 5 4 10 16 12 27 2 17 0 18 -21 9 -17 -8
-29 -8 -44 0 -15 8 -23 7 -32 -4z"/>
<path d="M6900 11743 c0 -16 5 -20 19 -16 13 3 18 10 13 21 -4 12 -7 13 -10 3
-4 -11 -6 -11 -13 0 -6 10 -9 8 -9 -8z"/>
<path d="M7192 11748 c-16 -16 -15 -33 1 -19 8 6 17 8 21 4 4 -4 4 0 0 10 -7
20 -7 20 -22 5z"/>
<path d="M7350 11745 c-8 -9 -8 -15 -2 -15 12 0 26 19 19 26 -2 2 -10 -2 -17
-11z"/>
<path d="M7390 11750 c-13 -8 -13 -11 -1 -19 11 -7 10 -10 -5 -14 -16 -4 -16
-5 -2 -6 9 0 20 4 23 9 3 6 14 10 24 10 10 0 18 7 18 15 0 11 -4 12 -11 5 -5
-5 -17 -10 -25 -10 -14 0 -14 1 -1 10 8 5 11 10 5 10 -5 0 -17 -5 -25 -10z"/>
<path d="M7460 11736 c0 -14 4 -26 8 -26 11 0 12 39 1 45 -5 4 -9 -5 -9 -19z"/>
<path d="M8656 11745 c-3 -8 -1 -15 4 -15 6 0 10 7 10 15 0 8 -2 15 -4 15 -2
0 -6 -7 -10 -15z"/>
<path d="M12551 11744 c0 -11 3 -14 6 -6 3 7 2 16 -1 19 -3 4 -6 -2 -5 -13z"/>
<path d="M12790 11749 c0 -5 5 -7 10 -4 6 3 10 8 10 11 0 2 -4 4 -10 4 -5 0
-10 -5 -10 -11z"/>
<path d="M12825 11751 c-3 -5 0 -13 6 -17 7 -4 9 -3 5 4 -3 5 0 13 6 15 9 4
10 6 1 6 -6 1 -14 -3 -18 -8z"/>
<path d="M12940 11745 c-11 -13 -10 -14 4 -9 9 3 16 10 16 15 0 13 -6 11 -20
-6z"/>
<path d="M13100 11745 c-5 -7 -7 -15 -3 -18 3 -4 12 1 19 11 7 9 14 12 14 6 0
-6 12 -10 28 -9 39 3 42 4 42 17 0 9 -3 9 -12 0 -7 -7 -19 -12 -27 -12 -12 0
-13 2 -3 8 8 6 2 9 -18 9 -17 0 -35 -6 -40 -12z"/>
<path d="M13222 11748 c2 -6 10 -14 16 -16 7 -2 10 2 6 12 -7 18 -28 22 -22 4z"/>
<path d="M13271 11746 c-1 -13 4 -16 16 -12 9 4 20 1 25 -6 5 -9 8 -8 8 6 0
13 -5 17 -20 13 -10 -3 -21 0 -24 7 -2 6 -5 3 -5 -8z"/>
<path d="M13428 11748 c-4 -9 4 -13 28 -14 22 0 34 4 34 13 0 7 -9 13 -20 13
-11 0 -20 -6 -20 -12 0 -10 -2 -10 -9 0 -7 11 -9 11 -13 0z"/>
<path d="M13585 11752 c-11 -12 -3 -17 24 -18 17 -1 32 4 34 11 5 11 -47 18
-58 7z"/>
<path d="M13665 11752 c-12 -13 -3 -21 25 -20 16 1 27 4 25 9 -3 4 1 9 7 11 7
3 -2 5 -19 5 -18 0 -35 -3 -38 -5z"/>
<path d="M13739 11744 c-9 -11 -8 -14 5 -14 9 0 16 5 16 10 0 7 7 7 21 0 11
-7 23 -9 27 -6 3 3 0 6 -7 6 -7 0 -10 3 -8 8 9 13 -42 10 -54 -4z"/>
<path d="M13857 11753 c-4 -3 -7 -11 -7 -17 0 -6 5 -5 12 2 6 6 9 14 7 17 -3
3 -9 2 -12 -2z"/>
<path d="M13995 11749 c-11 -16 -1 -19 13 -3 7 8 8 14 3 14 -5 0 -13 -5 -16
-11z"/>
<path d="M14067 11746 c-7 -17 3 -20 53 -17 44 3 48 4 43 19 -4 10 -8 11 -13
2 -4 -7 -13 -9 -19 -5 -7 4 -18 2 -26 -5 -10 -8 -16 -7 -23 6 -8 15 -10 15
-15 0z"/>
<path d="M14303 11746 c-9 -11 -9 -15 0 -19 7 -3 14 3 14 14 2 22 2 22 -14 5z"/>
<path d="M14356 11751 c-4 -7 -5 -15 -2 -18 9 -9 19 4 14 18 -4 11 -6 11 -12
0z"/>
<path d="M14503 11753 c-20 -8 -15 -19 9 -20 16 -2 19 0 9 6 -11 7 -11 9 0 14
8 3 10 5 4 5 -5 0 -16 -2 -22 -5z"/>
<path d="M14546 11751 c-9 -14 24 -36 56 -37 28 -2 28 -1 9 13 -12 7 -29 13
-38 11 -10 -2 -17 2 -15 10 2 14 -4 16 -12 3z"/>
<path d="M16785 11751 c-6 -11 13 -26 22 -17 4 3 1 6 -6 6 -7 0 -9 5 -6 10 3
6 4 10 1 10 -3 0 -7 -4 -11 -9z"/>
<path d="M17306 11752 c-2 -4 -1 -14 3 -21 6 -9 11 -10 15 -2 4 6 2 11 -4 11
-6 0 -8 5 -5 10 3 6 4 10 1 10 -3 0 -7 -4 -10 -8z"/>
<path d="M17665 11750 c3 -5 1 -11 -5 -15 -5 -3 -10 -1 -10 4 0 14 -40 14 -60
1 -13 -8 -13 -10 2 -10 9 0 18 -3 21 -7 2 -5 3 -3 1 3 -1 7 5 10 16 7 12 -3
17 -11 13 -21 -3 -11 1 -9 11 5 12 16 23 20 48 17 22 -3 29 -2 19 4 -10 8 -10
11 -1 14 7 2 -4 4 -24 5 -20 1 -34 -3 -31 -7z"/>
<path d="M17821 11744 c0 -11 3 -14 6 -6 3 7 2 16 -1 19 -3 4 -6 -2 -5 -13z"/>
<path d="M17871 11744 c0 -11 3 -14 6 -6 3 7 2 16 -1 19 -3 4 -6 -2 -5 -13z"/>
<path d="M17900 11751 c0 -10 19 -25 25 -20 1 2 -3 10 -11 17 -8 7 -14 8 -14
3z"/>
<path d="M18164 11744 c1 -9 9 -20 17 -24 11 -7 15 -2 16 18 0 15 -1 19 -4 10
-2 -10 -9 -18 -14 -18 -6 0 -8 4 -4 9 3 5 1 12 -4 15 -5 4 -8 -1 -7 -10z"/>
<path d="M4180 11745 c0 -7 30 -13 34 -7 3 4 -4 9 -15 9 -10 1 -19 0 -19 -2z"/>
<path d="M4230 11740 c0 -5 5 -10 11 -10 5 0 7 5 4 10 -3 6 -8 10 -11 10 -2 0
-4 -4 -4 -10z"/>
<path d="M4307 11736 c-4 -10 -1 -13 9 -9 7 3 14 9 14 14 0 14 -17 10 -23 -5z"/>
<path d="M4430 11742 c0 -5 7 -9 15 -9 8 0 12 4 9 9 -3 4 -9 8 -15 8 -5 0 -9
-4 -9 -8z"/>
<path d="M4500 11739 c0 -5 5 -7 10 -4 6 3 10 8 10 11 0 2 -4 4 -10 4 -5 0
-10 -5 -10 -11z"/>
<path d="M6507 11739 c7 -7 15 -10 18 -7 3 3 -2 9 -12 12 -14 6 -15 5 -6 -5z"/>
<path d="M6823 11730 c1 -11 5 -20 9 -20 11 0 10 28 -1 35 -6 3 -9 -4 -8 -15z"/>
<path d="M6980 11738 c0 -5 20 -8 44 -8 24 0 52 -3 62 -7 12 -4 15 -2 12 8 -3
10 -21 14 -61 14 -31 0 -57 -3 -57 -7z"/>
<path d="M7110 11740 c0 -5 5 -10 11 -10 5 0 7 5 4 10 -3 6 -8 10 -11 10 -2 0
-4 -4 -4 -10z"/>
<path d="M7310 11740 c0 -5 5 -10 10 -10 6 0 10 5 10 10 0 6 -4 10 -10 10 -5
0 -10 -4 -10 -10z"/>
<path d="M7550 11739 c0 -5 5 -7 10 -4 6 3 10 8 10 11 0 2 -4 4 -10 4 -5 0
-10 -5 -10 -11z"/>
<path d="M7586 11742 c-3 -5 1 -9 9 -9 8 0 12 4 9 9 -3 4 -7 8 -9 8 -2 0 -6
-4 -9 -8z"/>
<path d="M7624 11739 c-3 -6 -3 -13 0 -16 3 -4 6 -1 6 5 0 6 7 9 15 6 8 -4 15
-4 15 -1 0 11 -30 16 -36 6z"/>
<path d="M7710 11740 c0 -5 5 -10 11 -10 5 0 7 5 4 10 -3 6 -8 10 -11 10 -2 0
-4 -4 -4 -10z"/>
<path d="M7777 11743 c-10 -9 -9 -23 1 -23 5 0 9 7 9 15 0 17 -1 18 -10 8z"/>
<path d="M7831 11734 c0 -11 3 -14 6 -6 3 7 2 16 -1 19 -3 4 -6 -2 -5 -13z"/>
<path d="M8607 11743 c-15 -2 -25 -8 -22 -12 6 -11 55 -1 55 10 0 5 -1 8 -2 8
-2 -1 -15 -4 -31 -6z"/>
<path d="M8710 11736 c0 -9 5 -16 10 -16 6 0 10 4 10 9 0 6 -4 13 -10 16 -5 3
-10 -1 -10 -9z"/>
<path d="M12110 11740 c0 -5 5 -10 11 -10 5 0 7 5 4 10 -3 6 -8 10 -11 10 -2
0 -4 -4 -4 -10z"/>
<path d="M12470 11740 c0 -5 5 -10 11 -10 5 0 7 5 4 10 -3 6 -8 10 -11 10 -2
0 -4 -4 -4 -10z"/>
<path d="M12650 11746 c0 -2 7 -7 16 -10 8 -3 12 -2 9 4 -6 10 -25 14 -25 6z"/>
<path d="M13950 11742 c0 -5 7 -9 15 -9 8 0 12 4 9 9 -3 4 -9 8 -15 8 -5 0 -9
-4 -9 -8z"/>
<path d="M14271 11734 c0 -11 3 -14 6 -6 3 7 2 16 -1 19 -3 4 -6 -2 -5 -13z"/>
<path d="M14390 11740 c0 -5 5 -10 11 -10 5 0 7 5 4 10 -3 6 -8 10 -11 10 -2
0 -4 -4 -4 -10z"/>
<path d="M14651 11734 c0 -11 3 -14 6 -6 3 7 2 16 -1 19 -3 4 -6 -2 -5 -13z"/>
<path d="M14755 11740 c-3 -5 -1 -10 4 -10 6 0 11 5 11 10 0 6 -2 10 -4 10 -3
0 -8 -4 -11 -10z"/>
<path d="M15186 11742 c-3 -5 1 -9 9 -9 8 0 12 4 9 9 -3 4 -7 8 -9 8 -2 0 -6
-4 -9 -8z"/>
<path d="M15299 11737 c5 -5 19 -7 32 -5 20 3 19 5 -9 9 -20 3 -29 2 -23 -4z"/>
<path d="M17146 11741 c-4 -7 -5 -15 -2 -18 9 -9 19 4 14 18 -4 11 -6 11 -12
0z"/>
<path d="M17343 11738 c3 -9 1 -19 -6 -22 -9 -3 -9 -5 0 -5 18 -1 23 13 11 29
-8 12 -9 12 -5 -2z"/>
<path d="M18073 11733 c-17 -14 -17 -14 1 -5 10 5 27 7 37 5 11 -3 19 -3 19 0
0 13 -41 13 -57 0z"/>
<path d="M18235 11740 c-16 -7 -17 -9 -3 -9 9 -1 20 4 23 9 7 11 7 11 -20 0z"/>
<path d="M18305 11741 c-3 -5 -2 -12 3 -15 5 -3 9 1 9 9 0 17 -3 19 -12 6z"/>
<path d="M19305 11740 c-3 -5 -1 -10 4 -10 6 0 11 5 11 10 0 6 -2 10 -4 10 -3
0 -8 -4 -11 -10z"/>
<path d="M6430 11725 c0 -8 2 -15 4 -15 2 0 6 7 10 15 3 8 1 15 -4 15 -6 0
-10 -7 -10 -15z"/>
<path d="M7240 11725 c0 -8 2 -15 4 -15 2 0 6 7 10 15 3 8 1 15 -4 15 -6 0
-10 -7 -10 -15z"/>
<path d="M8453 11733 c9 -2 23 -2 30 0 6 3 -1 5 -18 5 -16 0 -22 -2 -12 -5z"/>
<path d="M11938 11733 c6 -2 18 -2 25 0 6 3 1 5 -13 5 -14 0 -19 -2 -12 -5z"/>
<path d="M12570 11736 c0 -2 7 -6 15 -10 8 -3 15 -1 15 4 0 6 -7 10 -15 10 -8
0 -15 -2 -15 -4z"/>
<path d="M14182 11720 c-7 -11 -8 -20 -3 -20 9 0 24 30 18 36 -1 2 -8 -6 -15
-16z"/>
<path d="M14964 11728 c9 -5 23 -5 32 0 12 6 7 9 -16 9 -23 0 -28 -3 -16 -9z"/>
<path d="M15378 11733 c6 -2 18 -2 25 0 6 3 1 5 -13 5 -14 0 -19 -2 -12 -5z"/>
<path d="M15790 11729 c0 -5 5 -7 10 -4 6 3 10 8 10 11 0 2 -4 4 -10 4 -5 0
-10 -5 -10 -11z"/>
<path d="M15950 11732 c0 -19 29 -27 43 -12 10 10 8 12 -7 6 -12 -4 -23 -1
-28 6 -6 11 -8 11 -8 0z"/>
<path d="M16193 11730 c2 -8 12 -16 23 -17 13 -2 15 -1 4 4 -8 3 -19 11 -23
17 -6 7 -7 6 -4 -4z"/>
<path d="M16228 11733 c7 -3 16 -2 19 1 4 3 -2 6 -13 5 -11 0 -14 -3 -6 -6z"/>
<path d="M16588 11733 c7 -3 16 -2 19 1 4 3 -2 6 -13 5 -11 0 -14 -3 -6 -6z"/>
<path d="M16628 11733 c7 -3 16 -2 19 1 4 3 -2 6 -13 5 -11 0 -14 -3 -6 -6z"/>
<path d="M16740 11730 c0 -5 7 -7 15 -4 8 4 15 8 15 10 0 2 -7 4 -15 4 -8 0
-15 -4 -15 -10z"/>
<path d="M17028 11733 c7 -3 16 -2 19 1 4 3 -2 6 -13 5 -11 0 -14 -3 -6 -6z"/>
<path d="M17548 11733 c7 -3 16 -2 19 1 4 3 -2 6 -13 5 -11 0 -14 -3 -6 -6z"/>
<path d="M17741 11724 c0 -11 3 -14 6 -6 3 7 2 16 -1 19 -3 4 -6 -2 -5 -13z"/>
<path d="M17788 11733 c7 -3 16 -2 19 1 4 3 -2 6 -13 5 -11 0 -14 -3 -6 -6z"/>
<path d="M18425 11730 c-3 -5 -1 -10 4 -10 6 0 11 5 11 10 0 6 -2 10 -4 10 -3
0 -8 -4 -11 -10z"/>
<path d="M18496 11731 c-3 -4 6 -8 19 -9 13 -1 26 2 29 6 2 4 -7 8 -20 8 -13
1 -26 -1 -28 -5z"/>
<path d="M18586 11731 c-19 -7 -19 -8 0 -13 13 -3 21 0 21 8 0 8 -1 14 -1 13
-1 0 -10 -4 -20 -8z"/>
<path d="M19268 11733 c7 -3 16 -2 19 1 4 3 -2 6 -13 5 -11 0 -14 -3 -6 -6z"/>
<path d="M17481 11714 c0 -11 3 -14 6 -6 3 7 2 16 -1 19 -3 4 -6 -2 -5 -13z"/>
<path d="M6978 11713 c7 -3 16 -2 19 1 4 3 -2 6 -13 5 -11 0 -14 -3 -6 -6z"/>
<path d="M7738 11713 c7 -3 16 -2 19 1 4 3 -2 6 -13 5 -11 0 -14 -3 -6 -6z"/>
<path d="M16765 11710 c3 -5 10 -10 16 -10 5 0 9 5 9 10 0 6 -7 10 -16 10 -8
0 -12 -4 -9 -10z"/>
<path d="M18895 11710 c-3 -6 1 -7 9 -4 18 7 21 14 7 14 -6 0 -13 -4 -16 -10z"/>
</g>
</svg>
