<?xml version="1.0" standalone="no"?>
<!DOCTYPE svg PUBLIC "-//W3C//DTD SVG 20010904//EN"
 "http://www.w3.org/TR/2001/REC-SVG-20010904/DTD/svg10.dtd">
<svg version="1.0" xmlns="http://www.w3.org/2000/svg"
 width="1898.000000pt" height="1373.000000pt" viewBox="0 0 1898.000000 1373.000000"
 preserveAspectRatio="xMidYMid meet">

<g transform="translate(0.000000,1373.000000) scale(0.100000,-0.100000)"
fill="#000000" stroke="none">
<path d="M9595 13179 c-262 -21 -596 -85 -820 -155 -259 -81 -434 -157 -677
-295 -215 -122 -283 -173 -503 -370 -360 -324 -653 -718 -806 -1084 -190 -456
-259 -804 -259 -1306 0 -316 31 -554 106 -819 148 -518 429 -1006 783 -1361
263 -263 558 -478 880 -638 453 -227 1021 -344 1506 -311 207 14 544 64 701
105 336 86 762 288 1079 513 90 64 486 454 583 574 90 112 304 436 361 548 58
114 169 392 204 510 36 122 52 198 93 435 58 335 57 628 -2 1005 -63 406 -231
855 -429 1150 -112 165 -412 542 -503 632 -40 39 -112 99 -112 94 0 -4 -17 6
-37 23 -65 53 -99 84 -83 75 13 -7 13 -5 2 8 -8 9 -19 15 -27 12 -7 -3 -21 8
-31 25 -10 16 -22 27 -27 24 -16 -10 -55 37 -49 59 4 18 2 19 -16 9 -31 -17
-44 -14 -82 19 -19 17 -45 33 -57 36 -12 3 -25 14 -28 23 -3 10 -20 24 -38 32
-21 9 -31 20 -29 32 2 12 -4 17 -21 17 -13 0 -69 22 -123 50 -54 27 -144 63
-199 81 -55 17 -131 44 -170 59 -140 55 -362 113 -555 146 -80 14 -168 29
-196 34 -84 14 -301 19 -419 9z m315 -479 c283 -17 419 -40 645 -110 222 -68
544 -234 772 -397 378 -270 714 -700 882 -1128 133 -340 183 -559 202 -885 29
-493 -55 -936 -256 -1345 -78 -159 -117 -223 -259 -430 -145 -211 -233 -316
-341 -408 l-60 -51 40 45 c22 25 13 18 -20 -16 -79 -81 -205 -176 -180 -135
11 18 -1 11 -21 -12 -19 -22 -19 -23 1 -8 18 14 19 14 7 -2 -8 -9 -20 -14 -27
-12 -7 3 -18 -4 -24 -15 -12 -21 -202 -151 -223 -151 -12 0 -120 -58 -128 -70
-9 -12 -216 -86 -310 -110 -25 -7 -91 -31 -147 -55 -56 -24 -121 -46 -145 -49
-24 -3 -101 -13 -173 -21 -71 -9 -137 -20 -146 -25 -8 -4 -79 -9 -156 -11 -78
-2 -139 -8 -136 -12 2 -4 -42 -5 -99 -2 -57 3 -133 5 -170 5 -110 -2 -223 18
-409 70 -472 133 -696 243 -1029 508 -196 155 -438 415 -568 609 -84 126 -189
311 -229 406 -120 284 -204 618 -234 934 -31 320 42 799 177 1160 125 336 290
593 564 876 246 254 409 380 670 516 341 177 656 285 910 311 288 30 397 33
620 20z"/>
<path d="M11495 8008 l-50 -53 53 50 c48 46 57 55 49 55 -1 0 -25 -24 -52 -52z"/>
<path d="M11325 7889 c-65 -52 -71 -59 -59 -59 5 0 35 23 67 50 70 60 63 67
-8 9z"/>
<path d="M9880 7335 c-47 -9 -55 -13 -30 -13 19 -1 62 5 95 13 75 17 23 17
-65 0z"/>
<path d="M9768 7323 c7 -3 16 -2 19 1 4 3 -2 6 -13 5 -11 0 -14 -3 -6 -6z"/>
<path d="M11612 12588 c2 -6 10 -14 16 -16 7 -2 10 2 6 12 -7 18 -28 22 -22 4z"/>
<path d="M9694 5494 c5 -14 4 -15 -8 -5 -19 16 -326 1 -371 -19 -11 -4 -101
-16 -200 -25 -353 -33 -834 -130 -1165 -234 -462 -145 -637 -215 -1045 -419
-375 -187 -649 -365 -1060 -690 -143 -113 -195 -161 -513 -476 -274 -272 -343
-348 -507 -561 -235 -305 -418 -603 -610 -990 -189 -384 -306 -690 -345 -907
-11 -60 -5 -128 12 -128 5 0 16 -16 23 -35 8 -19 25 -40 37 -47 24 -13 202
-13 8092 1 l3419 6 10 30 c5 17 20 41 33 55 55 60 56 100 3 266 -119 372 -367
900 -599 1274 -162 261 -418 613 -555 763 -174 190 -745 757 -763 757 -4 0
-23 13 -42 30 -19 16 -41 29 -49 30 -8 0 -39 21 -69 48 -81 70 -186 152 -195
152 -5 0 -25 13 -45 30 -20 16 -56 45 -79 63 -23 19 -83 56 -133 82 -51 26
-149 81 -219 123 -153 91 -530 279 -661 328 -52 20 -167 65 -255 100 -336 133
-549 193 -1005 283 -259 51 -452 81 -570 88 -83 5 -112 11 -105 23 4 6 -12 10
-37 11 -24 0 -119 3 -212 5 -156 5 -168 4 -162 -12 5 -13 3 -14 -6 -7 -7 5
-21 13 -32 17 -14 5 -17 3 -12 -10z m323 -10 c-3 -3 -12 -4 -19 -1 -8 3 -5 6
6 6 11 1 17 -2 13 -5z m63 -4 c0 -5 -7 -7 -15 -4 -8 4 -15 8 -15 10 0 2 7 4
15 4 8 0 15 -4 15 -10z m55 0 c7 -12 -2 -12 -30 0 -19 8 -19 9 2 9 12 1 25 -3
28 -9z m210 -476 c419 -53 913 -170 1265 -299 290 -107 637 -265 911 -415 318
-175 788 -522 1108 -819 303 -282 686 -757 896 -1111 144 -244 455 -887 455
-942 0 -4 -1124 -7 -2497 -7 -1374 -1 -2676 -4 -2893 -8 -460 -9 -5176 -11
-5184 -2 -10 9 64 171 242 527 212 424 260 503 503 827 301 401 499 610 888
933 557 464 1073 759 1746 999 355 126 620 192 1055 262 244 40 503 71 670 81
234 14 609 2 835 -26z"/>
</g>
</svg>
