<?xml version="1.0" standalone="no"?>
<!DOCTYPE svg PUBLIC "-//W3C//DTD SVG 20010904//EN"
 "http://www.w3.org/TR/2001/REC-SVG-20010904/DTD/svg10.dtd">
<svg version="1.0" xmlns="http://www.w3.org/2000/svg"
 width="91.000000pt" height="79.000000pt" viewBox="0 0 91.000000 79.000000"
 preserveAspectRatio="xMidYMid meet">

<g transform="translate(0.000000,79.000000) scale(0.100000,-0.100000)"
fill="#000000" stroke="none">
<path d="M349 558 c-74 -89 -74 -87 -60 -101 9 -9 22 -1 56 38 l44 50 1 -148
c0 -136 1 -148 18 -145 15 3 18 20 22 141 l5 138 40 -40 c42 -44 55 -50 55
-25 0 20 -107 144 -124 144 -7 0 -32 -24 -57 -52z"/>
<path d="M157 244 c-12 -12 -8 -64 8 -93 24 -47 54 -53 259 -49 l188 3 24 28
c29 34 35 117 9 117 -10 0 -15 -10 -15 -33 0 -18 -7 -43 -16 -55 -15 -21 -20
-22 -202 -22 -103 0 -193 4 -201 9 -8 5 -17 28 -20 52 -6 40 -19 57 -34 43z"/>
</g>
</svg>
